<mxfile host="app.diagrams.net" agent="Mozilla/5.0 (Windows NT 10.0; Win64; x64) AppleWebKit/537.36 (KHTML, like Gecko) Chrome/140.0.0.0 Safari/537.36" scale="1" border="0" version="28.1.2" pages="2">
  <diagram name="Page-1" id="NQ9SlEQo75kLHiaXl8XJ">
    <mxGraphModel dx="1426" dy="846" grid="1" gridSize="10" guides="1" tooltips="1" connect="1" arrows="1" fold="1" page="1" pageScale="1" pageWidth="984" pageHeight="787" math="0" shadow="0">
      <root>
        <mxCell id="0" />
        <mxCell id="1" parent="0" />
        <mxCell id="_Gt7bBRQ5WeV5vQwa5ph-7" value="" style="rounded=0;whiteSpace=wrap;html=1;strokeColor=none;fillColor=#E4EBF7;movable=1;resizable=1;rotatable=1;deletable=1;editable=1;locked=0;connectable=1;" parent="1" vertex="1">
          <mxGeometry x="20" y="577" width="960" height="160" as="geometry" />
        </mxCell>
        <mxCell id="_Gt7bBRQ5WeV5vQwa5ph-1" value="Presentation" style="rounded=0;whiteSpace=wrap;html=1;rotation=270;strokeColor=none;fillColor=#FFF38E;movable=1;resizable=1;rotatable=1;deletable=1;editable=1;locked=0;connectable=1;" parent="1" vertex="1">
          <mxGeometry x="-90" y="187" width="200" height="20" as="geometry" />
        </mxCell>
        <mxCell id="_Gt7bBRQ5WeV5vQwa5ph-2" value="Application" style="rounded=0;whiteSpace=wrap;html=1;rotation=270;strokeColor=none;fillColor=#99FF99;movable=1;resizable=1;rotatable=1;deletable=1;editable=1;locked=0;connectable=1;" parent="1" vertex="1">
          <mxGeometry x="-130" y="427" width="280" height="20" as="geometry" />
        </mxCell>
        <mxCell id="_Gt7bBRQ5WeV5vQwa5ph-3" value="Database" style="rounded=0;whiteSpace=wrap;html=1;rotation=270;strokeColor=none;fillColor=#B7E2FF;movable=1;resizable=1;rotatable=1;deletable=1;editable=1;locked=0;connectable=1;" parent="1" vertex="1">
          <mxGeometry x="-70" y="647" width="160" height="20" as="geometry" />
        </mxCell>
        <mxCell id="_Gt7bBRQ5WeV5vQwa5ph-5" value="" style="rounded=0;whiteSpace=wrap;html=1;strokeColor=none;fillColor=#FAF9E6;movable=1;resizable=1;rotatable=1;deletable=1;editable=1;locked=0;connectable=1;" parent="1" vertex="1">
          <mxGeometry x="20" y="97" width="960" height="200" as="geometry" />
        </mxCell>
        <mxCell id="_Gt7bBRQ5WeV5vQwa5ph-6" value="" style="rounded=0;whiteSpace=wrap;html=1;strokeColor=none;fillColor=#CEE8D2;movable=1;resizable=1;rotatable=1;deletable=1;editable=1;locked=0;connectable=1;" parent="1" vertex="1">
          <mxGeometry x="20" y="297" width="960" height="280" as="geometry" />
        </mxCell>
        <mxCell id="er37VX0HFplQ5w4zfamw-1" style="edgeStyle=orthogonalEdgeStyle;rounded=0;orthogonalLoop=1;jettySize=auto;html=1;" edge="1" parent="1" source="PJhSbcQMCHO_07woLFYN-4" target="PJhSbcQMCHO_07woLFYN-7">
          <mxGeometry relative="1" as="geometry" />
        </mxCell>
        <mxCell id="PJhSbcQMCHO_07woLFYN-4" value="simulation-project-backend&lt;div&gt;&lt;br&gt;&lt;/div&gt;&lt;div&gt;Manages simulation runs&lt;/div&gt;" style="rounded=0;whiteSpace=wrap;html=1;spacingTop=40;fillColor=#d5e8d4;strokeColor=#82b366;" parent="1" vertex="1">
          <mxGeometry x="50" y="377" width="200" height="120" as="geometry" />
        </mxCell>
        <mxCell id="er37VX0HFplQ5w4zfamw-2" style="edgeStyle=orthogonalEdgeStyle;rounded=0;orthogonalLoop=1;jettySize=auto;html=1;" edge="1" parent="1" source="PJhSbcQMCHO_07woLFYN-6" target="PJhSbcQMCHO_07woLFYN-7">
          <mxGeometry relative="1" as="geometry">
            <Array as="points">
              <mxPoint x="490" y="550" />
              <mxPoint x="150" y="550" />
            </Array>
          </mxGeometry>
        </mxCell>
        <mxCell id="er37VX0HFplQ5w4zfamw-4" style="edgeStyle=orthogonalEdgeStyle;rounded=0;orthogonalLoop=1;jettySize=auto;html=1;" edge="1" parent="1" source="PJhSbcQMCHO_07woLFYN-6" target="er37VX0HFplQ5w4zfamw-3">
          <mxGeometry relative="1" as="geometry" />
        </mxCell>
        <mxCell id="PJhSbcQMCHO_07woLFYN-6" value="simulation-project-core&lt;div&gt;&lt;br&gt;&lt;div&gt;Runs the simulation&lt;/div&gt;&lt;/div&gt;" style="rounded=0;whiteSpace=wrap;html=1;spacingTop=40;fillColor=#d5e8d4;strokeColor=#82b366;" parent="1" vertex="1">
          <mxGeometry x="390" y="377" width="200" height="120" as="geometry" />
        </mxCell>
        <mxCell id="PJhSbcQMCHO_07woLFYN-7" value="Database" style="shape=cylinder3;whiteSpace=wrap;html=1;boundedLbl=1;backgroundOutline=1;size=15;fillColor=#bac8d3;strokeColor=#23445d;spacing=2;spacingBottom=-28;" parent="1" vertex="1">
          <mxGeometry x="109.97" y="610" width="80.06" height="106.74" as="geometry" />
        </mxCell>
        <mxCell id="PJhSbcQMCHO_07woLFYN-2" value="&lt;div&gt;&lt;br&gt;&lt;/div&gt;&lt;div&gt;simulation-project-frontend&lt;/div&gt;&lt;div&gt;&lt;br&gt;&lt;/div&gt;Front end" style="rounded=0;whiteSpace=wrap;html=1;spacingTop=40;fillColor=#fff2cc;strokeColor=#d6b656;" parent="1" vertex="1">
          <mxGeometry x="390" y="140" width="200" height="120" as="geometry" />
        </mxCell>
        <mxCell id="PJhSbcQMCHO_07woLFYN-10" style="edgeStyle=orthogonalEdgeStyle;rounded=0;orthogonalLoop=1;jettySize=auto;html=1;" parent="1" source="PJhSbcQMCHO_07woLFYN-2" target="PJhSbcQMCHO_07woLFYN-4" edge="1">
          <mxGeometry relative="1" as="geometry" />
        </mxCell>
        <mxCell id="PJhSbcQMCHO_07woLFYN-11" style="edgeStyle=orthogonalEdgeStyle;rounded=0;orthogonalLoop=1;jettySize=auto;html=1;" parent="1" source="PJhSbcQMCHO_07woLFYN-2" target="PJhSbcQMCHO_07woLFYN-6" edge="1">
          <mxGeometry relative="1" as="geometry" />
        </mxCell>
        <mxCell id="_Gt7bBRQ5WeV5vQwa5ph-9" style="edgeStyle=orthogonalEdgeStyle;rounded=0;orthogonalLoop=1;jettySize=auto;html=1;sourcePerimeterSpacing=30;" parent="1" source="PJhSbcQMCHO_07woLFYN-3" target="PJhSbcQMCHO_07woLFYN-2" edge="1">
          <mxGeometry relative="1" as="geometry" />
        </mxCell>
        <mxCell id="PJhSbcQMCHO_07woLFYN-3" value="Browser" style="sketch=0;pointerEvents=1;shadow=0;dashed=0;html=1;strokeColor=none;fillColor=#434445;aspect=fixed;labelPosition=center;verticalLabelPosition=bottom;verticalAlign=top;align=center;outlineConnect=0;shape=mxgraph.vvd.web_browser;" parent="1" vertex="1">
          <mxGeometry x="465" y="10" width="50" height="35.5" as="geometry" />
        </mxCell>
        <mxCell id="_Gt7bBRQ5WeV5vQwa5ph-10" value=":3000" style="text;html=1;align=center;verticalAlign=middle;whiteSpace=wrap;rounded=0;fillColor=#E6E6E6;" parent="1" vertex="1">
          <mxGeometry x="470" y="90" width="40" height="17.25" as="geometry" />
        </mxCell>
        <mxCell id="_Gt7bBRQ5WeV5vQwa5ph-11" value=":8080" style="text;html=1;align=center;verticalAlign=middle;whiteSpace=wrap;rounded=0;fillColor=#E6E6E6;" parent="1" vertex="1">
          <mxGeometry x="130" y="335" width="40" height="17.25" as="geometry" />
        </mxCell>
        <mxCell id="_Gt7bBRQ5WeV5vQwa5ph-12" value=":8081" style="text;html=1;align=center;verticalAlign=middle;whiteSpace=wrap;rounded=0;fillColor=#E6E6E6;" parent="1" vertex="1">
          <mxGeometry x="470" y="335" width="40" height="17.25" as="geometry" />
        </mxCell>
        <mxCell id="_Gt7bBRQ5WeV5vQwa5ph-15" value="" style="shape=image;verticalLabelPosition=bottom;labelBackgroundColor=default;verticalAlign=top;aspect=fixed;imageAspect=0;image=data:image/png,iVBORw0KGgoAAAANSUhEUgAAAPoAAAB3CAYAAAAqwl07AAAABGdBTUEAALGPC/xhBQAAACBjSFJNAAB6JgAAgIQAAPoAAACA6AAAdTAAAOpgAAA6mAAAF3CculE8AAAABmJLR0QA/wD/AP+gvaeTAAAAB3RJTUUH6AcVEywc0HRiOgAAHglJREFUeNrtnXt8VNW5979rTyY3CIQiN61SUauCdxQkk0DUWou3I+owAaX1vNUebW21b616jraN9VI/WO37eqn1hlYFMhmrrah4JyUzQUDkIoqogCAEJAJJgNxmZj/njxmSyWQmmUsyySTr9/nMJ8lkr73XXvv5reeyn/Us0NDQ0NDQ0NDQ0NDQ0NDQ0NDQ0NDQ0NDoHig9BD2E4muyaWkuQPmPRNQQDPkKMVbhKavWg6OhiZ7uKHKcgaluA7kIGBT2Xz/wGoo/4Hau1YOloYmebrCVHA7mo6BmxHB0M6JuparsYT1wGqmARQ9BN6Bg5tUoXgN1eowtMlBMZ+zJTWxb79EDqKGJ3pdht1sYdtKDKDUXyE7gDOdx5Mlb+Xr9Gj2YGn3GdB9W+mGhH7lCYZwOMgrIHLAjZ/rUgapn9vob6ycmeaYDmOYJLHPt0OKo0VPIiOWg/NLV3xN8T5twnkIBMrBHzfRxcM3L+/2N9Ud3w9kGYxhzgau0OGr0mkbP/+NHp4ppvg2MBBiRl8Wxo3MZkmPFMAYgx02TV194gqbdm7vztIJYjqZqwVYtkhop1+hDSqu+I6b5KjAyK8PCjLNGc+r3hg7oUP1z855LhuQtgBnBn1cY/lnA/VokNXrBdM+6E+Qoq8XgP885irHDc0AGruH+zpuLWe7+d6LNa4AGYGwUnX6FJrpG6k33h7/IGrq3rgbIKx4/nPNPHjmgB2r9unU8+ejDmKaZSPNNKPkMURd1ckwzTUPzWPWkV4ulRso0+tC9tUWg8hQw8eh8/ObADcBVb9/OvL89nhjJhS+Av4O6p4sjs8je/33gEy2WGik03Y1xIORmWsjLsTJQee7zenn+madoaWlOpPkOlNwM6qXYDjeP0kTXSCnRlZI8Eci0GpgDWJsvevkf7NyxPZGmtZjm5RjGE0BObI6UytYiqZFSoou0+e+mDEyif75hA5VL3k2kaQOGXAyqBDgt9mamJrpGqk33NvgHIM8bGxoof/E5JP5JThD1E0wjF8yb42qpaNQiqdErRBdhQJrur7rKqNu3N/6GInMxLO8hvk9AqTjbfqtFUqPXNPpAM923bv6SNSs/SKClvM8RcgfV/sdAjYm7uWH9RoukRu8RfQBpdNP0s6h8YSIm+zYMKWGHcQaK6xK4tA8j82stkhq9qNEHzoAs+/cSdlXHHWVvAXUFo9lLNW8BiawC+JyK55q0SGr0mo8+UJJlDuyvp+Lt1xMx2UvxOD+k0HETcHpCFxelS0tpaB89FXjv9Vdobow78L0c6+4HsJUcjsgfE764YqUWR41e9tH7/0Ds2f0NH3+4It5mDWD+hIoKHzbHXGBIwh0Q/xItjhq9Z7ojA0KjL31rESJxzmjC7VS5NlJgPw2YlfjV1R6qJqwDl5ZIjd7U6P2b6Lurt/PZ+tXxNltC1YmPBXhqPERiAbggz+UdKDW1OGr0HtGl/2fGLX17USDqGDtawLwBSk0KSi4COSepDpjykhZFjV423ft3MG7nti1s2RjvgjH5Mx7XRux2C9WSbLGIgzQ3LtaiqKFN9x7Eh0vjXrSyjabGewGotlwDclJyPVCvs2pRgxZFjd4nej/lee3eGjZ/9nG8zX7NqkUNTLHngNyVfC/kOS2GGn3CdO+vCTOrPUviTHWVd/CUvwyAYbke5IjklLlsZ4y8rcVQo49o9P5H9KaGg2xcE9d78xaUuhGAiZfkgtyavDLnWVwuvxZDjd4nuvTPhJn1K9z4vC3xsPIp3OWfA5A96Ocgo5PsgheL8ZQWQQ2t0XsIpulnw6q49jY8iJEZCMD9cM4gDjb/ths2op3P0jK9Wk2jr/jo0u+i7l9/sYGGA/XxONMPU/niTgAavDeCSrb2tYDxZy1+Gn1Ko/e3hJnP18blm+9DGQ8AUGwfjFdu6Qbf/HWqFupqrxradO8pNDceZMemDXEoc+biXrAv4FVbrgc5LOlOBLZZ1tDoQ6Z7P6sZt+njD/H7fbGq3p3kZj0CwAR7JsjN3dCFD/CUVWrR09AavQex+eM4ln0rHuTtFw4CkG+Zk/R7c63NNfo00fvJ67X6Pd9QW7MzVpLX0ShPB/4oNVAbftMNu0uuxF32Ty12Gn3PdAf8/USjf/3F+ngOf5RVrjoACj67HOHEpDsgxu0M3M1oNfq0Ru9HPnr1ppgD3U14jUfatLvc1g2Xf4Oqhe9rkdPowz56+t9o08F69n0TY3VXxbMsXxiosV5kn4bJmUle3kTMO7S4afRxHz39mV795fpYi0v48ZsPtd28uinpiyv+jse1RoubRh/20aVf+Oi7tnwWKyv/wTLXlwBMtR+NX12arDGBof6gRU0jDTR6et+kiMm+XVtjPfzRths3bgQsSWrzB3VOu0aa+OjprdH31+zC19wUCyk34C5zA2C7NA/4aZKX3kZu5p+0mGn0fdNd0p/oe3duie1AU/2NQ6+/JOdqYGhypgS/ak240dDQpnvPojY2s70Rw3ghRLtfl9RFFW/hcf5Li5hG2hA93YNxdbtjcpGdrYtXChxnkegeaocmDSw/1+KlkT6mO+n/ei1v5JE07a/tQgOrv7X+bqjrSG5yux/3gs1avDTSy3RPY56bPi+jjj+Lmk2dVntdg7tsORCoBydSkuDltoLMx5qrF65opBnR0zkFVoSN/36J44sd5Aw9jMa6b6Op8/mtv2blXgrkxXGVZuAlUE/gKXOjc9k10lejp6fsHtxTzd6tn7J701qGjzuF7aujpJor4+W232VWjPXgvgX1MD71ZGu6bCyw2y1UW04HORsYgZJ8MPYh5i4UX9LYWNVhQweb/XhMaljm2tsjA2W3W9iecRzKPA3kKBRDgaEo1YzQAuwANoFai6esuluuaZt5IaL+I642htqJu6xU07aHfHR/mkbd92z9FICvV7/HMVNnAu9HMduD/vSkGcNB/aiL034DPIjVfJwK1wEACmcPQ/mPptL5UdRWk2YMx5r5K6rVL0CGB7/1I6oeJB+UQoDs3GZsjipQS1BUotReTLMKi1wHLOy2wSm2D8anLkHUlVRzAYY5KDjTHTqiHsEPDGsnDTbHVygWo0wnla6lCVswCgvIsaCOA46MocU+RN7QlNUavaNkbAuUjGo5WMeBmu1Yc4fgbQgvCqnatLk180ogM8rpdqB4AL/5JBlZ+Xh9F2FzFAJTEf8E/OqCqB2ZUnIehiwERoCsQeS/yZB3Wera0ir2BY5xKFUMcj1wDsg5CNDdY184exiYN+GVm4D84Le1KPUUYr6LKR+RVfMVFRXBMjylBlM/GYvfOB2YDsxEuAExbsDm+BThzxxhPh93fXp3+SJgUaBPJcWIzAcOj+gaCddQ5XRqtyhxRLVRh5Z+eAvwgNWi+O7wnLS7seb9e9nwattKU2tOHoNHH82+LevC7cGT8AQLNdoc/wamhh1Qj8hDKPUxSqaBOr/D2nQlD+Muj7z4pXDmLES9QCCV9g8cbt7bJSlsjquAx9vFCpTMxl2+MKlnXTDzWgz1ANKaCFSDqHtoPvh0zPu/2S7Ng9xfgtwe0r+1KPNG3C534hNQyQxEXo7Q68dxO/Wryh433dM0GGfJHkxGVi6+5oD8ehv303KgNvywLa0kn1pyJH4pDPmfD6gC2YNSNwHDkIjz4mf45faInSiwT0HUswGSy314yv8YU+c9zvkUOD5H8T4wOOnBKLp6DKb3eeAHITpxEVbj/1Cx8Nu4zuV5dT9wH1PtCzEtZYhMAk5FjAoKHfeT8U1pmzUQB0yrBxVhQw1T6TX83QAjloP8kn4fMawMO3Ziu/toObgvXFu82UZrc1bIeLQA1UARqBnt/dR28CH8mGWuxo7/KjVQxmNAFshurLl3x/VkqpwrgeuTJ7l9PKZ3GfCDdhaI58TL4iZ5KJa6tuD3F7ea32BBuAPfqNcotsc/OdU11UaZAXZrmqaI6KYpafXx+7zs+WIl+eMmooy2W/Q2HgAVqpWlbV9yw7gi5B+ZwFF0HX6/L0jICAT79FJas+vUG1Q81xT30/E4F4BaljjJHWdgGm5gbMi3zwTcjNLkQ6zLXI0MqbcDFSHxugvwGksoviw/rnN94moBOk6YyrJH0zQFRJdgMC6dPg17d1Hz8RJEGeSOGtfeD2kLbjWTmxUwC20lhyNyVpxjt5ymofdEnx2Ny9qEVW1N8PkI8ExCLQtmj8WU18KskQ9oGnpDt0rQ4sXNeFuuJPAK7hDOxJv1WmAzyvhCKx2Jrhp7nAWTZgyn+Jrsga3Rg5ssptOn4dvt+Fua+PbTSgaN+X60O6tsXVmmuJh4NlNT1KEss1n1pLeTgTsnZAwzE35CPvVa3G2Kr8nG8C8CNSbk20aEqzvvc4JY8coelHFteNiO7EFPJC+h3p4NENlK7sOa+S3exn0UzvzNwDbd00yjN34bWMRSt3kVmUNGhZnrrex7P0TTx5e4gfp5F7nsCgjZbVVOSvgJBZJxdsXVxtv4B4STw3r0EFXOTT0mSe6Fb6Lk9bAxvhpbSXJr+lssPRwJll8Hf8lG1J8psk8bsKa735S0+jTXBRLVxDSp27qWrGERXs+KBPzKQODo3NjlQs3DXbagc41qH0T79/HnBZJxEoTHOSbmV2tFjjOA8P3h9pPRnIJNHY0IAUd5gMmzRsVoKale4MCa9lrNYhvAGj3NPi1tr4QPbF1HRm6HuNABmod9GDCNLecD2TEK4gYGW3/V5XEVExoIvJ47hFwyM/8nJU/UlHvp+Nr071T8s7bHr+0uW45S4TtYDsNi/jFxCTV6WKOb1wCHEpeaUP63Bi7R0yzqbh3StquxmD5aasNT0cXd6qsKsZrtB1DmlbFVjCk1QWrCTKObKHRc3LP+puPsiCm8Yi5ImUSJLIwwQV7D1JIjE5PQHvbRPa6NWHPGY0ghyjwet2tVQucpdNxEgWNVGhNd0s5Hzx17Rrs78DfvD/PTjeAmh6UGyIWxCTDXUen6NA4/PlyzWRBc2Eou7TmSqQjWhtpDleuDlEmUaUYKHmbil2sTk1BLz2drVTzXRGW5B7drW+Jjz1UohqSvjy7pZ7pnjT4eI2tQm+x5m9vnjIsKCH7BJ6cAI2IYp0eocpbFF6/j7QjfZoO8QuHMO7HbLd36JCdekouSSyIwbyWpzBFf5toE7Ivwn6sSOl+zpe+nZRbNtAFn9eUuxpYZl2bBOL8oMkceF1Xn4DcC/rmynNPFrdeD3EeteUvcI9tozo8i8Aai7qba8FBkH99tTzIrZzqR02VXplimBIhkwh7D1NnHddGyYzDOaOnbRC8uzsBU/6+fBOPSz3y3jhgX7XY+Zfn8+qC5Ei3a7gN5DG/LODzldwSztuLDKlcdqM4i3ZMxjVUUOm6nuDgj+SepCqJYFitTLlUiq6JojKl90nRPHArfqIch6S27ehwx1oxLvyijZdhYMCxgdlgotrx1JvYyNcINf4Gh5uB2Lk+6E9Zdc/GOugCIJuDZCH/CO+oKCh3X4nauTdw3VhNREmmWTv3mEUpFqa+dQD6BkZEaohfbR+M1ChB1Okq8eJydvymwlRwO8gjC5T3Wp4I5I1HeSxCZhOIwoAnFLoQtKCrjkZf+ux7dyMCSNwp/XXW4EK4O6OzRE0HCgydOBmf+tNtqsVdU+Ci2O/Aa7wITOjnyTIQPKXQ8RGPDXTEvGW13X3JC5Idnqe0FRVcbJSxwTPwzdnMPCF+pwZRPJmAoG6IKUNjwMi44jgDfAh2JPtE+lGyjBEUxIpcC4Sm+x2JzRO6vt+UwVrwSW97+pBnDyci8D9Xyn4C1nUMjIT9tjkpMcxbLXDu6xXRPV2TkHxHJflwbHKjzwojyMJ4TZ3f7hgsVrl00mTaQN7ucdIVbyc79mEJ7YQJXirzCLsOo6wWNXhfF0I0/aaixmzW63W6hcMNeDGMdqMdRzAHGxdQ2m9HArQiTCGQrfhVOZ2BzxI/Kjs09s5WciTVzHYqfBem8GlgLRKphUIRhvMHEn1m7RaOnKyzDjoCtK9sb5o0Ey8Gaxa3p7UpuwV3+YI91ZJWrDrv9YnaquxBu62LcxyFGBTbHvVi/uTumtd2BxSOZET2vMd761PvoZm0UPzD+5auWbia6a4Jg23Aviq/wqx0ocxxK3Q8cEUFvtofHtbGdVTL5qiFk+OpCJrIvcTsTD7AWOE4KpmbnoeR1DOOG1n37pthPxjBeBE4Ja3UK2XUzgfkDV6MP6ZD6ui0QJCs1UGpS8On8qUdJ3ipgLj9u550o82wUH3cl3sDv8Y58g4n2oWk38AbRgpddRXs6Rt0tTd1supeaeJwP4Ha6WFZWRVX5i6DCKtjE6Kv6WlTYRJZ4XwtnD0PxCpAH8g6N+TPabc65zPUxhvkDoCZC67MHtOmusgahQt6no2R9wDz65LhgOaV/4Cm7I6WdcrtWsc88E+TuoKnX2R2cT7ZRFQj8dGYxLGqMQiLFdlI/UfiN/Cj3c6DXNXokWP0rEmqXYzU62CwJW0H+p4BjgYMouTbiKsNKVw1QFsFV+mxAEx3AMmRU6GP4PPBTnQXUIJk/pzcKDn7iasFT/ntMNRlY18XR41HyZqCoY3Qxof168JABsOanfoY1o1xTdsR9roamFDyfmrBKOyq2a/q93bMIp8A+BThU+OTZTjP0RMIDehvJq3taE31wCNGVsSk4A04Erqfqhd4tU7SsbDW15lldanfhZPA92cXZvoxMOn/qiY6KPCmJ+qJPCsmIEYlNJlkZ3aPRlXFfiA32dBfOTWh+9zdgXMHixc2a6IMPC5mBzS+Dg9WCx/lyn+jgIe1u0LnvLupKbI7pncz0K6JMEsf0wl1FdjUMM34TORWme02NSoiwfp8KI2H8fS2wnwYUB//ahdsZ3cIrtBeCOrQwaiuGeW5rcdOBTnRjUOgbHdmE3W7BDC+Q0AdQ6fyIjJxJoF7s5KhbO9H6S6JMAJNSfzMRy3L5IKOrctARgnHWFBB9hBE+aDG1awnT6AkF4ywhtQrl06iTzJSS8xBjUYCzyo3PmBzPIqv+r9EHfQeUEXgMWYO2U+PN4wjx9MnOVjzXhKdsDop7oxwxjYI5IyMLXf77RMqtF6MXFlvI5AjfLW3dljoeZDT0PNFHDEqMBzm+5H10JbYQq61jDKNo1inYHPMx5B3ACur/cri/OK5twOjn79EDU5kFZc3xSktDfbASa1Of77PbeSe2mfmgftFB4xleG/BKhzarnvRS4HgexU1hgjSRiT+z9kituEg4u+R7ICMj+KGJFbncnwKN3nxQYRjtBi2mdl6LEaaAE+lrW4VepRR2u4UdnIxhuQCRGZjmZFB7EO7Frx6Nl+ADRqMHxs/wJRTx7U0M2f8boONrE1O+G12Rmo/SvrINwGCy636Quok1wlJZJdvZ538pofNlZPY80fOyEwuqmf7EfPv2U3eIbykXUm3sQxmrEbkeWANyEdbs71JV9rtEST5giC6YJoqdKbugbdYEbCXPJXWOxYubEbk3whMbFLXNMteXCPMiCNOPU0d0dXWEL+9OaAUgQMb+nif6wbrEeGC1JMmfUgMJLVahtoCUIJmj8DiPxuO8Hk95YnsCDESiI6aJkMKNAPwjQX4cSw5y57N907/o8NpNOn8laDHvJLAoI3SmuyLhUk7xoGimrWPwT7kZ438m4XNas3qe6L68sOi5pEijl5qgQrbCliY85W/0xGtfI7q52492rjQlUIs9xR4DWXVHJXWGwD5n29uLkqXzZaeVrhoU4ZsSWvFR2vPj3GHF136U8ZM4dlrtGNzKzO55Ocw5mJjC81mSj7qLhG7ucUrSyiFeoguqnv7DdBDqeuHCP+wWz6MNjTQd6PqNgdvpQvj/YVrqmkDxyJ5yV0ocoM4Nu+bNXdS/7xp7alMQjAtLZZUYg3GZ/m6IuhO6dj+PnPrEyk3bHNcyxZ6TgOluftWPnHRAUj9xqQTrpB1CoPLMmJD7eCvmtepHmL9BtcuLNoAXAtsedzOmlhwJ8tewQf8L7vJ5cZ7J0u19K5h5HbZZEzo9JuEMN4svzAyOoV1p+KSyNOzS/5UAyacDT2BkFMZN9Lph+UuB/f2C6Ao/opp74cq2pEo8+0fYgJxWs8RC7Duyulx+Mr6Zg5LQaPexkOPsltJVrZPRZfn45TXgOyHfPoFnfHx19gITUMf6+rlDE1+UU2QfgVKPo+g8PuHv8D48tj3jDH94/KRzF6CwZAa2DRsotLe5dBn+RYQuSBJmYispivkeC0uKASewFs/Cd+PX6L86rlnBs/1DpRuNKHqnIJbwFAWzxybmcRi3hfw1j0rnR3G1r6jw0Zg/G+GFkG+n4x3lZPr0rOS15ZyReLPepm2NtIDcjcd5Q9y7tVoGj448Br7EE35My68BC35f569WxRpu5cQ2ufis4cpjTFRVY3PcjIgLqMQ9oS3ustS1hbatp4OclH9Q6Di102tP/JmVQsftiLwF5GGq33ZmiXQ6A/nh7g7BoHSExdKIqN6qfDca5X+TKfZj4yOR45fA9KBJuAJrzi8TuvqqJ71UOX+Mkp8Ch8z+y6kfUhFIbknYJy9CtaygrcxxDajL8JT/nkTeJ/v8E6Ow8NaEdjotdNhBDqUMd5FDYYaX/LZSZO+6DLh7QS20W3s/moJZ7eMUU2adgM3xJvAXUE/hcV7XYRJU3Er7LaNHIHyAbeYDTLGf3GruT7BnUmQfj81xF9m1WxH+RKDgyAKWlb3XuVHbBYaWfngG8DYwPF15vr/yiQ1mU/1f8TgfTY3BPvMcUO+HfVsLcjOe8S90qu2mT8+iLu8ulPotYKDUCrzq0mSSJUJM2fH4LX9FyaGNBA8Cc1GWR2JOT7XZjwfLnSCzg4rCj+J5lHlbcL10/Jgy6wQM85/A8VGOWIoYd1G1cEknk4ii0H4kos4GrgJ1SVC+G/E4c7uYtP4HwnIWhAepcnbtftgc62lfD3AfyDMIflBnojgX8KHU73CXzY3af5vjKuD5KMq3CagDDosQx9iIL2NSa2XjRIkeIPvKccCzoKamJdGr5n1kNuydh7vssRQTfS2KMkSmgZoW9Lc/BTUfxXuojG3kqHr2N+VjqO8D5wDXBrc7FmAe1pwbuyNhooNfZ1IaQviGgPmo3gHWItZtZFrq8bXk4DOHYsj3UWpywMKQKSFtFuDnIT5wbkjM9HfcgOJyYBoQy2ulJmBn67tnEYUiP9h2FJHLaW3C4zw2Arl/B2YRqLFAlL21ZTewPkAy+e9gKanw89wC8kAnrtsXwFVUObsuu11QciVKngLyYxzBNfgyLmH5/C6t7piCMnWlZ20Gpg0tXXUuyJUKTpHAtsAqHYiuDPZjmoNSd0HxIsYeDP/s4Aqj+5liz8FQ5wAXAtci3It4Azq1XZ41DSCvYKh74vbJY4W7rAIoDmhSuRjkIuAKEEeg/y1taTqWNokFvgbmo+R1vNbXu9IiXY+TmkygqOW6BNsLbQt5dkch2tqoJBY+AoltjE1L5GCu54SHsH12DMi1YXxaDfIkdTIv5qzAqrKXKLrag3hvBpmNqEjpzrUIFRjKxRi/E9f8mHIU0oKoyWtYx1wQL57yO/pMn6baj8ZvORkl3wXJAWM3Ym7HlA9Y5mpMeX8C5vNC4LROtNNfqXLeCP0omaq7EKjBfnwwuLexW7LbCmaPRcwjsJi5YOzHoLpdHbl45sQBQvSbEY6jyvkLLZGdoNg+GK/6V4fEl/bWyu9wl9+jByu9MDBy3ZHqoC+n0RkqXAewyn9waDebiEOp7qJo5mV6sDTR+yDP5WtgpH7csZK9+UfAmqgyY6oFwYKGGprofYnobCRQSlcjJrL/sxbDeiGBXUYiIQdl/Cvu3AANTfQexTLXXiAnocSLgYrKF3eiLOeDRFvHPwLDeIvJs0bpwdJE70vYSEuj1kDxwL1gM4blR0Te5x1gHFZ5lR/OGaQHSxO9r9jvK1AyXj/yeDX7wnXAhaAiF+4QmcTBlneZYv+OHixN9D4AtQxR0/QjTwAe5wdYjClE2yQCzsZiuCmy64lUE72379SsRDFVP/IEsXTBF1iNKcDiyJqdEzGN5dhKbmGCPVMPWB9TcwPqbm2Od0D9BE9ZtX70SaCwZAYifyG0VHF71u8E9XfEeAfD9yVi8aFkBHAqpoymqnyuHkSt0XtwWrP8F9Zdu/VjTxLusldoGnocSl0e1PBhJabVGOB2lPkeYmwF2YGwBuFRDOPYAadgtEbX6BeYeEku2YMmInIWcDioYSjJI7A0Zg+wGdQqav3LEy77rKGhoaGhoaGhoaGhoaGhoaGhoaGhoaGhoaGhoZEa/C8p5G2hTeU2+wAAACV0RVh0ZGF0ZTpjcmVhdGUAMjAyNC0wNy0yMVQxOTo0NDoyNyswMDowMER9fnoAAAAldEVYdGRhdGU6bW9kaWZ5ADIwMjQtMDctMjFUMTk6NDQ6MjcrMDA6MDA1IMbGAAAAAElFTkSuQmCC;" parent="1" vertex="1">
          <mxGeometry x="115.34" y="646.87" width="69.33" height="33" as="geometry" />
        </mxCell>
        <mxCell id="_Gt7bBRQ5WeV5vQwa5ph-16" value="SQLite logo is under Public Domain. Django logo is from&amp;nbsp;Django Software Foundation. React logo is from Meta Open Source. Python logo is from Python Foundation and released under GNU License.&amp;nbsp;" style="text;html=1;align=left;verticalAlign=top;whiteSpace=wrap;rounded=0;" parent="1" vertex="1">
          <mxGeometry y="737" width="980" height="43" as="geometry" />
        </mxCell>
        <mxCell id="_Gt7bBRQ5WeV5vQwa5ph-17" value="" style="shape=image;verticalLabelPosition=bottom;labelBackgroundColor=default;verticalAlign=top;aspect=fixed;imageAspect=0;image=data:image/png,iVBORw0KGgoAAAANSUhEUgAABLAAAAIiCAIAAABXPabqAAAABGdBTUEAANbY1E9YMgAAABl0RVh0U29mdHdhcmUAQWRvYmUgSW1hZ2VSZWFkeXHJZTwAADuwSURBVHja7N1NTJbXoi9wdm/vYJ8E7OzmIJF9RigDnGBkcF4STWprusGBpMb4dqAmtWaTyEQmhBFhghNNaGybVAfFNG3sQDnNbm2iCZwBRiYyQBmd0CB3KpDs5J7RXfBUjlXLRng/nrWe3y/E0J1z9H2fj7XWf33+6c8df2kAAACgeN5xCQAAAARCAAAABEIAAAAEQgAAAARCAAAABEIAAAAEQgAAAARCAAAABEIAAAAEQgAAAARCAAAABEIAAAAEQgAAAARCAAAABEIAAAAEQgAAAARCAAAABEIAAAAEQgAAAARCAAAABEIAAAAEQgAAAARCAAAABEIAAACBEAAAAIEQAAAAgRAAAACBEAAAAIEQAAAAgRAAAACBEAAAAIEQAAAAgRAAAACBEAAAAIEQAAAAgRAAAACBEAAAAIEQAAAAgRAAAACBEAAAAIEQAAAAgRAAAACBEAAAAIEQAAAAgRAAAACBEAAAAIEQAABAIAQAAEAgBAAAQCAEAABAIAQAAEAgBAAAQCAEAABAIAQAAEAgBAAAQCAEAABAIAQAAEAgBAAAQCAEAABAIAQAAEAgBAAAQCAEAABAIAQAAEAgBAAAQCAEAABAIAQAAEAgBAAAQCAEAABAIAQAAEAgBAAAQCAEAAAQCAEAABAIAQAAEAgBAAAQCAEAABAIAQAAEAgBAAAQCAEAABAIAQAAEAgBAAAQCAEAABAIAQAAEAgBAAAQCAEAABAIAQAAEAgBAAAQCAEAABAIAQAAEAgBAAAQCAEAABAIAQAAEAgBAAB4g3ddAnbs56+/jejTfnD+dLX/iT2NTQfb2mO5IM/XVucW5j3GAAACIexEqbPLRXhZSIM/xROSp2dnahCSAQDIM1NGAQAABEIAAAAEQgAAAARCAAAABEIAAAAEQgAAAARCAAAABEIAAAAEQgAAAARCAAAABEIAAAAEQgAAAARCAAAABEIAAAAEQgAAAARCAAAABEIAAAAEQgAAAARCAAAABEIAAAAEQgAAAARCAAAABEIAAAAEQgAAAIEQAAAAgRAAAACBEAAAAIEQAAAAgRAAAACBEAAAAIEQAAAAgRAAAACBEAAAAIEQAAAAgRAAAACBEAAAAIEQAAAAgRAAAACBEAAAAIEQAAAAgRAAAACBEAAAAIEQAAAAgRAAAACBEAAAAIEQAAAAgRAAAEAgdAkAAAAEQgAAAARCAAAABEIAAAAEQgAAAARCAAAABEIAAAAEQgAAAARCAAAABEIAAAAEQgAAAPLiXZcAKuXxwvyH50/H8mmfr626ZQAABfenP3f8xVVgZ/7x+L8i+rT/cvDf3DIAAHiZKaMAAAACIQAAAAIhAAAAAiEAAAACIQAAAAIhAAAAAiEAAAACIQAAAAIhAAAAAiEAAAACIQAAAAIhAAAAAiEAAAACIQAAAAIhAAAAAiEAAAACIQAAAAIhAAAAAiEAAAACIQAAAAIhAAAAAiEAAACvetclAACA5HW0tb/X2LT9//vF5aXw47oJhET5nu9pbOrY3/5W/79zT+dX1la9/PBHdWf4fU9T09v+DSurq3ML89nvjxd+e8tIQHdn18v/WTrUtZu/bfHZ0q8vCl7PCXlOCB7RnGttbgk/WYXV2rw3/L5eQHV27fKvDXc8q8s27v5aVmR5EpLxpz93/MVViLEhsi+88Htbsld9Pf61tVf2n8je/I1w+Gz60cwbU+I/Hv9XRBftXw7+myeHP2oMVbzu3Nr07Ez4c2r24frvf/B+Ud/m1GbG29PYePBFAbv+nDQ21eyTzG00trJyOOtZ8Kiwza6Kl/uFuzsPv1ziVekZnnspGzxfb0I8eaWz4/na//SOUdnyKhRWHW0HshxY+88QarRQLs09fRLu79RG7YZASFXe9vCGh5I9lOn7XrRUai+LiKEJO/d0/YUP/ykQEmnFmTXx6/g2bV2nhvdLs6naQpv44EbLOBStm5Gv2h0BlX1Ust46PfTF9HJPVkgC4fe8FWj/tDnR8GKsaXMahSyx/cwfbn3p0OHwZw5verib683FRw+zksr9EgjZ1dsemq0hAda4Q/qtXvi6dEQJhLxVm2mjM+XAwY1f8vkqbdHon5p9OHn/nnBYkY6ArOkcCtVqTKmor/V+hIX56UcPdSUk3Hmx+QBHFPx2XPRtZsXpRzOC4mZ1ttEyPNxz5FhcpdN6Xfbo4eSDe7quBEK2+7b3HD0WivtYeqnjUoNAGCrp8om+aIrpZ0sTd2+n13LKqszQfkrmPQqVaKhKVajbL0jX49/+9mwCcNGK0/CEhNbz9MbTom8+3i6MPEwLytuDvbmMJdvyoCApMcS/LAQm8BiEOzhx5wdFk0DIH77tPUffD3/GNXwhEL4uRJGfvv42lgsyPTvzwfnTaTSeQqO/+9B6T0ryLaeQ4Sfv/xIqVG/0ZhfAevg/1FXM+Le10OoKj0pogRk2jOUxzvO0oHw+4b8uL03NPsyWKaYUEUNzonziZKotQ8lQIEQOFAgFwoq9QaVDh7OlFAVsBk3c/WHizu0C1qYGT3acDD+fuKn5lasQmE1nKGYhVoOImK1ki658K5/oK/eeLEjJFsqlyfu/pDdZSSDknwvlfvnEyU96++RAgVAg3EFluTl/xiPdsDFgOHr9WtqtfIMnFRTax+MTN809rqNQTfz16PtCYC2f+fWfjQ0w87wDU6jUsiHBAt6jcFPGb90sZhenQFg4oRET3vP+8ll1gEAoEL6tbDF9qCy9PgWJhVlzuWP/gSJMA9b8KkgDoGcjB+rRqK9sB6a5hSf52aG33Ns3dPGSgq6hGF2cAmFxZRMA+s+cVQ0IhALhDt6d4kye2aXxWzdCVRrpyE82fS6bCGodoOZXMrV/NuyjJ0sl+MZCr798TuPwjfcllEu2lhUIk6oMhi5eKvf2uRQCobpQK6oGQhr8dPhyLFvObO4GlJ0O4vaJhWkI7ftPevuUYPn34fnTdUkdouA2myihOlMuCYSiIAJh4QJheGWynZY8rrsRAmGoR/M5VFioLWHj6koYv3VzfOKGtYVKsIKYW5jv+vijujwkVwaHRcFt0l0lEIqCCIRFCYR2WqpG+z7c3JzssCcExiK0ui4MXzZTawdP+N/KZ5Vgcfl0+HKNN7cMLYSxwWHjxjuozsZv3Ry9ftWlEAjjkM0BGPrskkshEAqE21Tu7fvkxElrxpJp8byi/8y50FAWAuOS5xHmvFGCRWpxeenA8VItuwxCFDR0vMtbpruqqt51CSpVK5gDANuvHe20VANfjVzpPnQ4NO7r9QF6jr4vDUYnNFtnvm/X9tpCtkpQZ0e8Rq9fq9m/1X/m3NDFSyq73Tcbfvr626j3ThMIE9fR1h6ioA5C2I7s9Ahzqmsmu9R1zITE2/Ya/eKaaVqvR0HbgcRucXmpNlMnwnv01cgV7cPKpuueI8d0VwmEuTN0ccAcUdhmMjG3SiYkpgrus0sdbQdMH91s3NsgIA2fT9ysTcFr4liV3sRsqHBwbMTVEAjrr6Ot/auRKxYHwz/V3dn15cgVc6vqmwmfr62qPnlbPUeO/fx1ywfnTxc5E4Y2fYiC/WfOeR4SEJ7kb6o8PBgemNA+tGKwqsL7GJoWpwYu2IC0Ut5xCXb2IM58/6M0CNtROmRvyVyUWgY32IFQ0z39+3Qx67uNKDgQvr40mIzxWzer2rsR3pSfv/5WGqxN0RSa4i61QFi36iG86mODwy4FEBeTGthNxVe0h6fc2xei4NBntgNJx/oBBhM3qvrMFPBNqW/R9N3VL/XXCIS1lnWUWgQFRCrUnVq3yIRb6+7smvn+x69GrnhZElPV4cGhiwOemboYGxwOV951EAhrpNzbF2oIrzoQr2xjDNcBmfCPvmNoWf5kkCdRE3eqtXowPDa2GKxvEz2UTproAmHVhVdd9wOQgGwtvuvAjvNSqq2uniPHnv592lLbZNPg3dvV2IAkvA4z3//osam7UmeXTCgQVrf+C0+YVx1IhlXQ7Fi2Z0Z6Ff13V780oTpt1TiMvpjLa3NeOnmLBcJqpUGLBoHEak2dXOzm+Ulpykw2MGivwrRVY3hQGpQJBcICPVVedSA9VhKyG+XevgT6FLIZsAYGi6Diw4PSoEwoEEqDAHFrbW4xSMhuXBkcjrqKzGp5b0ERTD64V9nhQWlQJhQIPUkAKegvn3UR2E2bON6Jo86LK5TPJ25Kg1ryCISeIYA3lHXaNOzyERq6OBDdx85OLVPLF8T07MzU7Iw0WMwC6ood1ATCnWltbpEGgYIonzjpIrAb/WfOhnozlk+bteb7z5xz44qjsqsHY58pXbg6rrfPrtoC4U6qCovLgeKwsyK7rzdjaW9lHb62DS+Uyg4PhkfdotPo9J85564JhG9Xq5kGABRKaCIr9NilniPHunOfssJzPvP9j572ovnmzg+V+qtCqDC2HCnjugKhxwVgK90GTNi1nJ9iYmuAYlpcXpq4e7tSj5DVaPEyAVAg3C7TAIBi6jn6vovALpU6u3LbsxAq95nvf9QWLKBKrR4UJxLQ2twS767IAmHtagvTAIBiMjOCisjnIGGo37UCi6mCw4PhEYpo5yT+SM+RY1r7AuFWjSHTAIDC2tPYJBOye6XOrrw1mqXBIqvU8GCIEDbfSsbQxUuyvUD45paQw4iAghMIqYi/lc/m58OERrw0WFgra6uTD+7t/u8J4SHn62PZQbPfdRAIX2UjGYDWvXpMqYBPcrMUP9Tsmn1FNn7rZsiEu/97jBmkp9TZZeKoQPg7PUeO2UgGoLvzsIvA7oWmcx4m19lTtOBCFByfuLH7vyfEBqdWJsnEUYHwd/WW7kOAYJ+qkQqp+6a12ZHC0mCRVWR40GTRtCPAmN1DBMKMaQAAm00fF4HKBMK6jhBKg1RqeFArMfmSyhm8AuH6c2DPKIBNVlNTqUhWx2aWfQGYfHBv98ODoYlosmjyDBIWPRCaLArwivf0hVMhpUP1aUn3nzlnXwAqctqEqFAEHW3tSoxCB8Khi5dMAwB4mWWEVEpd9ijq7uzSiGfi7u3F5aVdtxIHzKKXCATC9PsD7DYL8AonT1AptZ9rF5p031390pVn98OD4VnqP3PWlSxKxdfc0l8WCn7zbqG+7RU9iMDvTc/OhD8fL8yvrK2trK7OLcxn//vUxv/+T2UrpkqHulqb93a0tVvCBOGl2ObrUxH2/6ChQsODIR54lgol5P/xiRsVObVSIIyGVcJQcKG58Ovy0tTsw8Vn679shMDdVgNZw3ez+dva3BKKmr+Vz8Y16aij7YDHg0opHapdIOw/c84ucawHwjs/7PJvKM7wYFYVZt2gb7oOjQfb2vc1txRh6my46Z/09o3fuuENKlAgLPICg+nZmedrq3MLT9Z/fzTzT1+Pjv3tWRvxvcYmKZp4zS3Mr/88fRL+rE0LNVS0oWoJP6GRGsqcWCpUm8rs4NFaWVt9fWB5y9TdvqepqQjlas36FxwWt2ll7beHMBRBi8vPtv4/7u48nNgTGBo5uy/h015RFh6PyQe/hBbg9ntCw9UIyfCvR9/v7uxKePLL38pnBcICBcJyb1+hVglvFI4P556ut4Z3MIli8sG9V9ox6z/7D6RdKJDSwx+qvVpOWnvjSxQ+wJXBYfuYJSCUohudC0/Cc7XR4N7JzLRXHshQloYStXTocHoDXDWrbQs7WXTzgQy1fPb72/3/XxxILBBWZPXgJymW1eHx+HziZqiPdlBqhdw49SJph5c6BKdwidJ748JXC9X0xN3bAmEhFKETMby64Z2fvP9LeHsrOx86G2ZpuPtbobl+oOdGI8ZUe3IVAifv33vrhlGVX8lPhy83bHRIuUfRyUaVpx893Fm32jbL1fFbN7KWaHTTjLdQm37D/jPnCjWBZfOBrHgVn1sbywKfZTMYGzZWeod3JDxdr7wpFRkeTG/1YLgsISdXqmM0lIGDYyPhJ1RnoUWd2BBL+EYCYSECYfLDgyEHTtz54ZVhveq1ccNrs/HmXP7H4//SaqReQv0UnvnQPKrNk79jl8dGQrM150WQmeGvPFS1bHOHfyibZpxSSyu02qvaOxPa7gWZLJr184bGfTV6JfIeCO/88MY8k01l3NzKa3zi5u4fp5RWD4ZXLyS3Ks2RyVqAQxcHwhVLJkKHUrfGW2EJhHWL/kl+r2xIcPT6tQLWExRWqOqyVkKuBgO3fk/DS/rVyBX3LudODVyob+dCaGaFDxAqrASOR6r2qtQrg8NpT1FZHz3emOln/8M3FqpTs5VcFJDSjKfRL66NXr9a9X/l+tWJO7dDvZZMZ2L5xMmCB8L0zyFMdXgwNB32Hy99OnxZGqQgOXBwbOTA8VLXxx+N37oRSxrcfFu9p1G0MvPwGcJzHgr22GNA6VAVm4ndnV2pTsPO5uBkBV34RRqsjTSGDUK1GB6bGqTBTKjUPjh/OuTPZMJCwZdBpT9C+MmJk4l9o+nZGTmQgtjNgvhcCV8hgWEfataDENp2P3/9rXXaCTffX4+C47duOhKt9rpzP6V/m1VMXTqSQv5cfLaUxoh9wc+feCf59zyltTHhVT81cOGD86elQdKWrarq+vijA8dL4ZcEHvj/uP+L28r2hUCY7UgUbeV7uEp/c5JHCo9+cW3/8VJoW0uDtVeOf9hg4u7t0Dis18MT/vXQLk3g0S0nN4AkEKZ5d6dnZ0KFkfP9M2D3z3loB//rvx8cHBuJa17o1h7n/rsYjMqb9SXiqUzHqqDEjhQOd/mAKFjXci/26cchj9W98yhU1glkwuyINYHQe55r47dupNEBA2+UDQmGhlF4zpPc/Tn/L+9BR4zmT8gJkXaL7KvOHLyUNgVYXF768PzpUwMXTPmpo0+kwcplwvAwx/48FHmQ8B3vef6Ft31wbETBTZJCYyg84fuPl8JDnnbDSLOPHYi08K9SbEtm9WA2Jb5euxrOPZ33ZiUQALIJNfn5PFM5+zw70HPkmECYoL+VUzhVJrxdjsskSaEy+/D86QPHSwXZTO9XgZAdtbFUAb+13ZMYHgxlXSj3Qs6vY6EXS3lb7Xns2TH3kT5Ii8tLH+dvRO7FOdWxivqREAjfLNzRBGoOaZAkZfuqf3D+dMGP/YFtvS93foi0aVXZvzCB4cG5hfn9x0vKve025PZXt2ke9XDQhbweTnM58sk+hZ01mmwgTOCOSoOkGgWdmwLbF/JDjCsJKxsIEzgbIJnNGDUU6270i2u57VYIT/iFuHdI7irm65BsIIx9HvDg2Ig0iCgINEQ7SFhBsa8ByTb/kAbzI97JgaEOrdnp8zsTwmq8B/qlMcFQIEzkdoaao8iHY5KY6UczoiDsRsEPHAoVetSdvPnZCpJN8T5RUYy/jV6/Fm/3R6mQg4RpBsKo54vOLcxftqcoCZmanREFYTfCGxTdS1TBHUGiHh6UBnPa6D90OMaPPT07E8Ua1I2jpG5G+mx0x/lsCIRvEHVXolklALzeEIzrA1dwR5B4D5GaW5iXBjUUKyiiAYPxiRuRtmaLefhEgoGwtbkl3vmio19ci/QYYgCqZ+rRw8I23Kt9/ECVhNbwB+dPe3S1+Ctl4u7tiJqI8Q4ShgKngIdPvOM9z4/8LxQGoC4Ke45lvGtATg1cMN8nnyKdLxrd5lLxDhIKhN7zerpgYgkAb1LMw+v2NDZF2smb54MBYtHdebhqf3N8u4bMLcxH90SFNPhNnBvmF3AZoRHCvIhloTAA9WpdFe0rR1qhh7a7+T65FemEwPGJKKdffh7nxzZCGL14D5QcvX5NMQ3AFjGjcIHw6PsxfuxBW4Xn2MEI2/ora6uRnj2zuLwUY8EVAmGkS5cFwt+UDkUZCA0PAsDLIp0vOnH3ds4r9IK3N2JsKIY0GO8EgeiWPsbbcSAQvpzpD8T4sSOdCQBso1Bq7+7sCj9F626kCu34Ym00GumUH/N9cv9cxbc8bPL+L/Fe8EjHNos2a/Rd9UfdLS4vRfq2AA0vjrpZX5eycfBaR9uB9xqbirlvNVRQjPNFJ+7eXizqfrAa+lUS73zRzVbu3MJ8dJe9Y/+BQr0XSQXCrE0W3cf+3PAgxCAULwfb2veF+Lc3JMC9ocDZF/Opp5BzpQh7eA0PaihWXAJTfCcf/BJdICxa5Z5UIIy0P97wIORQNsmzY397NuJXinbDKoi04R5dgyzU5oYHtfIr/1zFPF/0xVe4N/TZpbg+c9Eq/bQC4f74AuHcwrz6A/LQSuhoa8/iX/jFuB/UV5TbycS5eUZ+G3VV6OWPcUeZ6fhHCENbd2VtNbqx2fCBi3PYT1KBMMaFwuoPqFdTYyMBHjjY1m70D/KmFNvB0LYDqEZzvOJ/Z2vz3uieqzSGDUImjK6qDc2D4mzJm1Qg3BfjTAD1B9RKd2dX6VBXd+fhAh4xBHGJbg2I2jwK0c3+mE4lkEzNPowuEO4r0lyhd73ndZRMxw/kU0h9GyHwcPjTnp8QUW0eXYVuvk8Uosskc0+fpHHlpx/NNMS2jLB1r0AYoRgPnNChCNUQsl/P0WPdnYfNBYVIX+G4PnC2sb4bl3MxTgxJ5rl6HOEXiW6CsUAY7XueSscP5KEE6O7s6jn6fs+RY6aDQtyBMLYt4qYLs9AoagcjnCfyOJVAuLK2Gt2+Mq2mjKo/VCEQSw4MCTDLga4GpCG6LeISOBigIPVFXB94cXkppV0uY9xXRiCM8T1vjOsDh5fcAkLYsZAAyydOyoGQnuimjE7p3o3iuYpt5ODXtFqJj2MLhIWKr+kEwuhmAlhvADtrKYYc+Elvn3mhkKTwasf1dic2jJP0oxXZyMHjtBqKK2trHkKBkFdNzT50EWD7yr19/eWzNguFtOnexaOVZIKaexrfm1Kcs+nTCYTRDeyurOpQhG0Vx/3lc/1nzhoShCLoiC8Q2h8OCWo7+Ta+dm9xzqY3QljHKkSfImyltbll6OIlu4ZCoexpiux9Xz9gjRhEd854YmNTj7V7BcKq1x8RthftKANbR8Fyb59LAUUT3RajMdbmcwvzBZx+H90pAs/TCoSW2gqEVRfj2TICIbzOBFFAba5pToOpZNTQOy4BkBPl3r6nf58e+uySNAiFFdeOAPp2q8ouYiJufe0rzNn01hB6JSAXtf6VwWFH1gJx+VUgrKb3Ktc5KFvmQXRD0617BUK8ElATQxcHhj675DoAWu3kP1vWhsFnBEJVCBSl8ffVyBXvLxBpq93GiVSJwWdqKZE1hNHtUg30nzk38/2P0iAQr8SODgeKyZRRoNb2NDZdGRx2qgTwCj1EAAIhkLjW5pbvrn6p2Qe8znwfAIEQSFnIgT9//a1TJQAAcsI5hIA0CAAgEAJIgwAAAiGANAjUWHfnYRcBQCAEpEEAgHpaWV0VCAF2K+RAaRAA3sq+5hYXoe7mFuYFQqrbSnYRKAJpEADeVqtAiED41gn+aWQJ3iFsFMFXI1c86kDC9jQ2ugiw7fdFB7FAWE0ra6vuJeRKz5Fj5d4+1wFI2EF9XrBt+ogFQrwVFEhrc8tXI1dcB4Aceq4bXUORbXhsDSHV9p5xc9I1NjhsZgiQvEh3/phbeFK0O7W4vKShWF8xtgqKMwNRIKwbHT+kqufIsfDjOgDJs/OHQChBbZP51QJh1U3NzkT3mfft3ev5I0ljg8MuArCj2vyhTAiZjv1JJajo8m1xzpxoMEJYR3pKSNLQxQHNoz+ysrZaqAoGikCJR9USVFJ72EaXbwu1Y+W73re6vRgCIQnWXk39Z866DtMbcxaysY65p/OhUllcXsomLHV3dv309bcuESSjdKgrxmlKsbSUKnhtQ8lc6uyK6OsnNnIQXb6NcZqxQBjfex6azq3NLYV62khef/lcofaSyUb8NsLesyz4aRdC0bQ2WwBStZZSU6E3J9uX1uBzdPk21OwCIbUQEuzi3duuA8ko955M+wtOz86E+Df39EnIgY8X5p2ACpW1shrfO2W+Tzzt+6VSVB+4tbllT2NTMhVNdG9KjMWRQLh+VEhcI4RB96HDEwIh6aTBvvTW0oQGRAiBIQFOhT8t/4Mqi/EtC83clFrtSQfC+AZ8DlZ00mzdw63iSCCsfo5fW4vuM0eXYGELn5xIZHgwC4FTjx5m44HuLLC17s6uyQf3XIe8NxTjHH9OIxDGOJBuDWGU5p7Gl+Nbm1vCG2LYgQSEhzn2Do5Q9Icm3cSdH7ySUC/P4xxnKx06LBBG0FCMcfx5/4E0Ln6MR2gUKhCmc+xEpLM1yidONkD84j2JPhQd47dudH380YHjpcGxEWkQNNmLUwAWSozt+2SmknV3Ho7rA08XbIu4dAJhpEPqahHSEGPXRmgcfDp8+V///aAcCOxGa3NLXCuopx/F0WSq7EEFMQbC6B6tZJLt84KtCk7qYPoYBwmzWaNqU2JvDMX1GGdR8MDxkl2dIHdZRfcuL1T8oIIY+/4SGCTsjvArzC08EQhjFWkff3/ZQd7ELa7qavSLa10ffyQKAhX0N1V5DGIcJOw+dDj2y/7Xo+9H95ljGUUXCN9gavZhjB+758ixQp3lTXp6IinrQ1MgRMHR61dtEA+q8soy3ycKMQ77JDD4HOMI4eOCLSRJKhAuPotyO6CQBvvL5xTTKOur3A6YD2nQWkFQlVeJ+T4RVAQR7kgfWolRZ8IY+0oWl5dWrCGM+D2PtqnXf+asQULiLevz//SGwuGD86cNDEL+/RrtVu/l3j5VuYZiNfREOOXyfz58hGm2gH3HAmEuGCQkXvnv+VtcXpIGIRZRz9RSlee/OoixLoh6hDDGTcinHz0s2qvxTmLfJ95jQwwSEmsgzP1ps6cGLkiDEIvwtsZ7HrSqPP9iHDwID1W5ty/KFkJbe4xra40QRi/SxejZ235lcFhJTXRyftrs+K0b1g1CXOKdNaoq11Cskk8iHGdriHZh7VTBTqVPMBBGvUtsubevO/7TZiiaPHeHr6ytjl6/5h6BJnstq3LbjeZZjPvKNGwc7xTdcxXpwOZ08dJggoEw9l1ivxy5YrYJcclzFTX54J7JohBfgyzyE8AMElbKvuaWiv+d8Q7+RDfaFumS2sn7vwiE0QuNv6iTfWtzi4qEiOS8/6KYxTrELva+3VJn19DFAfexIo2iajQUI11HUO7tq8YFqV7zoP+M+aICYT1vZNxbA4UXvv+MbcqIw8F8z2CZfHDPPYLoxNtk3zT02SUTR7X4K24snjGD/vK5GKe8JVD4CIQvmoD3o28Chhc+6i2GIQ+KuQwA0pBAm+y7q19aA5LT2iHaQwVC4zCKzSZam1siHR4sbD9ygoEw1CIJrBr6auSKzkXyb1+Op6/Eu3M9MBX/OWChTfzz19/KhBr9lRXFIGH4kJE++YVdafKOVz2fwosUKhKZkLy3ePbmORA+c4NAPV5HoRL/auSKu+kBq+xDlfMVqj1HjsU7zc0IYVrveRL5PsuEDqIAoGiSWckTWsZf2T9cQ7Gi8rxCNTzq8XaCFHnfgWRHCNPYaz68Vz99/W2Mp7gAwG4ks9dfqMTNHd2xKu2rGXvTP7e9DN/HvHS2yDuTv5PqF0sp5YfXXv8iAIUyceeHZL5LR1v7zPc/WgaSn0AY+xB0PmcjD10cKEU7ry08EhN3bwuEqRmfuJnS1yn39oW6xPRRAAoitNdT2hoq22PGsVIaipWSzUbOVUt16LNL8V7Pgp9TlWwgTKwiyeqSn77+Nt6Nm6DGOtoOuAgQtcSaaKH6DpV4iIURHS/u6cqzkMFykgnz80l2LKUpCQLh73ye1iBhpv/Muad/n9bFCP+UJhfELskmWqmz68nfp4cuDujera+VtVWZUBrMLC4vTRX77OKUA+E3iU4FzroYn2zEQtUJ/JGOtnYvCEQtvck+m4Y+u/S0TrEwlI1/Pfq+pyuZHof65rEE0mBDomNIAuFv0l4e2trcEmJhqE4cYZ+rBOIi5Eq8RyEBvzXZ7yY7jytEwRAL/+9/Pg71eLULq/BvhX8i602e+f5H84wyyWxKn+00UeN5MdkJE2mctPlNgbeTST8QNiS3tcwb38asFAhFfCjoBZI6344m41H58smJky4CxB0I76TfUAv1+HdXv9xMhpUaMwzxIAuBoZEQ/vLwT4QcaC79qw3FW4k0FLOdbGsW9bs7u35O5Vy0ibu30+gX2I130/56cwvz07MzpQJszhmK+FAKhJ/wTE/Nzkw/ehi+e5XmQ4dC573GptIhW57SsLKa6zI0vPuh0ir4wgCI2uLyUkHq8ayHN2thhxp8Y7rss+lHM8+3d0BCaAaEn33hz70t3Z2H9238p+dnOz0OUe+N+cojFPJ/z9H3L4+NVO9QjfWR7YuXUhpkHr1+zYvwbvLfMNzmn74uUHTJpoVsTj4JVemv6ytlH4bfQ72S/Y+PF+b/qC8k/L8ffGmYMUt9exobs/+x5NwLfi//5ziF2rHr44/cKYjXN3d+KFrt09HW/tuUn5eySlahv15rmxy0yx6Hibu30xjp+q3l1tk18/2P4UuNT9ysbB0dHrb+8rn+M2dTWp8/PTuT6kJlgfB31ofLitG5+EZZl+FvXz+VPjB4q3bVVyNXPh2+7FJApELTdujiJeNdrQb9qvSA3fkhpUCYyUabQwP4mzs/7H6pZHdnV/nEyfSuUoPhweIEwobiDRJCzTyPYdp9VofJhBCvzydujg0Ouw5UQ8IjB+FLbXyvKyETTj96GL7p9scMs+GE7kOHw5+p9kSE+25RSYECYcEHCaF68j9l9OVMeHlsxMJxiNE3G4OEDpKhSpIfOXh5MdHcxrqhbDFRZvHZUuvelhc5cG+IfwU5t8nwYLECYYNBQii8kAlLnV2DYyMJnEQMRRPar+O3bg5Z+EB1FGrkoMOuEBsMD77sneK86hOFP2OEatvT2FjMIjWWj9ra3PLd1S9rv1N2d2dXz5FjQxcHwr9u2hvszPjEDSP8VI/BIne8yN4t1I2v4PE+8LqDhdzq7XlsTbRsTcWVweGp2ZnJ+79k27tXKnCGn/VN//a3Z7Nu7PwOlWKQkKqyvKhQJh/cMzxY0EC4uLykLoGKm1t4srkyISKvHNAS2gEbh309Wf9GT+e3GIh4+QTOjrYD7230MWlDQA2MT9xIbMt7csXyouIYHBtxEQoaCDde9as9R953Yg9U0Pr5lvH3s2SJLsZkC8VhkJCqypYXJXm4Ar+LA19cc/bgK94p2he29TxU1uNINhoFUmjJXb+qJUc1H7BrlqqmbX3C4MQN16HogXBuYX70C6tIoWJC3al9BtTMBR27VDUt3LrpOiRs0AFUAmFm9PrVOWMaVMG+om4fMm1lNlAr69tBOTymMGo/CcUodMJC0aH0EAj/x6mBC7oHqLjC7ic59eihuw/UjD7+4qjLjTYKneqzZOGYQPg7i8tLngkKroLdrkYIgRpX4s4Qo3qmZmfGb1lmlprQ8teRJBC+avLBPW87RbaytlbBxplp2EAthRpcVxTVM3rdRpRJmbh722RRgfDNBsdGVCdQmaL2zg8uAlBL+vupnvBonRq44DqkYW5h/rKDBwXCLXw8cMHIBhXRXeyjyXW8ATVm9QfVThGOL08j2+s8Egg9JVCjlpm+FaDGrP6gqsLTpbszdpfHRrRPBMJ/LjwlH5w/LRPCbivOCWc3AbU2qLVHNX06fNliwqgj/cTd266DQCgTUiN7GpsKfgVCmeslAmpPDU71ZIsJPWAxmp6dMelXIJQJqamO/e0uwvgtg4RAHZrsanCq2kS0WjXGu/axbYEEQpkQtjb9qPJb7I5P3PAGAZrsJGbywT0PWESM6wqEMiH1saex0UUI745BQkCTnfRM3L1tNVosTZHQmLfyUyCUCamDg22mjK4zSAjUsckuE1I94emSCaNIgzaaEggrkwn3Hy95mGBnZbHjXwGZEJkQaVAgTOGRcvgM27evucVF2GyQTc/OuA6ATIhMiDQoEMb9YJ0auDD6xTWXgu1ojS0QPq5moRnqSxNHAZkQmRBpUCCM3uj1qx9aUkiipWf1/vLF5SWtMaDumVD1HbU8TzaRCaVBgbBYpmZn9h8vmQLHFro7u1yEV0w+uKeyBOqbCe0SR1UzoXlkdWfjD4GwdrK+h8GxEfUKvFVlqYwG6ttY7Pr4IwURVTJ6/arpMHU0+eCeTh+BsNbGb90I9YqhQl5XOhTZCGHNzucxiwOoe3EXCiITFqiS8GiFxqFMUpdmudPnBcJ61iuWJRC7X2sVCM3sB+ouFESh4lZ3UyUGomv/RocoOOiMK4Gwvibu3t5/vDR+64ZLQaa787CLIBMCOa+7lUVUyeLyUsiEWoa1id9OhhMIc9TGHRwbOWCzGTbsaWyK6wM/r203uUwI5KQpGVrtNgKhSkLL0CTGqspWb2lOCIT5ks0g/fD8abGw4Dra2mNrFT2p8b+YZULLeIC6G71+VZsyClOzD6P7zJMP7tmavkpN7g839nd0KQTC3BZYM2JhkUV3JH29ZMt49M0DdZcNFdo8nCpVdramr6xsYHBKM1sgFAsRCCtZXa3WrZYavX41vCY12+YUYItWph0BqOrTZanbLs0tzH8oXQuEkcbCA8dLE3dve3YLIrozJ7IStr6vicX3QB5s7ghgQjvVeLpODVzQB7qbd9PAoEAYsfDmfzp8ef/xUniUlQLJ62g74CLsrKD/0E4zQG5qbbEwdzXFagod6yHPHNhoEBon2L7RL64ZvRcI02nyhkc5lAJdH39kwDBhMU4ZzUk/RTZUGNph+k2A/MTCUHcnXGVPz87E0s5Oqccwm0Eaco7W4NZCgzm8g6PXr7pQAmFqQokW6ph//feDpwYuSIY1q9dDnRdK3nDNQ+T4l4P/Vr1/K7otRvMTCF8u/cVCICfF4+DYyP6NQimxKQyhWvzw/OkPzp/+j/u/uNG1F5p/IeeIhRoDOfSuS1BLkw/ubSwvvtxz5Fjp0OHwpw0qK1jPPV6Y//XZs1B/h19qVtR2d8a3gDCf9VCoCcJPubfvkxMnSxFeVSCxtntWKHW0tZdPnPykty+682Zf/i7f3L39+cRN7ez8xMLxiRv95XPl3pPagZ5PgbDoyXBwbCTUNCFRZOHQZXmr+BcKjsXlZ9OPsl/qVojEODyY5z7vzRZYf/lseCnibYFF8RI9X1udW3iy+Gzp1+WlxxZzwh8UmINj4WcklEg9R9+Pq1wKLY2JOz+8vtFlLDXX83SH0bJYGH6K3A0aGm+j16+F59N4qUCoppkPP9ls/o1k2NXRdiD8oh38cnkRWqtTsw9XVldrPPq3HSHMu0fVeC8+Hb6cjaVH1wLLYfBreHG+8/Sj7Hc7tsFOwlU2xyekqZ6jx3qOvJ/PWBWqyPCOT97/ZYt29p6mOErUIuw6lnWDtja3/K18NuqB6Ld6RLOuCpWRQMgbhBdj890I1cz6z/4DB9vai9NvNLcR9jZbrhvDF3mvDGKcMppd4bhaYNks63C1YxySrdm7kw2bZ10ngh9U73ULP6PXr4a2+3qhtL+9u/Nw3Wvq6fUmxMNQdXrxY5StXI10IPrt6vQtuyoQCHlDfdNw97f/bG1uCT+lQ12tzXvXf4k5ImYjfg2/H7LI27jfNoVwYuSqtsmwIXv+O/YfKFo4zCJfNslz/T3amOeZ806Tb9Y7gKPpfcj/8pVQWo7G88RmZXvasoGO8DP6okYIP617W0I+3LdRa1f1n86mzMw9ffJbg4GkKrt0JshsZ8iauvvTnzv+4ipEKptZ2rG/feP39YmL1a6B3irvvdJyjTf1baH/zLmxweHoPvaH508n04WcxcJ9e/ce3GiKRVpxzr14NbIhvpffmvoukQV2I+vMXa+a97Zs1tSZf9qxO/1SKb1Re65VcPB/6OLA0GeX8t6nMDvzwfnTnqJsinIeRqHftl4LD+p/3P/FkHUUjBBGLHvHsmGT0deKj/detIxLh7p+Xz/tfdvQmFVFr5bUL/X+RjG3sxoiXUCY0jL9lydab0bEuneUbHaLvPiQD19/cQr71kBxvNKhk58B3j2Nje5ORMlqfYryiwouNOpC1ZbPDtBsv/fpRw9DvWwwMC5GCGHn/vH4v2L82FU9lTHPQvV58KVZppu58S0q5qdvHuXWAwpE5Oevv83/cJMRwq2tz09ubsmWsNZlgph5yykxQgg7FOlJIUWef5itZHj5f3l9N3YA8iCiFch1kWWwzSWsDS9mh2Xzwio4QeaVrR+yjlHdoAIhsBEIj74f48f+1YI0gGKzHVqqEbHhxYyV1+cnv+2m6Ont+4BACFUIhHGOEOpzBSi4KLZoXnym+7Kytb8xPf7QOy4B7CwNRtrDqooFKLJYKi/zWUAghHwHwjjniza8mFICQDEdjOQE1+fmK4JACLm1p7Ep0vmiAiFAwe2r93nFaisQCCF68c4XVb8CFFzr3hYXARAIYVf6y2cj/eQCIUDBZQcS5Ny0HVBAIIQcV6VdHZEswHjd1CNbjAIUWixTRgGBEHKqfOJkvB/eCCFAkbVW4qTyGnBCEgiEkN+qtNzbF+mHX1lbFQgBiiyWGS4rq7YYBYEQcmno4qV4P7w0CFBwpUOHo/icKiwQCCGPoh4ebDADB6Dwuju7ovicjwVCEAghh6IeHgwm799zEwEKq7W5JZopo06lB4EQcliPRj08aAEhQMH1HDkWxed05gQIhJBHsQ8PTqlfAYotlgWE5ouCQAi5093ZFfXwYMP6fNFf3EeAwmptbollhPDXZ8/cLxAIIV/GBodj/wpm4AAUWSxpsMEWoyAQQt70nzkXyyr8LSrXxeUltxKgsP5WPhvLR7XGAQRCyJHW5pbYVw8GE3d+cCsBCqvnyLFQnUXxUQ0PgkAI+fLVyJU9jU2xf4vJBw6cACiu/niGBwVCEAghTzXomXOlSM7w3bpyNV8UoLC6O7siqsvmnj5xy0AghFzoaGtPYLJog/miAMUWV11mASEIhJALexqb0pgsGnxz97YbClBM5d6+iIYHV9ZWTRkFgRByIaTB2HcWzUw+uBfqVzcUoID2NDZdierYJMODIBBCLowNDkd0XtPWzBcFKKzoprpMP3roroFACHVW7u3rP3Muje+yuLxkf1GAwlZn0XVuGiEEgRDqX31+NXIlma/z+cRN9xSI1J7GpjQWctdFR1t7XJNFGzY6MS0gBIEQ6lx9ppQGV9ZWbScDxOtgW/vTv08PXRwQC3eQpWPcF23a8CAIhFDfNPjz19+m9I1CGrSdDBB7sBn67JJY+LYXLVRnMe6LNnn/F7cPBEKoj54jx0L1mVhrw3xRILFYODY43Nrc4oIkmQYbNrbFdgdBIIQ6KPf2fXf1y8TS4MTd24vLS24ukFLU6T9z7snfp5M5FkgalAZBIIT6C82LlNYNbhq9fs3NBZJU7u2b+f7HkHzCL67GpmzhQ7xR2XxREAihDkIUHIttE7btMDwIJK/U2RXK8CcbywvNI80WPsSbBlfWVo0QgkAINbWnsWnm+x+T7F0O1arhQaAgQhQc+uxSiIXfXf2ymAOG2YaisS98CGnQLmggEELtdGxsZZ7qEpTxWzcNDwJF03PkWMhF//c/HxdqhWH41ml0bk7c+cEzDHX0pz93/MVVoDj6z5xLcppoZmVtdf/xkn5WIAHdnV0/7fQ0oMXlpckH90LMSPWg83Bxhi5eKnV2JfBdws06cLzkgYc6etcloCD2NDZ9f/XLNKrPPzJ+66Y0CNDa3NJ/5lz4CWFjenZm8v4vySxRSykKZhySBHVnhJBCyGYTpX2usU5WICW7GSF8o5AJpx89nJqdiXHYMNRfoSLrL59NbEKsiS2QB0YISVy24D7Uo8l/08GxEbcb4I+EiiCrC7Jhw6lHD0MyzH84XP/YR98PfybZp2k7GcgDI4SkrNzbd2VwOO2Bwc069dTABXccSEbFRwjfKKSRkAmnZh/OPV0PhznZlKujrT18/dKhw+HPtKuwA8dLNkKDujNCSJpam1u+GrmS9orBlxs0hgcBdiDErVBTbFYWWT58vDC/srY2/WgmZJXaxJVQZ4UQ2LE/5MDD4Zci9GM2ODUXBEKoXu3eXz439Nml4nzl0evX1KkAFc6HL+qRUMD+urz0fD0rPgn/Ofd0PpvluPG/vMWM05D6wk/2r4Ts17A+Cnp4/ffCnJPxaiB02gQIhFBx5d6+oYuXshq3IKZnZ8Zv3XDrAapkM8gVYTl6zUw+uDc1O+M6gEAIFZPeTtzbsbK2+unwZXcfgLhY6QACIVRMa3PL2OBwMTtuTRYFIDpWD4JACBWLgkMXL5V7+4r59Scf3DNZFIC4rKytjl6/5jqAQAii4K4sLi+ZLApAdMZv3TQ8CAIhiIK7srK2emrggsN8AYhLiIKj16+6DiAQgii4K5fHRt5qr3MAyIML5raAQAii4C6NfnFt4u5t1wGAuITKy1ETkEPvuATkX0dbe9HOk9iiNjXZBoDorKytXnbUBAiEsDOTD+4dOF76dPjydLF7FsN1sJEMADEK9Zel7yAQwq5M3L39wfnTH54/XcxYOLcwLw0CEGkNPvngnusAAiFUwNTsTAFjYUiD4VvrWwUgOovLSyaLgkAIVYmFB46XirC9ijQIQLyckwQCIVRLdjh72rFQGgQgXoPOSQKBEGoWC8dv3UgsOGXLJqVBACKtxULV7DqAQAg1ioWDYyP7j5dGv7iWRoIK9ag92QCI1NzCvKWDIBBCrYX4NHr9ahYLQ0SM94uEcGtPUQDirY7NcAGBEOocC7OjC6OLheHDnxq4YI4NANIgIBDCrkzcvR1XLMy2kHFYEwDxCtWujWRAIITcxcJTAxdyfnRhtoWMShSAqNOgbk0QCCGPQv2U2xPtV9ZWs0WDJtgAEHUaLML5wCAQQsSyE+0/zNO0zGyaqEWDAEiDgEAINYqFpwYu5OFE+9EvrnV9/JFpogBIg4BACDW1eaJ9Xeqw8K9/eP706PWrbgQA0iAgEEKdY2EtT7QP/1b4F6fyvckNAGwt1JvSIMTuT3/u+IurAJk9jU395XP9Z86GX6r0T0zPzlweGzFHFGBr3Z1dP339reuQ8zRoc2xIgBFC+F3dNnr96v7jpcGxkYofXZh1o6o7AUhAtiOaGg0EQkgzFo7fulHZE+3DX7g/B3vYAMDuZSc5SYMgEELishPtdxkLp2dnuj7+aHBsxBmDACRg9ItrpwYuqNRAIIRixcIdnGif7SOqDxWANIQQaH9sEAihoDZPtN9OLNzcudQ+ogCkIVR/+9VrkKJ3XQJ4q1g4dX6mu7OrfOJkubfv9f+DjfWHN8cnbphLA0AaNnZcuzZ+64ZLAUly7ATsUGtzy9DFS5uxUBQEqCDHTuTE9OxMBbdYAwRCSDMWLi4/EwUBBMKUhErt8tiI/bEheaaMwq5kywVdBwBSMn7rxuj1azo6QSAEAKBAzBEFgRAAgCJGwdHr1+wjCgIhAACiIFAI/+t//5/3XAUAIFeer63+v//+79bmlvcam1yNqkbBC8OXR7+4Zo4oFJZdRgGA/MqOfu05cmyPZFhRE3dvj16XAwGBEACIQbm3r+fo+yEZuhS7ERLg5xM3v7l72w6igEAIAERmT2NTyISS4dsK8W/ywb3xiZtzC/OuBiAQAgDR20yGZpNunQMn7/8S/nQ1AIEQAEhQR1t7z9Fj3Z2HS51droYcCAiEAEAR7Wls6u7sKh06HP4MKbFoX396dmZq9uHk/XvmhQICIQBQdBvhsKu783AIh6lOK81C4PSjGacIAgIhAMCbtTa3hFjYsb895MN9zS3hP+NNgI8X5ueePpkLfxoJBARCAIC3taex6WBb+3oy3NsSImL4zxxOMV1ZWw2Rb3F5aXH52dzT9V8kQEAgBACoYkoMv5QOrW9O09F24L2NiaZVnXGapb6GjRMCQ/ALv0w/Wp/8aQooIBACAOQxMW7KouN2ZDFv0+OFeUfDAwIhAAAAdfOOSwAAACAQAgAAIBACAAAgEAIAACAQAgAAIBACAAAgEAIAACAQAgAAIBACAAAgEAIAACAQAgAAIBACAAAgEAIAACAQAgAAIBACAAAgEAIAACAQAgAAIBACAAAgEAIAACAQAgAAIBACAAAgEAIAACAQAgAAIBACAAAIhAAAAAiEAAAACIQAAAAIhAAAAAiEAAAACIQAAAAIhAAAAAiEAAAACIQAAAAIhAAAAAiEAAAACIQAAAAIhAAAAAiEAAAACIQAAAAIhAAAAAiEAAAACIQAAAAIhAAAAAiEAAAACIQAAAAIhAAAAAiEAAAAAiEAAAACIQAAAAIhAAAAAiEAAAACIQAAAAIhAAAAAiEAAAACIQAAAAIhAAAAAiEAAAACIQAAAAIhAAAAAiEAAAACIQAAAAIhAAAAAiEAAAACIQAAAAIhAAAAAiEAAAACIQAAAAIhAAAAAiEAAAACIQAAAAIhAACAQAgAAIBACAAAgEAIAACAQAgAAIBACAAAgEAIAACAQAgAAIBACAAAgEAIAACAQAgAAIBACAAAQN39fwEGAN5n71pXjpCaAAAAAElFTkSuQmCC;" parent="1" vertex="1">
          <mxGeometry x="117.04000000000002" y="394" width="65.93" height="30" as="geometry" />
        </mxCell>
        <mxCell id="_Gt7bBRQ5WeV5vQwa5ph-18" value="" style="shape=image;verticalLabelPosition=bottom;labelBackgroundColor=default;verticalAlign=top;aspect=fixed;imageAspect=0;image=data:image/png,iVBORw0KGgoAAAANSUhEUgAABLAAAAIiCAIAAABXPabqAAAABGdBTUEAANbY1E9YMgAAABl0RVh0U29mdHdhcmUAQWRvYmUgSW1hZ2VSZWFkeXHJZTwAADuwSURBVHja7N1NTJbXoi9wdm/vYJ8E7OzmIJF9RigDnGBkcF4STWprusGBpMb4dqAmtWaTyEQmhBFhghNNaGybVAfFNG3sQDnNbm2iCZwBRiYyQBmd0CB3KpDs5J7RXfBUjlXLRng/nrWe3y/E0J1z9H2fj7XWf33+6c8df2kAAACgeN5xCQAAAARCAAAABEIAAAAEQgAAAARCAAAABEIAAAAEQgAAAARCAAAABEIAAAAEQgAAAARCAAAABEIAAAAEQgAAAARCAAAABEIAAAAEQgAAAARCAAAABEIAAAAEQgAAAARCAAAABEIAAAAEQgAAAARCAAAABEIAAACBEAAAAIEQAAAAgRAAAACBEAAAAIEQAAAAgRAAAACBEAAAAIEQAAAAgRAAAACBEAAAAIEQAAAAgRAAAACBEAAAAIEQAAAAgRAAAACBEAAAAIEQAAAAgRAAAACBEAAAAIEQAAAAgRAAAACBEAAAAIEQAABAIAQAAEAgBAAAQCAEAABAIAQAAEAgBAAAQCAEAABAIAQAAEAgBAAAQCAEAABAIAQAAEAgBAAAQCAEAABAIAQAAEAgBAAAQCAEAABAIAQAAEAgBAAAQCAEAABAIAQAAEAgBAAAQCAEAABAIAQAAEAgBAAAQCAEAAAQCAEAABAIAQAAEAgBAAAQCAEAABAIAQAAEAgBAAAQCAEAABAIAQAAEAgBAAAQCAEAABAIAQAAEAgBAAAQCAEAABAIAQAAEAgBAAAQCAEAABAIAQAAEAgBAAAQCAEAABAIAQAAEAgBAAB4g3ddAnbs56+/jejTfnD+dLX/iT2NTQfb2mO5IM/XVucW5j3GAAACIexEqbPLRXhZSIM/xROSp2dnahCSAQDIM1NGAQAABEIAAAAEQgAAAARCAAAABEIAAAAEQgAAAARCAAAABEIAAAAEQgAAAARCAAAABEIAAAAEQgAAAARCAAAABEIAAAAEQgAAAARCAAAABEIAAAAEQgAAAARCAAAABEIAAAAEQgAAAARCAAAABEIAAAAEQgAAAIEQAAAAgRAAAACBEAAAAIEQAAAAgRAAAACBEAAAAIEQAAAAgRAAAACBEAAAAIEQAAAAgRAAAACBEAAAAIEQAAAAgRAAAACBEAAAAIEQAAAAgRAAAACBEAAAAIEQAAAAgRAAAACBEAAAAIEQAAAAgRAAAEAgdAkAAAAEQgAAAARCAAAABEIAAAAEQgAAAARCAAAABEIAAAAEQgAAAARCAAAABEIAAAAEQgAAAPLiXZcAKuXxwvyH50/H8mmfr626ZQAABfenP3f8xVVgZ/7x+L8i+rT/cvDf3DIAAHiZKaMAAAACIQAAAAIhAAAAAiEAAAACIQAAAAIhAAAAAiEAAAACIQAAAAIhAAAAAiEAAAACIQAAAAIhAAAAAiEAAAACIQAAAAIhAAAAAiEAAAACIQAAAAIhAAAAAiEAAAACIQAAAAIhAAAAAiEAAACvetclAACA5HW0tb/X2LT9//vF5aXw47oJhET5nu9pbOrY3/5W/79zT+dX1la9/PBHdWf4fU9T09v+DSurq3ML89nvjxd+e8tIQHdn18v/WTrUtZu/bfHZ0q8vCl7PCXlOCB7RnGttbgk/WYXV2rw3/L5eQHV27fKvDXc8q8s27v5aVmR5EpLxpz93/MVViLEhsi+88Htbsld9Pf61tVf2n8je/I1w+Gz60cwbU+I/Hv9XRBftXw7+myeHP2oMVbzu3Nr07Ez4c2r24frvf/B+Ud/m1GbG29PYePBFAbv+nDQ21eyTzG00trJyOOtZ8Kiwza6Kl/uFuzsPv1ziVekZnnspGzxfb0I8eaWz4/na//SOUdnyKhRWHW0HshxY+88QarRQLs09fRLu79RG7YZASFXe9vCGh5I9lOn7XrRUai+LiKEJO/d0/YUP/ykQEmnFmTXx6/g2bV2nhvdLs6naQpv44EbLOBStm5Gv2h0BlX1Ust46PfTF9HJPVkgC4fe8FWj/tDnR8GKsaXMahSyx/cwfbn3p0OHwZw5verib683FRw+zksr9EgjZ1dsemq0hAda4Q/qtXvi6dEQJhLxVm2mjM+XAwY1f8vkqbdHon5p9OHn/nnBYkY6ArOkcCtVqTKmor/V+hIX56UcPdSUk3Hmx+QBHFPx2XPRtZsXpRzOC4mZ1ttEyPNxz5FhcpdN6Xfbo4eSDe7quBEK2+7b3HD0WivtYeqnjUoNAGCrp8om+aIrpZ0sTd2+n13LKqszQfkrmPQqVaKhKVajbL0jX49/+9mwCcNGK0/CEhNbz9MbTom8+3i6MPEwLytuDvbmMJdvyoCApMcS/LAQm8BiEOzhx5wdFk0DIH77tPUffD3/GNXwhEL4uRJGfvv42lgsyPTvzwfnTaTSeQqO/+9B6T0ryLaeQ4Sfv/xIqVG/0ZhfAevg/1FXM+Le10OoKj0pogRk2jOUxzvO0oHw+4b8uL03NPsyWKaYUEUNzonziZKotQ8lQIEQOFAgFwoq9QaVDh7OlFAVsBk3c/WHizu0C1qYGT3acDD+fuKn5lasQmE1nKGYhVoOImK1ki658K5/oK/eeLEjJFsqlyfu/pDdZSSDknwvlfvnEyU96++RAgVAg3EFluTl/xiPdsDFgOHr9WtqtfIMnFRTax+MTN809rqNQTfz16PtCYC2f+fWfjQ0w87wDU6jUsiHBAt6jcFPGb90sZhenQFg4oRET3vP+8ll1gEAoEL6tbDF9qCy9PgWJhVlzuWP/gSJMA9b8KkgDoGcjB+rRqK9sB6a5hSf52aG33Ns3dPGSgq6hGF2cAmFxZRMA+s+cVQ0IhALhDt6d4kye2aXxWzdCVRrpyE82fS6bCGodoOZXMrV/NuyjJ0sl+MZCr798TuPwjfcllEu2lhUIk6oMhi5eKvf2uRQCobpQK6oGQhr8dPhyLFvObO4GlJ0O4vaJhWkI7ftPevuUYPn34fnTdUkdouA2myihOlMuCYSiIAJh4QJheGWynZY8rrsRAmGoR/M5VFioLWHj6koYv3VzfOKGtYVKsIKYW5jv+vijujwkVwaHRcFt0l0lEIqCCIRFCYR2WqpG+z7c3JzssCcExiK0ui4MXzZTawdP+N/KZ5Vgcfl0+HKNN7cMLYSxwWHjxjuozsZv3Ry9ftWlEAjjkM0BGPrskkshEAqE21Tu7fvkxElrxpJp8byi/8y50FAWAuOS5xHmvFGCRWpxeenA8VItuwxCFDR0vMtbpruqqt51CSpVK5gDANuvHe20VANfjVzpPnQ4NO7r9QF6jr4vDUYnNFtnvm/X9tpCtkpQZ0e8Rq9fq9m/1X/m3NDFSyq73Tcbfvr626j3ThMIE9fR1h6ioA5C2I7s9Ahzqmsmu9R1zITE2/Ya/eKaaVqvR0HbgcRucXmpNlMnwnv01cgV7cPKpuueI8d0VwmEuTN0ccAcUdhmMjG3SiYkpgrus0sdbQdMH91s3NsgIA2fT9ysTcFr4liV3sRsqHBwbMTVEAjrr6Ot/auRKxYHwz/V3dn15cgVc6vqmwmfr62qPnlbPUeO/fx1ywfnTxc5E4Y2fYiC/WfOeR4SEJ7kb6o8PBgemNA+tGKwqsL7GJoWpwYu2IC0Ut5xCXb2IM58/6M0CNtROmRvyVyUWgY32IFQ0z39+3Qx67uNKDgQvr40mIzxWzer2rsR3pSfv/5WGqxN0RSa4i61QFi36iG86mODwy4FEBeTGthNxVe0h6fc2xei4NBntgNJx/oBBhM3qvrMFPBNqW/R9N3VL/XXCIS1lnWUWgQFRCrUnVq3yIRb6+7smvn+x69GrnhZElPV4cGhiwOemboYGxwOV951EAhrpNzbF2oIrzoQr2xjDNcBmfCPvmNoWf5kkCdRE3eqtXowPDa2GKxvEz2UTproAmHVhVdd9wOQgGwtvuvAjvNSqq2uniPHnv592lLbZNPg3dvV2IAkvA4z3//osam7UmeXTCgQVrf+C0+YVx1IhlXQ7Fi2Z0Z6Ff13V780oTpt1TiMvpjLa3NeOnmLBcJqpUGLBoHEak2dXOzm+Ulpykw2MGivwrRVY3hQGpQJBcICPVVedSA9VhKyG+XevgT6FLIZsAYGi6Diw4PSoEwoEEqDAHFrbW4xSMhuXBkcjrqKzGp5b0ERTD64V9nhQWlQJhQIPUkAKegvn3UR2E2bON6Jo86LK5TPJ25Kg1ryCISeIYA3lHXaNOzyERq6OBDdx85OLVPLF8T07MzU7Iw0WMwC6ood1ATCnWltbpEGgYIonzjpIrAb/WfOhnozlk+bteb7z5xz44qjsqsHY58pXbg6rrfPrtoC4U6qCovLgeKwsyK7rzdjaW9lHb62DS+Uyg4PhkfdotPo9J85564JhG9Xq5kGABRKaCIr9NilniPHunOfssJzPvP9j572ovnmzg+V+qtCqDC2HCnjugKhxwVgK90GTNi1nJ9iYmuAYlpcXpq4e7tSj5DVaPEyAVAg3C7TAIBi6jn6vovALpU6u3LbsxAq95nvf9QWLKBKrR4UJxLQ2twS767IAmHtagvTAIBiMjOCisjnIGGo37UCi6mCw4PhEYpo5yT+SM+RY1r7AuFWjSHTAIDC2tPYJBOye6XOrrw1mqXBIqvU8GCIEDbfSsbQxUuyvUD45paQw4iAghMIqYi/lc/m58OERrw0WFgra6uTD+7t/u8J4SHn62PZQbPfdRAIX2UjGYDWvXpMqYBPcrMUP9Tsmn1FNn7rZsiEu/97jBmkp9TZZeKoQPg7PUeO2UgGoLvzsIvA7oWmcx4m19lTtOBCFByfuLH7vyfEBqdWJsnEUYHwd/WW7kOAYJ+qkQqp+6a12ZHC0mCRVWR40GTRtCPAmN1DBMKMaQAAm00fF4HKBMK6jhBKg1RqeFArMfmSyhm8AuH6c2DPKIBNVlNTqUhWx2aWfQGYfHBv98ODoYlosmjyDBIWPRCaLArwivf0hVMhpUP1aUn3nzlnXwAqctqEqFAEHW3tSoxCB8Khi5dMAwB4mWWEVEpd9ijq7uzSiGfi7u3F5aVdtxIHzKKXCATC9PsD7DYL8AonT1AptZ9rF5p031390pVn98OD4VnqP3PWlSxKxdfc0l8WCn7zbqG+7RU9iMDvTc/OhD8fL8yvrK2trK7OLcxn//vUxv/+T2UrpkqHulqb93a0tVvCBOGl2ObrUxH2/6ChQsODIR54lgol5P/xiRsVObVSIIyGVcJQcKG58Ovy0tTsw8Vn679shMDdVgNZw3ez+dva3BKKmr+Vz8Y16aij7YDHg0opHapdIOw/c84ucawHwjs/7PJvKM7wYFYVZt2gb7oOjQfb2vc1txRh6my46Z/09o3fuuENKlAgLPICg+nZmedrq3MLT9Z/fzTzT1+Pjv3tWRvxvcYmKZp4zS3Mr/88fRL+rE0LNVS0oWoJP6GRGsqcWCpUm8rs4NFaWVt9fWB5y9TdvqepqQjlas36FxwWt2ll7beHMBRBi8vPtv4/7u48nNgTGBo5uy/h015RFh6PyQe/hBbg9ntCw9UIyfCvR9/v7uxKePLL38pnBcICBcJyb1+hVglvFI4P556ut4Z3MIli8sG9V9ox6z/7D6RdKJDSwx+qvVpOWnvjSxQ+wJXBYfuYJSCUohudC0/Cc7XR4N7JzLRXHshQloYStXTocHoDXDWrbQs7WXTzgQy1fPb72/3/XxxILBBWZPXgJymW1eHx+HziZqiPdlBqhdw49SJph5c6BKdwidJ748JXC9X0xN3bAmEhFKETMby64Z2fvP9LeHsrOx86G2ZpuPtbobl+oOdGI8ZUe3IVAifv33vrhlGVX8lPhy83bHRIuUfRyUaVpx893Fm32jbL1fFbN7KWaHTTjLdQm37D/jPnCjWBZfOBrHgVn1sbywKfZTMYGzZWeod3JDxdr7wpFRkeTG/1YLgsISdXqmM0lIGDYyPhJ1RnoUWd2BBL+EYCYSECYfLDgyEHTtz54ZVhveq1ccNrs/HmXP7H4//SaqReQv0UnvnQPKrNk79jl8dGQrM150WQmeGvPFS1bHOHfyibZpxSSyu02qvaOxPa7gWZLJr184bGfTV6JfIeCO/88MY8k01l3NzKa3zi5u4fp5RWD4ZXLyS3Ks2RyVqAQxcHwhVLJkKHUrfGW2EJhHWL/kl+r2xIcPT6tQLWExRWqOqyVkKuBgO3fk/DS/rVyBX3LudODVyob+dCaGaFDxAqrASOR6r2qtQrg8NpT1FZHz3emOln/8M3FqpTs5VcFJDSjKfRL66NXr9a9X/l+tWJO7dDvZZMZ2L5xMmCB8L0zyFMdXgwNB32Hy99OnxZGqQgOXBwbOTA8VLXxx+N37oRSxrcfFu9p1G0MvPwGcJzHgr22GNA6VAVm4ndnV2pTsPO5uBkBV34RRqsjTSGDUK1GB6bGqTBTKjUPjh/OuTPZMJCwZdBpT9C+MmJk4l9o+nZGTmQgtjNgvhcCV8hgWEfataDENp2P3/9rXXaCTffX4+C47duOhKt9rpzP6V/m1VMXTqSQv5cfLaUxoh9wc+feCf59zyltTHhVT81cOGD86elQdKWrarq+vijA8dL4ZcEHvj/uP+L28r2hUCY7UgUbeV7uEp/c5JHCo9+cW3/8VJoW0uDtVeOf9hg4u7t0Dis18MT/vXQLk3g0S0nN4AkEKZ5d6dnZ0KFkfP9M2D3z3loB//rvx8cHBuJa17o1h7n/rsYjMqb9SXiqUzHqqDEjhQOd/mAKFjXci/26cchj9W98yhU1glkwuyINYHQe55r47dupNEBA2+UDQmGhlF4zpPc/Tn/L+9BR4zmT8gJkXaL7KvOHLyUNgVYXF768PzpUwMXTPmpo0+kwcplwvAwx/48FHmQ8B3vef6Ft31wbETBTZJCYyg84fuPl8JDnnbDSLOPHYi08K9SbEtm9WA2Jb5euxrOPZ33ZiUQALIJNfn5PFM5+zw70HPkmECYoL+VUzhVJrxdjsskSaEy+/D86QPHSwXZTO9XgZAdtbFUAb+13ZMYHgxlXSj3Qs6vY6EXS3lb7Xns2TH3kT5Ii8tLH+dvRO7FOdWxivqREAjfLNzRBGoOaZAkZfuqf3D+dMGP/YFtvS93foi0aVXZvzCB4cG5hfn9x0vKve025PZXt2ke9XDQhbweTnM58sk+hZ01mmwgTOCOSoOkGgWdmwLbF/JDjCsJKxsIEzgbIJnNGDUU6270i2u57VYIT/iFuHdI7irm65BsIIx9HvDg2Ig0iCgINEQ7SFhBsa8ByTb/kAbzI97JgaEOrdnp8zsTwmq8B/qlMcFQIEzkdoaao8iHY5KY6UczoiDsRsEPHAoVetSdvPnZCpJN8T5RUYy/jV6/Fm/3R6mQg4RpBsKo54vOLcxftqcoCZmanREFYTfCGxTdS1TBHUGiHh6UBnPa6D90OMaPPT07E8Ua1I2jpG5G+mx0x/lsCIRvEHVXolklALzeEIzrA1dwR5B4D5GaW5iXBjUUKyiiAYPxiRuRtmaLefhEgoGwtbkl3vmio19ci/QYYgCqZ+rRw8I23Kt9/ECVhNbwB+dPe3S1+Ctl4u7tiJqI8Q4ShgKngIdPvOM9z4/8LxQGoC4Ke45lvGtATg1cMN8nnyKdLxrd5lLxDhIKhN7zerpgYgkAb1LMw+v2NDZF2smb54MBYtHdebhqf3N8u4bMLcxH90SFNPhNnBvmF3AZoRHCvIhloTAA9WpdFe0rR1qhh7a7+T65FemEwPGJKKdffh7nxzZCGL14D5QcvX5NMQ3AFjGjcIHw6PsxfuxBW4Xn2MEI2/ora6uRnj2zuLwUY8EVAmGkS5cFwt+UDkUZCA0PAsDLIp0vOnH3ds4r9IK3N2JsKIY0GO8EgeiWPsbbcSAQvpzpD8T4sSOdCQBso1Bq7+7sCj9F626kCu34Ym00GumUH/N9cv9cxbc8bPL+L/Fe8EjHNos2a/Rd9UfdLS4vRfq2AA0vjrpZX5eycfBaR9uB9xqbirlvNVRQjPNFJ+7eXizqfrAa+lUS73zRzVbu3MJ8dJe9Y/+BQr0XSQXCrE0W3cf+3PAgxCAULwfb2veF+Lc3JMC9ocDZF/Opp5BzpQh7eA0PaihWXAJTfCcf/BJdICxa5Z5UIIy0P97wIORQNsmzY397NuJXinbDKoi04R5dgyzU5oYHtfIr/1zFPF/0xVe4N/TZpbg+c9Eq/bQC4f74AuHcwrz6A/LQSuhoa8/iX/jFuB/UV5TbycS5eUZ+G3VV6OWPcUeZ6fhHCENbd2VtNbqx2fCBi3PYT1KBMMaFwuoPqFdTYyMBHjjY1m70D/KmFNvB0LYDqEZzvOJ/Z2vz3uieqzSGDUImjK6qDc2D4mzJm1Qg3BfjTAD1B9RKd2dX6VBXd+fhAh4xBHGJbg2I2jwK0c3+mE4lkEzNPowuEO4r0lyhd73ndZRMxw/kU0h9GyHwcPjTnp8QUW0eXYVuvk8Uosskc0+fpHHlpx/NNMS2jLB1r0AYoRgPnNChCNUQsl/P0WPdnYfNBYVIX+G4PnC2sb4bl3MxTgxJ5rl6HOEXiW6CsUAY7XueSscP5KEE6O7s6jn6fs+RY6aDQtyBMLYt4qYLs9AoagcjnCfyOJVAuLK2Gt2+Mq2mjKo/VCEQSw4MCTDLga4GpCG6LeISOBigIPVFXB94cXkppV0uY9xXRiCM8T1vjOsDh5fcAkLYsZAAyydOyoGQnuimjE7p3o3iuYpt5ODXtFqJj2MLhIWKr+kEwuhmAlhvADtrKYYc+Elvn3mhkKTwasf1dic2jJP0oxXZyMHjtBqKK2trHkKBkFdNzT50EWD7yr19/eWzNguFtOnexaOVZIKaexrfm1Kcs+nTCYTRDeyurOpQhG0Vx/3lc/1nzhoShCLoiC8Q2h8OCWo7+Ta+dm9xzqY3QljHKkSfImyltbll6OIlu4ZCoexpiux9Xz9gjRhEd854YmNTj7V7BcKq1x8RthftKANbR8Fyb59LAUUT3RajMdbmcwvzBZx+H90pAs/TCoSW2gqEVRfj2TICIbzOBFFAba5pToOpZNTQOy4BkBPl3r6nf58e+uySNAiFFdeOAPp2q8ouYiJufe0rzNn01hB6JSAXtf6VwWFH1gJx+VUgrKb3Ktc5KFvmQXRD0617BUK8ElATQxcHhj675DoAWu3kP1vWhsFnBEJVCBSl8ffVyBXvLxBpq93GiVSJwWdqKZE1hNHtUg30nzk38/2P0iAQr8SODgeKyZRRoNb2NDZdGRx2qgTwCj1EAAIhkLjW5pbvrn6p2Qe8znwfAIEQSFnIgT9//a1TJQAAcsI5hIA0CAAgEAJIgwAAAiGANAjUWHfnYRcBQCAEpEEAgHpaWV0VCAF2K+RAaRAA3sq+5hYXoe7mFuYFQqrbSnYRKAJpEADeVqtAiED41gn+aWQJ3iFsFMFXI1c86kDC9jQ2ugiw7fdFB7FAWE0ra6vuJeRKz5Fj5d4+1wFI2EF9XrBt+ogFQrwVFEhrc8tXI1dcB4Aceq4bXUORbXhsDSHV9p5xc9I1NjhsZgiQvEh3/phbeFK0O7W4vKShWF8xtgqKMwNRIKwbHT+kqufIsfDjOgDJs/OHQChBbZP51QJh1U3NzkT3mfft3ev5I0ljg8MuArCj2vyhTAiZjv1JJajo8m1xzpxoMEJYR3pKSNLQxQHNoz+ysrZaqAoGikCJR9USVFJ72EaXbwu1Y+W73re6vRgCIQnWXk39Z866DtMbcxaysY65p/OhUllcXsomLHV3dv309bcuESSjdKgrxmlKsbSUKnhtQ8lc6uyK6OsnNnIQXb6NcZqxQBjfex6azq3NLYV62khef/lcofaSyUb8NsLesyz4aRdC0bQ2WwBStZZSU6E3J9uX1uBzdPk21OwCIbUQEuzi3duuA8ko955M+wtOz86E+Df39EnIgY8X5p2ACpW1shrfO2W+Tzzt+6VSVB+4tbllT2NTMhVNdG9KjMWRQLh+VEhcI4RB96HDEwIh6aTBvvTW0oQGRAiBIQFOhT8t/4Mqi/EtC83clFrtSQfC+AZ8DlZ00mzdw63iSCCsfo5fW4vuM0eXYGELn5xIZHgwC4FTjx5m44HuLLC17s6uyQf3XIe8NxTjHH9OIxDGOJBuDWGU5p7Gl+Nbm1vCG2LYgQSEhzn2Do5Q9Icm3cSdH7ySUC/P4xxnKx06LBBG0FCMcfx5/4E0Ln6MR2gUKhCmc+xEpLM1yidONkD84j2JPhQd47dudH380YHjpcGxEWkQNNmLUwAWSozt+2SmknV3Ho7rA08XbIu4dAJhpEPqahHSEGPXRmgcfDp8+V///aAcCOxGa3NLXCuopx/F0WSq7EEFMQbC6B6tZJLt84KtCk7qYPoYBwmzWaNqU2JvDMX1GGdR8MDxkl2dIHdZRfcuL1T8oIIY+/4SGCTsjvArzC08EQhjFWkff3/ZQd7ELa7qavSLa10ffyQKAhX0N1V5DGIcJOw+dDj2y/7Xo+9H95ljGUUXCN9gavZhjB+758ixQp3lTXp6IinrQ1MgRMHR61dtEA+q8soy3ycKMQ77JDD4HOMI4eOCLSRJKhAuPotyO6CQBvvL5xTTKOur3A6YD2nQWkFQlVeJ+T4RVAQR7kgfWolRZ8IY+0oWl5dWrCGM+D2PtqnXf+asQULiLevz//SGwuGD86cNDEL+/RrtVu/l3j5VuYZiNfREOOXyfz58hGm2gH3HAmEuGCQkXvnv+VtcXpIGIRZRz9RSlee/OoixLoh6hDDGTcinHz0s2qvxTmLfJ95jQwwSEmsgzP1ps6cGLkiDEIvwtsZ7HrSqPP9iHDwID1W5ty/KFkJbe4xra40QRi/SxejZ235lcFhJTXRyftrs+K0b1g1CXOKdNaoq11Cskk8iHGdriHZh7VTBTqVPMBBGvUtsubevO/7TZiiaPHeHr6ytjl6/5h6BJnstq3LbjeZZjPvKNGwc7xTdcxXpwOZ08dJggoEw9l1ivxy5YrYJcclzFTX54J7JohBfgyzyE8AMElbKvuaWiv+d8Q7+RDfaFumS2sn7vwiE0QuNv6iTfWtzi4qEiOS8/6KYxTrELva+3VJn19DFAfexIo2iajQUI11HUO7tq8YFqV7zoP+M+aICYT1vZNxbA4UXvv+MbcqIw8F8z2CZfHDPPYLoxNtk3zT02SUTR7X4K24snjGD/vK5GKe8JVD4CIQvmoD3o28Chhc+6i2GIQ+KuQwA0pBAm+y7q19aA5LT2iHaQwVC4zCKzSZam1siHR4sbD9ygoEw1CIJrBr6auSKzkXyb1+Op6/Eu3M9MBX/OWChTfzz19/KhBr9lRXFIGH4kJE++YVdafKOVz2fwosUKhKZkLy3ePbmORA+c4NAPV5HoRL/auSKu+kBq+xDlfMVqj1HjsU7zc0IYVrveRL5PsuEDqIAoGiSWckTWsZf2T9cQ7Gi8rxCNTzq8XaCFHnfgWRHCNPYaz68Vz99/W2Mp7gAwG4ks9dfqMTNHd2xKu2rGXvTP7e9DN/HvHS2yDuTv5PqF0sp5YfXXv8iAIUyceeHZL5LR1v7zPc/WgaSn0AY+xB0PmcjD10cKEU7ry08EhN3bwuEqRmfuJnS1yn39oW6xPRRAAoitNdT2hoq22PGsVIaipWSzUbOVUt16LNL8V7Pgp9TlWwgTKwiyeqSn77+Nt6Nm6DGOtoOuAgQtcSaaKH6DpV4iIURHS/u6cqzkMFykgnz80l2LKUpCQLh73ye1iBhpv/Muad/n9bFCP+UJhfELskmWqmz68nfp4cuDujera+VtVWZUBrMLC4vTRX77OKUA+E3iU4FzroYn2zEQtUJ/JGOtnYvCEQtvck+m4Y+u/S0TrEwlI1/Pfq+pyuZHof65rEE0mBDomNIAuFv0l4e2trcEmJhqE4cYZ+rBOIi5Eq8RyEBvzXZ7yY7jytEwRAL/+9/Pg71eLULq/BvhX8i602e+f5H84wyyWxKn+00UeN5MdkJE2mctPlNgbeTST8QNiS3tcwb38asFAhFfCjoBZI6344m41H58smJky4CxB0I76TfUAv1+HdXv9xMhpUaMwzxIAuBoZEQ/vLwT4QcaC79qw3FW4k0FLOdbGsW9bs7u35O5Vy0ibu30+gX2I130/56cwvz07MzpQJszhmK+FAKhJ/wTE/Nzkw/ehi+e5XmQ4dC573GptIhW57SsLKa6zI0vPuh0ir4wgCI2uLyUkHq8ayHN2thhxp8Y7rss+lHM8+3d0BCaAaEn33hz70t3Z2H9238p+dnOz0OUe+N+cojFPJ/z9H3L4+NVO9QjfWR7YuXUhpkHr1+zYvwbvLfMNzmn74uUHTJpoVsTj4JVemv6ytlH4bfQ72S/Y+PF+b/qC8k/L8ffGmYMUt9exobs/+x5NwLfi//5ziF2rHr44/cKYjXN3d+KFrt09HW/tuUn5eySlahv15rmxy0yx6Hibu30xjp+q3l1tk18/2P4UuNT9ysbB0dHrb+8rn+M2dTWp8/PTuT6kJlgfB31ofLitG5+EZZl+FvXz+VPjB4q3bVVyNXPh2+7FJApELTdujiJeNdrQb9qvSA3fkhpUCYyUabQwP4mzs/7H6pZHdnV/nEyfSuUoPhweIEwobiDRJCzTyPYdp9VofJhBCvzydujg0Ouw5UQ8IjB+FLbXyvKyETTj96GL7p9scMs+GE7kOHw5+p9kSE+25RSYECYcEHCaF68j9l9OVMeHlsxMJxiNE3G4OEDpKhSpIfOXh5MdHcxrqhbDFRZvHZUuvelhc5cG+IfwU5t8nwYLECYYNBQii8kAlLnV2DYyMJnEQMRRPar+O3bg5Z+EB1FGrkoMOuEBsMD77sneK86hOFP2OEatvT2FjMIjWWj9ra3PLd1S9rv1N2d2dXz5FjQxcHwr9u2hvszPjEDSP8VI/BIne8yN4t1I2v4PE+8LqDhdzq7XlsTbRsTcWVweGp2ZnJ+79k27tXKnCGn/VN//a3Z7Nu7PwOlWKQkKqyvKhQJh/cMzxY0EC4uLykLoGKm1t4srkyISKvHNAS2gEbh309Wf9GT+e3GIh4+QTOjrYD7230MWlDQA2MT9xIbMt7csXyouIYHBtxEQoaCDde9as9R953Yg9U0Pr5lvH3s2SJLsZkC8VhkJCqypYXJXm4Ar+LA19cc/bgK94p2he29TxU1uNINhoFUmjJXb+qJUc1H7BrlqqmbX3C4MQN16HogXBuYX70C6tIoWJC3al9BtTMBR27VDUt3LrpOiRs0AFUAmFm9PrVOWMaVMG+om4fMm1lNlAr69tBOTymMGo/CcUodMJC0aH0EAj/x6mBC7oHqLjC7ic59eihuw/UjD7+4qjLjTYKneqzZOGYQPg7i8tLngkKroLdrkYIgRpX4s4Qo3qmZmfGb1lmlprQ8teRJBC+avLBPW87RbaytlbBxplp2EAthRpcVxTVM3rdRpRJmbh722RRgfDNBsdGVCdQmaL2zg8uAlBL+vupnvBonRq44DqkYW5h/rKDBwXCLXw8cMHIBhXRXeyjyXW8ATVm9QfVThGOL08j2+s8Egg9JVCjlpm+FaDGrP6gqsLTpbszdpfHRrRPBMJ/LjwlH5w/LRPCbivOCWc3AbU2qLVHNX06fNliwqgj/cTd266DQCgTUiN7GpsKfgVCmeslAmpPDU71ZIsJPWAxmp6dMelXIJQJqamO/e0uwvgtg4RAHZrsanCq2kS0WjXGu/axbYEEQpkQtjb9qPJb7I5P3PAGAZrsJGbywT0PWESM6wqEMiH1saex0UUI745BQkCTnfRM3L1tNVosTZHQmLfyUyCUCamDg22mjK4zSAjUsckuE1I94emSCaNIgzaaEggrkwn3Hy95mGBnZbHjXwGZEJkQaVAgTOGRcvgM27evucVF2GyQTc/OuA6ATIhMiDQoEMb9YJ0auDD6xTWXgu1ojS0QPq5moRnqSxNHAZkQmRBpUCCM3uj1qx9aUkiipWf1/vLF5SWtMaDumVD1HbU8TzaRCaVBgbBYpmZn9h8vmQLHFro7u1yEV0w+uKeyBOqbCe0SR1UzoXlkdWfjD4GwdrK+h8GxEfUKvFVlqYwG6ttY7Pr4IwURVTJ6/arpMHU0+eCeTh+BsNbGb90I9YqhQl5XOhTZCGHNzucxiwOoe3EXCiITFqiS8GiFxqFMUpdmudPnBcJ61iuWJRC7X2sVCM3sB+ouFESh4lZ3UyUGomv/RocoOOiMK4Gwvibu3t5/vDR+64ZLQaa787CLIBMCOa+7lUVUyeLyUsiEWoa1id9OhhMIc9TGHRwbOWCzGTbsaWyK6wM/r203uUwI5KQpGVrtNgKhSkLL0CTGqspWb2lOCIT5ks0g/fD8abGw4Dra2mNrFT2p8b+YZULLeIC6G71+VZsyClOzD6P7zJMP7tmavkpN7g839nd0KQTC3BZYM2JhkUV3JH29ZMt49M0DdZcNFdo8nCpVdramr6xsYHBKM1sgFAsRCCtZXa3WrZYavX41vCY12+YUYItWph0BqOrTZanbLs0tzH8oXQuEkcbCA8dLE3dve3YLIrozJ7IStr6vicX3QB5s7ghgQjvVeLpODVzQB7qbd9PAoEAYsfDmfzp8ef/xUniUlQLJ62g74CLsrKD/0E4zQG5qbbEwdzXFagod6yHPHNhoEBon2L7RL64ZvRcI02nyhkc5lAJdH39kwDBhMU4ZzUk/RTZUGNph+k2A/MTCUHcnXGVPz87E0s5Oqccwm0Eaco7W4NZCgzm8g6PXr7pQAmFqQokW6ph//feDpwYuSIY1q9dDnRdK3nDNQ+T4l4P/Vr1/K7otRvMTCF8u/cVCICfF4+DYyP6NQimxKQyhWvzw/OkPzp/+j/u/uNG1F5p/IeeIhRoDOfSuS1BLkw/ubSwvvtxz5Fjp0OHwpw0qK1jPPV6Y//XZs1B/h19qVtR2d8a3gDCf9VCoCcJPubfvkxMnSxFeVSCxtntWKHW0tZdPnPykty+682Zf/i7f3L39+cRN7ez8xMLxiRv95XPl3pPagZ5PgbDoyXBwbCTUNCFRZOHQZXmr+BcKjsXlZ9OPsl/qVojEODyY5z7vzRZYf/lseCnibYFF8RI9X1udW3iy+Gzp1+WlxxZzwh8UmINj4WcklEg9R9+Pq1wKLY2JOz+8vtFlLDXX83SH0bJYGH6K3A0aGm+j16+F59N4qUCoppkPP9ls/o1k2NXRdiD8oh38cnkRWqtTsw9XVldrPPq3HSHMu0fVeC8+Hb6cjaVH1wLLYfBreHG+8/Sj7Hc7tsFOwlU2xyekqZ6jx3qOvJ/PWBWqyPCOT97/ZYt29p6mOErUIuw6lnWDtja3/K18NuqB6Ld6RLOuCpWRQMgbhBdj890I1cz6z/4DB9vai9NvNLcR9jZbrhvDF3mvDGKcMppd4bhaYNks63C1YxySrdm7kw2bZ10ngh9U73ULP6PXr4a2+3qhtL+9u/Nw3Wvq6fUmxMNQdXrxY5StXI10IPrt6vQtuyoQCHlDfdNw97f/bG1uCT+lQ12tzXvXf4k5ImYjfg2/H7LI27jfNoVwYuSqtsmwIXv+O/YfKFo4zCJfNslz/T3amOeZ806Tb9Y7gKPpfcj/8pVQWo7G88RmZXvasoGO8DP6okYIP617W0I+3LdRa1f1n86mzMw9ffJbg4GkKrt0JshsZ8iauvvTnzv+4ipEKptZ2rG/feP39YmL1a6B3irvvdJyjTf1baH/zLmxweHoPvaH508n04WcxcJ9e/ce3GiKRVpxzr14NbIhvpffmvoukQV2I+vMXa+a97Zs1tSZf9qxO/1SKb1Re65VcPB/6OLA0GeX8t6nMDvzwfnTnqJsinIeRqHftl4LD+p/3P/FkHUUjBBGLHvHsmGT0deKj/detIxLh7p+Xz/tfdvQmFVFr5bUL/X+RjG3sxoiXUCY0jL9lydab0bEuneUbHaLvPiQD19/cQr71kBxvNKhk58B3j2Nje5ORMlqfYryiwouNOpC1ZbPDtBsv/fpRw9DvWwwMC5GCGHn/vH4v2L82FU9lTHPQvV58KVZppu58S0q5qdvHuXWAwpE5Oevv83/cJMRwq2tz09ubsmWsNZlgph5yykxQgg7FOlJIUWef5itZHj5f3l9N3YA8iCiFch1kWWwzSWsDS9mh2Xzwio4QeaVrR+yjlHdoAIhsBEIj74f48f+1YI0gGKzHVqqEbHhxYyV1+cnv+2m6Ont+4BACFUIhHGOEOpzBSi4KLZoXnym+7Kytb8xPf7QOy4B7CwNRtrDqooFKLJYKi/zWUAghHwHwjjniza8mFICQDEdjOQE1+fmK4JACLm1p7Ep0vmiAiFAwe2r93nFaisQCCF68c4XVb8CFFzr3hYXARAIYVf6y2cj/eQCIUDBZQcS5Ny0HVBAIIQcV6VdHZEswHjd1CNbjAIUWixTRgGBEHKqfOJkvB/eCCFAkbVW4qTyGnBCEgiEkN+qtNzbF+mHX1lbFQgBiiyWGS4rq7YYBYEQcmno4qV4P7w0CFBwpUOHo/icKiwQCCGPoh4ebDADB6Dwuju7ovicjwVCEAghh6IeHgwm799zEwEKq7W5JZopo06lB4EQcliPRj08aAEhQMH1HDkWxed05gQIhJBHsQ8PTqlfAYotlgWE5ouCQAi5093ZFfXwYMP6fNFf3EeAwmptbollhPDXZ8/cLxAIIV/GBodj/wpm4AAUWSxpsMEWoyAQQt70nzkXyyr8LSrXxeUltxKgsP5WPhvLR7XGAQRCyJHW5pbYVw8GE3d+cCsBCqvnyLFQnUXxUQ0PgkAI+fLVyJU9jU2xf4vJBw6cACiu/niGBwVCEAghTzXomXOlSM7w3bpyNV8UoLC6O7siqsvmnj5xy0AghFzoaGtPYLJog/miAMUWV11mASEIhJALexqb0pgsGnxz97YbClBM5d6+iIYHV9ZWTRkFgRByIaTB2HcWzUw+uBfqVzcUoID2NDZdierYJMODIBBCLowNDkd0XtPWzBcFKKzoprpMP3roroFACHVW7u3rP3Muje+yuLxkf1GAwlZn0XVuGiEEgRDqX31+NXIlma/z+cRN9xSI1J7GpjQWctdFR1t7XJNFGzY6MS0gBIEQ6lx9ppQGV9ZWbScDxOtgW/vTv08PXRwQC3eQpWPcF23a8CAIhFDfNPjz19+m9I1CGrSdDBB7sBn67JJY+LYXLVRnMe6LNnn/F7cPBEKoj54jx0L1mVhrw3xRILFYODY43Nrc4oIkmQYbNrbFdgdBIIQ6KPf2fXf1y8TS4MTd24vLS24ukFLU6T9z7snfp5M5FkgalAZBIIT6C82LlNYNbhq9fs3NBZJU7u2b+f7HkHzCL67GpmzhQ7xR2XxREAihDkIUHIttE7btMDwIJK/U2RXK8CcbywvNI80WPsSbBlfWVo0QgkAINbWnsWnm+x+T7F0O1arhQaAgQhQc+uxSiIXfXf2ymAOG2YaisS98CGnQLmggEELtdGxsZZ7qEpTxWzcNDwJF03PkWMhF//c/HxdqhWH41ml0bk7c+cEzDHX0pz93/MVVoDj6z5xLcppoZmVtdf/xkn5WIAHdnV0/7fQ0oMXlpckH90LMSPWg83Bxhi5eKnV2JfBdws06cLzkgYc6etcloCD2NDZ9f/XLNKrPPzJ+66Y0CNDa3NJ/5lz4CWFjenZm8v4vySxRSykKZhySBHVnhJBCyGYTpX2usU5WICW7GSF8o5AJpx89nJqdiXHYMNRfoSLrL59NbEKsiS2QB0YISVy24D7Uo8l/08GxEbcb4I+EiiCrC7Jhw6lHD0MyzH84XP/YR98PfybZp2k7GcgDI4SkrNzbd2VwOO2Bwc069dTABXccSEbFRwjfKKSRkAmnZh/OPV0PhznZlKujrT18/dKhw+HPtKuwA8dLNkKDujNCSJpam1u+GrmS9orBlxs0hgcBdiDErVBTbFYWWT58vDC/srY2/WgmZJXaxJVQZ4UQ2LE/5MDD4Zci9GM2ODUXBEKoXu3eXz439Nml4nzl0evX1KkAFc6HL+qRUMD+urz0fD0rPgn/Ofd0PpvluPG/vMWM05D6wk/2r4Ts17A+Cnp4/ffCnJPxaiB02gQIhFBx5d6+oYuXshq3IKZnZ8Zv3XDrAapkM8gVYTl6zUw+uDc1O+M6gEAIFZPeTtzbsbK2+unwZXcfgLhY6QACIVRMa3PL2OBwMTtuTRYFIDpWD4JACBWLgkMXL5V7+4r59Scf3DNZFIC4rKytjl6/5jqAQAii4K4sLi+ZLApAdMZv3TQ8CAIhiIK7srK2emrggsN8AYhLiIKj16+6DiAQgii4K5fHRt5qr3MAyIML5raAQAii4C6NfnFt4u5t1wGAuITKy1ETkEPvuATkX0dbe9HOk9iiNjXZBoDorKytXnbUBAiEsDOTD+4dOF76dPjydLF7FsN1sJEMADEK9Zel7yAQwq5M3L39wfnTH54/XcxYOLcwLw0CEGkNPvngnusAAiFUwNTsTAFjYUiD4VvrWwUgOovLSyaLgkAIVYmFB46XirC9ijQIQLyckwQCIVRLdjh72rFQGgQgXoPOSQKBEGoWC8dv3UgsOGXLJqVBACKtxULV7DqAQAg1ioWDYyP7j5dGv7iWRoIK9ag92QCI1NzCvKWDIBBCrYX4NHr9ahYLQ0SM94uEcGtPUQDirY7NcAGBEOocC7OjC6OLheHDnxq4YI4NANIgIBDCrkzcvR1XLMy2kHFYEwDxCtWujWRAIITcxcJTAxdyfnRhtoWMShSAqNOgbk0QCCGPQv2U2xPtV9ZWs0WDJtgAEHUaLML5wCAQQsSyE+0/zNO0zGyaqEWDAEiDgEAINYqFpwYu5OFE+9EvrnV9/JFpogBIg4BACDW1eaJ9Xeqw8K9/eP706PWrbgQA0iAgEEKdY2EtT7QP/1b4F6fyvckNAGwt1JvSIMTuT3/u+IurAJk9jU395XP9Z86GX6r0T0zPzlweGzFHFGBr3Z1dP339reuQ8zRoc2xIgBFC+F3dNnr96v7jpcGxkYofXZh1o6o7AUhAtiOaGg0EQkgzFo7fulHZE+3DX7g/B3vYAMDuZSc5SYMgEELishPtdxkLp2dnuj7+aHBsxBmDACRg9ItrpwYuqNRAIIRixcIdnGif7SOqDxWANIQQaH9sEAihoDZPtN9OLNzcudQ+ogCkIVR/+9VrkKJ3XQJ4q1g4dX6mu7OrfOJkubfv9f+DjfWHN8cnbphLA0AaNnZcuzZ+64ZLAUly7ATsUGtzy9DFS5uxUBQEqCDHTuTE9OxMBbdYAwRCSDMWLi4/EwUBBMKUhErt8tiI/bEheaaMwq5kywVdBwBSMn7rxuj1azo6QSAEAKBAzBEFgRAAgCJGwdHr1+wjCgIhAACiIFAI/+t//5/3XAUAIFeer63+v//+79bmlvcam1yNqkbBC8OXR7+4Zo4oFJZdRgGA/MqOfu05cmyPZFhRE3dvj16XAwGBEACIQbm3r+fo+yEZuhS7ERLg5xM3v7l72w6igEAIAERmT2NTyISS4dsK8W/ywb3xiZtzC/OuBiAQAgDR20yGZpNunQMn7/8S/nQ1AIEQAEhQR1t7z9Fj3Z2HS51droYcCAiEAEAR7Wls6u7sKh06HP4MKbFoX396dmZq9uHk/XvmhQICIQBQdBvhsKu783AIh6lOK81C4PSjGacIAgIhAMCbtTa3hFjYsb895MN9zS3hP+NNgI8X5ueePpkLfxoJBARCAIC3taex6WBb+3oy3NsSImL4zxxOMV1ZWw2Rb3F5aXH52dzT9V8kQEAgBACoYkoMv5QOrW9O09F24L2NiaZVnXGapb6GjRMCQ/ALv0w/Wp/8aQooIBACAOQxMW7KouN2ZDFv0+OFeUfDAwIhAAAAdfOOSwAAACAQAgAAIBACAAAgEAIAACAQAgAAIBACAAAgEAIAACAQAgAAIBACAAAgEAIAACAQAgAAIBACAAAgEAIAACAQAgAAIBACAAAgEAIAACAQAgAAIBACAAAgEAIAACAQAgAAIBACAAAgEAIAACAQAgAAIBACAAAIhAAAAAiEAAAACIQAAAAIhAAAAAiEAAAACIQAAAAIhAAAAAiEAAAACIQAAAAIhAAAAAiEAAAACIQAAAAIhAAAAAiEAAAACIQAAAAIhAAAAAiEAAAACIQAAAAIhAAAAAiEAAAACIQAAAAIhAAAAAiEAAAAAiEAAAACIQAAAAIhAAAAAiEAAAACIQAAAAIhAAAAAiEAAAACIQAAAAIhAAAAAiEAAAACIQAAAAIhAAAAAiEAAAACIQAAAAIhAAAAAiEAAAACIQAAAAIhAAAAAiEAAAACIQAAAAIhAAAAAiEAAAACIQAAAAIhAACAQAgAAIBACAAAgEAIAACAQAgAAIBACAAAgEAIAACAQAgAAIBACAAAgEAIAACAQAgAAIBACAAAQN39fwEGAN5n71pXjpCaAAAAAElFTkSuQmCC;" parent="1" vertex="1">
          <mxGeometry x="457.03999999999996" y="394" width="65.93" height="30" as="geometry" />
        </mxCell>
        <mxCell id="_Gt7bBRQ5WeV5vQwa5ph-20" value="" style="shape=image;verticalLabelPosition=bottom;labelBackgroundColor=default;verticalAlign=top;aspect=fixed;imageAspect=0;image=data:image/png,iVBORw0KGgoAAAANSUhEUgAAAjoAAAIACAMAAAC8dzY5AAAABGdBTUEAALGPC/xhBQAAAAFzUkdCAK7OHOkAAALHUExURUdwTPz8/P////z8/Pz8/P7+/v////////////z8/Pz8/P////z8/P////39/f////z8/Pz8/P////////////////z8/Pz8/P////////////////z8/Pz8/Pz8/P////39/fz8/P////z8/P////39/f////////////z8/P////z8/P////39/f////39/f39/f////////z8/P39/fz8/Pz8/Pz8/P////z8/P////39/f////////7+/v////39/f////////////39/f////39/fz8/Pz8/Pz8/P39/fz8/Pz8/P////////////////////39/f39/f////////////39/f////////z8/P////////39/f39/f////39/f////39/f////////////////z8/Pz8/P////////////////////39/f39/f////////////7+/v////z8/P///1PB3lTB3v7//1bC3/z+/ljD3/r9/l7F4O/5/GfI4lXC3uT1+rrm8vf8/VzE4Nry+OL1+en3+2nJ4nPN5M3t9Zja6/j8/lvE4Nzy+H3Q5pDX6vL6/WvK46ff7vn9/tTv9+H0+avh72DG4XHM5P3+/3fO5crs9cPp87Lk8G/L48fr9GTH4ef2+qXf7mPH4arg78Lp89bw9/T7/bTk8YDS51fC32HG4XvQ5q/j8O75/PH6/ILS51rE39Du9obT6IjU6Ob2+oTT5+v4+1nD393z+XnP5XTN5Nfx97zn8qLd7YzW6cjr9a3i7/X7/W3K46Pe7Z/c7bfl8fv+/pLY6o7W6Zrb7Jzb7JbZ67/o87Xk8ZTZ63/R5l/F4JTY6uz4+77n8qHd7bjl8YvV6Z7c7PP7/cTq9M7t9mXI4XXN5WjJ4nbO5d/z+ZHX6svs9YrV6Or3+8bq9Kng7tLv9tjx94nU6IzV6ZzBoCcAAAB2dFJOUwDyCev6ogcBAv71FvYLkCPl9xogHQ3T3xA5NXDp+/0YlsI+/HmzW2lX0HLOBJ4TpahtSe6M2dbhf+dNvHwqiV65BnbwtkacxsjEk+/LD0A7Qi6DmSZkdK0SUeIwJ76xMYZjj0ssYETd+WZTHyXAhLBPM1WrzOPBbLv2AAAgAElEQVR42uxd+VdVxx0XCQqKLAoqIoooKriyVChuuDVqGz2Ke+NJQtRoU2Nt7Nz3Hj7WJwcUV1ZBRTYBWQR97BKkLgUk4BJF0VhrbKs9/SN6rJq4zJ3lrjj3fn5+c+f7nft5M991br9+OnTo+DDR323u7z18fDx2r3L+RF8NOTD1j4EBnztF2H3ru3nZnp277JxCPeeHjfpwF9veOSwgeP2eTY7gDXiN9tsVGbBtuv66pcECH3/v2SPGAyh+vTPCM3CY/Ye1z6z0t5viCBD4i+8Ej6n6mxdJm9DNyEV+CdeP5wW6fxAKDZ7s7ecFSGCzeNJQnQAC4TyHhDavMWaK08a+vdP3D1w+HNDAYem6sToNqOG+dhmghsOsYI+BfVOfoTt8B9ErBLx8N9rrZKCxIZfMcAQC4bJ8RZ9b7KEByxyE6gNCPIfojCDdcOa4AFGwjVjSh4zMkTtE8Ob/CFqtu+0kGDIhCIhHUMTuvrF/Bs50lUId/wE6M3Cm5EJbIBH2rO2v+kEV6iKVNpsm6+RAEsd/NJAQi5ZvUVObbeu9pNQm3FknCC/CQoDUWDZfpZ1+wNpZUuviOkF3tuBw2wXkgO0cFWzM6aGj5dBlqb7xwDDfBsiERd8oHCp0c3KUSZVBa3WivOfBzgQyYlCwglHZYRHbZVTFrr9OlrcwahOQF9u9v1aIONO85NXETz+03jqsXIHs+GiaAms+1Psj2RUJWqET5uewWSRQBNsjR8psHAe7KqLHRJ0zL7HgW6AUgjxlTFAMWLhIITUcFuqseYEhs4GC+GqjTGoMnBiioBrf6Lzp1++T3wFlMU6W5JaHwmrM05njvhQoDYcZblJrMdbOQWktNM+dIeOACnCcI6nJM9XfRgUlJmibOVMXA3Uw3EM6JXxmqaPDF5qmjjdQC2O8JSqDnz7NQSUVxodpmDnrgIpw+ZMUKmy1VU8Dm7maZU7gGKAq1otuVnHerKoCX43UKHPcbIHKsJkkqn3C3nOQygqEa7OAZ8FSoD6Wichrffqx+vKHapI6waAvwEaon2K/0LUPiD9+pQaZ4+MA+gbWbxAi/rBxfUP6EO2ZO0NGCF6t9Ji6psyG0ijJXK1t9OKvFR8ETI+3tlzu6bp+v7a2teP7rIQDdTlCHjNDj+jg0Z5ZfKk+9Xg59wp7K67W99573mAUnZmIpCx9H+wraj5jXXFPfayBexem7K6WOuqnBWqMOR6Ux5WxpCfbxMHR2Nz5sEpkcHkVjfBLRJSst5dklUVzCCR3ZtD9Fza5a4o59n40ixNlTSniMEjuSIgXUz3lSeymLwgWbKUltdU3cnjEFjbQPNVbU9QJoFiZK1nHOTIk95QIP7zCCbsm1kwROEHms9McKUzXmyhyKqs0xJwN5OV0xwqjOQoUpViFms+bRpGIPlFYFDDpzFWOCobrBcQP36mHdN5H6aVDHC2iO0oEHlqTsIL3/42QB1sSKjl6mArNpBP8WTsZCNI+peIiThBO51YLIg+ux2mNn4CHHu66IEwLLjWDcIoRmrl30I5sQaprOcEob7UKMXvQPU6T6YM57d3/EK4EZ0gjDPVM0ghznMcTLUdJPicKyecs9Nz57Ze8Yk91on5adZZIHbgjZNuni0ZaQiOIViPBxIlFdGEMfXhwNU8yejB15uFOb6NoFbhUshihpyaYM5TE0jH2clJgb0oBNXnCoTktD9o7lgpulkuiQnQi0bazQHevXjGng5MIhtYmWu6MgBTf7aC8gSDppkkqDfZ9RzLhVi3kPQliOjlHOQlRk0lbiLHkXTOHMuN2J8UkofwX/kMw5ayB7FNnEsE6pHCSwnA0ie7Ve73tsUynKyMtvdYorfy3SVIsX7JPneH4VXjGSY3yXspAT+QbxvIWqvqQ9tzbkosfS5DdDWeeOT74RTjFyYBDz+hcdd+fr7kOo4rmnEyVQ/pKfHbFYZgeDnzSyMmCijaqUqopr9ol/GnaNjLL5JGd68TP/TnrRjI2e2hJ5uRCcyINd1w+e1EdQmMgW3rjZJP939jZRzOejdiKXYEfOPlguElj8gwK6+dO09h8Kl9G0W/jzR3Gm0GxvkoeJyui2yhSW2NCh5P/uKBMXsnPYyWYyTRzBuMMhytFnMygO7WICxkvC7PQGpObK8uOnEglSK5342RwZLrSFBvU6cQdOVeP9pzNy3j+49O8lrSfKiG14fhTq+uK5Mw5vJ9ajPyatIdNv0hSZc26hY4jVpTipJjPMnVwd781IalwoaP73RPfYs2qraB9a48OSEsccyGleRx7sxsWpCxtOy3Ky1rMMHM24K4UvoX612U94BlVd7aMMtXYUSrllpNNteldPMcfHDaeeowoG8Ql0bcz/Mm1iRjdnyLW7Rmy3NKS13Gc6riQbOOJotlyDCdyMZ7SwU7+jfc+TpaN7FIHEw808v99k/HGbVRerUn5jSe+maLm/hJJMuoUv8GNWwQ7ZpkzENP69lfeNbtFlkWoPttsUHTjMbYRO1aGsjzCaHYJbw9ILWakLbN3pnyG0Zz3D3wkndzwOEpu9qSki2ROdT2xE95J0RGcyOeqG3DlI6NYpc5CtN5W3uTfQZr3WVVIbPVkZ4pijpU0CMVv4cNxgM98OooZyOytppiofg2fK/uA8pWaE0j7LBsTxNjHhIdj7A3q3e0yn7OAKbaezShz7NH1gUk8byJOQEeesZiUPPeFWst3CNvyHt0T0o56nudpZ9DDXBntjFiFVvsaz2o9E2bAFhN26sYK6xW1kp2KFWfNgh5fxWMq52N46MMmddB3FOTw5J33C72BgJQ8cWfoZzCmER1Wh9IsQo/DBJ5HPkUPY/STNTPQpiGPU2EV4TonkOUoymjbjKuJsuRxXTEiZOdxN/+LHraLTer8Cqn0dfhS1YvygSzX9hIdWnQNN02xJA+99USU6Bk8nWVo22w0k8xxR95oZIZfaWGKB+KQ1EpytOztpnhkNwkdY/PEhht5drYW9CgmK5RXCIkkt4qP+H53gqj4l9QPivqehIqF6aLlLhG0Df+BReqsQ6rM07RXIp46wNhGcrtTJdl1hA9ukVwyEC+B2AB+R0Y5utpoteZynznw5qVmabLbVSSnVj5Jg248QdH97RZppC6GP74YOciXReogv3CYCF+mu1KVRvxI8MpN9/AZgn0EQcYYiWRuPy4gGRHCYtoc2UaTBi9CN0tFHZB+jaAioxOT287Fb15FeZKJDOC3fVSgw1AM3t4+DKnwRUHZPio8ISjmq0eF8HI68Q+4/kBCiQ/D50BHEjzYo04gsjYOviWclJI6IKoQv/Fk899YbMFXWBx/KKnAAN6EfBk5hsHa9gD6eotDZmnfBEjEpyby+f7Td/CbVn2MxPIWCnDPGfwCuhO9qdMKpEZ6L9ZaaYRvdU8eYWM5NyQXF+48RCONnZnsUceXPnJaDKTH88fYStBc2DCsayWybAwekYLn4JAZDj/2qDMLtUTQmJ3hjgzUAaX38YWn70WWT+GqVg0pZjmEhd+LhwwiBLFHHZRvXgfvggDyoG0vraOFdcr3PZRH1LvQ2W4ixzDXjDUSpe1D6Ar9IBN1wBOstfz3ary1+mZNUYFMkjbAp0OOYe4L1nPpPYluuagDDv6EI0PqL429OV24H3eZZZMUWt5hQs63hDXqbENpCy9oLwDy4S7uaomi11ZvO842amyRUc5W6JSHUUO+YI0681HaQhNM+4CciMcdWtEvs6Hp5zG/e9wkp5i59PvxHNaog+rBOgi1Qi/KSh1wpQa3m7wobb2C63soOyarlPCinWuoIZGsUWceymyFu8jyUgdfml6eB45hOsoNPUZ5hSyFyliDGsLcJ4inIZSFXwLXBuTGSUycL+5GtoR1qcIAPctTUSPCWaPOLoSy52QrEBRr8GBM6UT5RYQeqybUXjeFNeqgPgkEv9e/Wv73AiwivtbG7W9QQMIe6NT/QowYwRp1hiOUhVYzXABKwNhjEMqcGosSAsJb+TIQI2xZo04IQlmoRXEaKAOhn2zrNCoiXgZ14e121qhji1AWmvw8rxB1gHWfAOLEnVVIuiTo9FmoIazd2u7Kr6oZHt1XijogM5aaOY0nlRIuKo76MtMNbDHHnjrHl6UYdUAM7VeBKxKVEy6W+mY4N7ao445QtUnh5Of7SP8nFXOS6xSUDdq7egI1wpkt6gxGGRvQ93NAwddD95Xa/TFKilZLXcrEWNXFWISqxYIuepUY54id9EqLooKlUKeGV7FFHTeEqvegbyheWeqAbkInvdasrFzwWibU5Qq72aKOM3UeIkZh6oADRFcgd+QoLFYudaidsSa+NdT/K7PS1EFcdU3oFcsCeHkyylBfyRZ1PkWoCjVR9wLl0YS9P65QeaFOUjcPa2jXgdb+FqlAHRCP/gSjIUsFmazUZQUe2rF1oDXmsWpQh+9Cw9d+TZ0KIiVShy4Yow7qnotWJZuwkPgbrg65SnmZMqGSoD5AzNiHIr6mDXpdVYE5WfiLMEoVF6qAuqeaMeccFdepV7Pm4s3yC4Ko4MV0paVqoK662KKdRASUOtmKM+d/7F33c1TXFRa2RYtDC2YCGGwDNhMDpngISYwZx0ASxYwdgj2BJAaHGcfYSYxTZveprCS00qotoFXv0qouEkhCDdiVIoOQogKsEBEqFNEEYuCPSAgpQO65+8599923uuj8vO/tLd+75TvfOeeUqmp6DaJ5nRpiM6xPjw+L5v6s1TEBJYLVCVPHJp8X3K5kdMaCWXJBZzkWOrmCZyg2XK0PK1Vswy4RG0FTmkmm1wlYjITOsNgJ6lMv91KsfgAdWhoo2QobUXKkNBh/1jmNqTcdkmj8hkUJUpsy6enRJt9DR6nxttBeM8bqDvozdCZIhpyAz5CUoFA22YGN3bstrm0R2GOydEm3lyEnTqQPq8SMtcLTBvM6lPPWHNmg8zHS/RkuDjktDFF8laGiWleMVW4HyQadvUjRhVuca5ophk8YvRNF/HtK7kLpCowEIvcLxf8IncetWlD7DmLz2AfKBp1pWK+joNNEBC2PcgLFN6GcEsRyE//9CvyAdKmZ1sN9rSAOTpyQibE00Xyd+2ke0TqPkBYmYqVeS2SDzlLKMZWh/govo2m7Ci/RdRiRQtQ7d7AJ26VLQ/kFxWVNHJy7IualjIaMfyWLp1X6zBUhvW/Brsk/kA06i+C+kvOAOEV80ZT9KOthIFjwSVr1KwFtrMYG00hXEIuScvsGWpHCyTyUyCu37d8/6kyiYKfVKL6Sst5JV656O5Yv1f/yG0HxlofcUuUaVfRPlmLHsl4TZYMOJcFOGnFW+vWek84mlcIKmiAjRvf4ZqyHT7p8cFT/JzGtlkPvOTmvOlQvg5L3K0VvoXsSssCIhPWwguDeEktcJuk8JT20wHKEr6JW55yChUQXGvz7TfJBZxXc2yoDBDvpIRjfJs1D2q5vQ4nFzimlLbfJB53dcG9HxPs/b2fhFBUUXYaiK40QSgTtWfiB9fJBZz7cW3L98Es6TkhaM1bHddKgo/IJLCnwmnzQ2QH3tpU4PBk6TohDBaHzhLMrF36kTcc8XzZsBN8H8kFnF9zbcqxzWKsVMGw/NBbonn5NdWLH5iX5oPNtrCdCPzrZFcLCD2ccMIJV7kF6P2dOkg86ARvB7haLTYNUU6r+Wv6o5cHXrH26OWv7kS6s70qInIDvwLwucU4G9bqzUFjkqk68J/JhEm69BBiDyNvnJhmhQ1EnRyIZU01GkVHE+yik1EWRhemkc7+OzCCzW0bobEBygjpVNSqHt50YX5c62jVrSCAjSCGTl8oInY+wX7Mue0BUnRY3eE2RYGYwWkGGY7wvI3QoYq9RdKpFVttfqO2aZINTqYTrUZedrGUqgx+YJSN0ZmGJHT1Kz1O4wJOqXnAR3u+addCb3kGmg5sQIKVNRVKmOtzOrZTAGZWp3s7Ar9ChvHYrsn7GMjmhA4edHyIO0Aj3ifDA203WbbV3+yr4uHNZkKgIvggGygkdSgDoESGyi+gUWFCqntM7ehW+onE/7jQh4/HflRM6S5C3c2U/53mgeL8LMB5JeO0a5s3uhCPzLK6REzpfwT22iyiJNQAjx8HrxMSZ3anBtna2nNChJPuvEOAAzYAXi2xkNmSYVVb4Jou7i7ybb5QTOQGT4aAIcg2NszxnIQ1mdMKx8e2WBPi4zZXI7EBmSAmSFDqUKxZ5YeaqbOe6UsTBmVV6ecrczyFFcNtkhc4K5HGQZ2avcr6JkG/BzCDPykdEn5kCU4+fywodijyZHJ3bx20O4mI4R8O0w/d8fqf74ANI0mKerNB5H+7zELrqE06jA7u8I5OZ3pgDh6LHc5MqFyOp0gXPyAodisa0Rd+1X4c1ouYIk9QQZWRh8ij4+zkB0to62EVAHKRGTlOQrvjgAoPTkmuKYz02V31injO/3NtitQ50PLQBq7XFW57vzEusd9k8scV9yfsf7nD1YLY4JZ9Tu0uQ6WMCpUXOC1vg6y5RaV7EZwYOwcEM+6oSUq6Gh+HS3yph4VfbmpPgW1b4CT4NJ1bPoFQbni8pq7N55fOUUcrWUe01aBZtSXxu6MQ90Q2/e858CUNp3t4wg8VFrC1LaHRUvbd6qLvKLN6abn5dcNkVp03B00d+Ne2RxW99+oJMuHlj9V8YHUztTLxxVL019e+VbQfMhpuSldBgby13xTHV7iMnWTzj46mZq9ZMlgM3y3fsfU6NO5oc3IK6gR+7MtB//3qWYvY/C7mW1FXm/StuA25nFU/O2PDrsQ+c2Z+8qG6YOg8T93VVIgZLbF61vTdyn9n/zZ19r9+arhJBvRqyAv/ko2+OZdxM2rxzsTbO3Zfu4qjLOnQ8fixg5glN2LAj0xnr47vIIQZvHFYrCZqwbdeYJQDnr8WszuTIOrDGZUR9j73qgnlMW0jbSOplGEDkaIjriDHdMiaXnl0/msrDP0mIHrZ4WoZ6s8zSWFj2zer6o6pvDmdQo/re7jFWunr5az/GOyjJeZIe+83p9IKb2SFmGa3oeInzCdkQOfDHixzXKZvWjJ3kF8+sXsdyFS2lUqfRd6tPxitmuS28st35PyL6GpJLBm3t0rHhFt3+vWfZCLARSGQa6unoapMdNY8stI2tdx/43smp4C4wje2zX/o/zTx72lQTo5FTbSW1V7nNT53ty7Z7yePRwDi6e1a87d/uhsDnTMxmM4+bb2PPHzblF3/0W+DMe3WKJjmWexwYvk1TDod3/DMPxtadWv3EvePA8E0FpWkb46Df+h1wpq9cqFliUDaODN8eec2j/MrP/OtwvG0BDy3fODJ8WjuHcf7DIv/RVOyeqb0/NS2DMePI8Gm5HTzK6W7a6h+q0Z9P0Bwz4hkdVsZhodKyS2yaNYgLVxpfq2/Sb17U2IvQ+jNXx/GAZA3PJWrNILZn2nZjkTN3i7YOWPK6wg2bACUmsjC3t9FhHyrJLBi4mH8q8a7LdiPjWNyJmoijyYdOP7RDyUcjak7EHcu4YXPdTTyVf3GgILNkyO5o7M0tjIwxbLGM6XZqvGy9OX+5ccB5KVATkZPm7BauAS097hgq6/EmujL6onlIz4OjT2S4bnkrRocctUWC++IevKwtA9Fao+paL39XyyEnNNFhgHY45KBJP6NkYdENPd15mpJBvfOhEchZs1ZDkz1DRwxZ5lNNelqrEV26YHdpWD73fCLcqT77VQ338IJs/UbycEptF3gAaQ7VFTrBYGS7MthUpN+xKLJEQw7DdTvEIudz5r0qLf+4PlLiuoT77S3pt4MpxRYPZ5j0tShwy8p8EONzq+JMrU5C6qoW9hwJOwWm6f7WW8wblZ0/77cvvuGxIIOMEMr86WzglhX2X4VWZ1Re9fkm/vdK93kba6snLBWkI5y0mlGSY/HmcgZN20hq/g2L2l1jOEd36ARfh/78yQxlEekd9irOAMruYS26HiREzDP9FbbWFffzlKKX1n7t9RBpsR7Dtiv6LYsYedd3pdrBU2ztPudha/fM13WPGJ38+vMsLcvJq+V1SlTauqvrI+AzOLgjlplEWCZ4EwJTrFs8LWf5SSGbyjvZFh6dQyd+F8TSquiCa5xQ46hwRbMonP9pCaFCoBMKJjel52YOjvWezeVDDBVlMiUqm6prKa2v3mRoUkQJjy29tLG1/rTvP8sDyUCPSYx5oP1HqfeNO88AFwG/285Uen3vG3oB54fTGJpzzM7jUzquUmqwH0zCVGISZWDyuRR1LsvkxC4OC3Qjy31rhk4C1OkMrk7bCJ8jjtpKI/3QCwotwqBjAYuYjKp8wygfqochiefCL/U4LX+xEd0QVxK3q4O6BfgGuFm4TOIMzFwYpjL8jhfZnuDEuyg+/gZv4Ex8Gb/iVHK8jKtj88Ay1GdMIs0ONaNSHY3Bz2WRfQcNnhkfcHZZLUOfFhu4sl3Nav6zBXTyRAuFzmlQfqGq1lo1V5owD9v6BVyTWc7DSgFjB1m/nPBm8o6j4pycDHGOyi2TWHOC92Y1GCbT4cxLUW49tvmBE7kh509IGvC2g62fSna7KyeC/KyKWmfnoPfeN4m2RqgpKuplxZEHoOLg6HVG+PRiiYkgXgeeJTgt4P5Uput4SGVPHOXA4jsAyQYNbHiEcOicgDjtEN/eEHKsufIgA0aNtYFpbBUHMo7il7/iwuYE4hyAXhaRet2I9xB9q1d8ZbEOboZebjWJtwrwysy4Xw3/58O8080iPgjrxx33JmzmEGSF83baGJzjMY5Tjyq0j7HtWAPsk6WHC30Yak452371yBWzM5ElFuBIC+qyteBTrcj5/WeY/6u5id6N3SedFlW0Rq6PMzKUV/BwrBHQMXn2MZ6Uq9UQW6GJjjo0eIZxBPN6jVlPvo/50nqwQvWQWi9hIFPJO9ZtNi6lxGSMDUEN6qc/R953C//vd2nlDVi1hnLuEqYHP9UiANuKSdAVhU2on1BAPr+SM3eaq2l/fhD6yOMtBkEnGjrzHaYy48B2TdTjJ3dg71xZXsyutYLdK7EL4SgPzcSd/bOGboDvSsGzghCPzLkCMMYuQ12vpT0FpPuABiuqHRn91Yu5a61iDfKb9x7ieIzyuyi1Tpp6hqxLVygeIC/0T4Mm46wWahStaEob8Yk2+IGcPNzG5S5ALDx72bAzV33Ug6Ufs3CWlvhAvgfreI6GPr0DfQZCpzgMv4keZDmw1ZShCJEmRBLUP7PsWYvUIycKseQoTeW+5XopyE8PlMgUmIy0Ubwz92/kB3wRiTnOSsTH6x5Q34eVeOzMVR/2YFWvqw3rUsWJA5FUUNRvHPR5Z4caCh1QuVMH1RcJLlV5vyJ8v3bEdb1WfYmcFVjkfKj6bnXoH8xd+1NV1xW2UzOmk3RqOh2T2olpO2lq2vQRp9qHaeOkvzRtmozt9DnttDP9xem0nWk7OfdcLly4vCpoBEQgPLSAgCAP71UBuWqIEfAZUfCRqKhotBL/iQoXEGSvvb69z94b9q9w9z57nXX2Xo9vfesIHpW6m8DmvKmWAOpaCCgd0dhEHQVUY9mRIBixlj1Z+KsYgTfxIzXNeQyOBH4MI9ZLc3A/uVZsJIkNvDFfC0g+n2lQn4jOibn9fRRpHBmETQf/Enwiv6hE1Q9jSfegdbCHlUBHhJUg/FTClLjyMudddTZSd7k4Np4r/vdChRX3F6NGzyH00lqxUqHYCuUiyChBH1MxvEIExoTHSM7CtJEZS3mXQoxhj9KS7xwAlae9HJzxieWw6qBg0jiY6+wYUxa5OByfFKQtcim6ldrIAlCdjALi6a6JOLnEWG5fte/ywS5MeWLox7UUJTR4BQ0DYoHM0RENkYtBK6LqW8ox98cCvfNIvKJ5bP9Yc0U8mAZuVyiPIJLmQ+qrFnViynMSrBR9DWPhWQUiu3ZAmYfa7VoSj/sggOJOuuk4cji79/JQ1oP1YzdaLw92a9MfUTHl5NyzZBv8vQDuC1aN0gH6vI8gmvNZ0C2HuNWv9eqKfAiEKJ+i3swdrWUTg0fE6I32ksErWjNmt6EOeljsW6f36UlwpBB5QwVgaPlXgIn8R2yqY8BjbXlbn2TzYgjKIJOoUh3qt4xde2UOY1rnVZ00/CXqRn04Orpf/H9HtI/Pi0h+ojIfM5V5lu6XsKc6A0QOTsY9/UH4qVkPnWIU0CNLXWnjA3wX2soGdYc/t5GYrBg7QAOUc5Q1AYH+JLbAaq4D7Zeh7tIRIII8mu8FGoQgZ1eGvKcL45wzejZj+ee208ofBFkeNtsMvCK22toDmek9R3h7OQ2qDvN+Kdec374JHex8ed5wTlBW4k3iiU/Nyvr1U3EkxcX6LrXhebgGxYJAEnDfP0srdmuX30hHeS3vpGOtaFdJVQfqaZXBVgT7JQkv6KgWu/7pM43VDxTj/NS73aFGxVtfp7aVZurLPzvzv6rUQF54mOEoe2v5kBO39CmJ5rwMvdPb3JNkjXgGBmFe7gasiJNKC2Wq1zh/mDBx+YYqZ5xfRP/KQgOS3Mh/69AFL0mi/xyqD97MPcZmMxXeFeJvtYqP8u9TMkc26bB/1ysFHO8kecz9OfZLCTB6ueqb2P+AWT5FN9KCqJe2cUfOmGdoEKVM05dRJlWA0aRyWWmS2fhHVYw5iso5OY1i7BNrV1vCjCzjBzjzH3ltayi86XrEuzrOPEJJnynNoSyZ81N/P23AMS+7HdIdJQpBnreonM15Rq7msNU5TKVTHmJUvUKoDlLnWSf39fJ2eeZGi9hbTU4q507Kmx5UWOJQSH8UK1zMlIMeq5AbyQYLOnaOMncwgOP+hJjH4Dkkqi5X3cJuz+QgrMvjqb9SgI/D+E2SKAwFGTV4aiJMrTTZ8r45BEVAg7laTPHBdeC0/qmwEeNS4NyVxwjOGS6XIyLzKUP5JiEHvxye/0pQ5rVR/NyhoIyTINgSc+kUmUcgj5ef4mdY/DeB6vwCWPqWNFRmnlGCALtMSLtT/hkjBkjwvgMd+HLsRWUAACAASURBVMfSKcMLJsR3s3/HsEA3yi8tAL/z7bma82mg0jNHijn72LjmUNTnJZIwWxrMGFzdFQo+TsE3SjZlmo3HF4m2JHuNSzRD+vWn8aHUFXOPnS/wyx6UAXSqesxrjhcXJ7LTE3TeczM8+bshEwMPBFDxsNowBbcI1VmQ6X9l4IACvj/JnLjgC7/nrSyZodNqh+iROOWPUlUnoX1wZrvOiOaEfDhynqAolXopKGG9lVY622V5CT4Ov/hz6ikIWXvCEks44I8Ix6N6NChMp8dUQ6H2zIDXbyiLSgpa4nfJl4XPeVDnQ3VZS5bxFpZEWa3RElMnOUWF344efuGhkKnRiZo7ZRTy6ozYbov1WJJqt6TUr5G9sj45m9/0L/x6e+nlBjxro0ntNZ6FY6shcwMOg/Yq6qQ1qV7oD3IMvDxLdXhU6VV6sXftaY4XVyIAKUDvzUyTfSQr0chguFZpXovUQHH6SXyWFeDVWVB2tgiijC6cuezZHPesfP9nQiYHLIGPlL6DsEWxZtLnDg+Tm9l07UX2v8/SFrJVzaEiyuIAASrsCrONo2Nwr2gVzrw9VuXak6VvKb+kkvg8QS7UarvGshQXNgwA/zBkdsDQsnxcZ9O32pVr97D2F7jmgeY8s0Lbqqzts6w5VB2oKCuATllhWHNCPnzs3DOvjrqjmYzwsjD3B/2Jv8pGA6nK6Wi37Q16LSjxE86mc8606uDRiWzY7M+3LtlB6ggc5X75Ndy/olge/TrP/kBfNJzwSbQZV51kn+nd1DiQLAkVLmd+uHaah4lFB3a4DgXOSp1h9oFfZP4KxAeMGugBOYJ3OZBshOpGwBWcbpgq51vJbpd4ef1lLlTHw5B89+D5qiyoDn5IHIPma3TC8NJNGAMsInqq+ch3uBWItgX+O040RxaNnPEwFeh02SEbA2ayTkDRyCY3oqViLlwdxvdQU+dwUHxDwHMV4fE5BU/3thXVwSnEkBKM9IQb0YZr9JzVdZOqw5Gyd4unz9vqSHWQRFYM7wl/yIrqtMLr51YuAM98ahSJbRGOSOxnqc4jn9G8r952tT0Kfjlz3IIn6/OtqE4bbvfxbWH9m85kW6Jn9qdAO//iZhcDMaMOu/ie52SdhseXRkJ2Bs7RXNbIzTXkTrTdMa37P2Un/5mbvd4lDkk4bvrmDvhtllTnaHDjVAFvZW6IK5bqmV+lGlqvY/4rLj5TNzrcnscAs9J24lN1WVId3E6XZARTozTsULTNWh7jFydU53lmbjFwttil5tA8oKlxXmGqG5ZUp1bhGRig2QdOZduvc/B9ZUJ1vstM3aDl+Rt2IvtNHToZviXVSVc4KsicYAo6VuZUtg06TtBrE6rDNS8Sk791O90e3U9Y1ZXdGbI1VJhZpFBTx91K83Vk+uYEZSk3tRCU3O52e16ZJBgSU1HjZmuqU6TwFNUSFFK649YWkaRGnGrDRCNzburrgdLUdo9VVQPVWPmVYOxXeYxBep4zrkVbo2O6PYpEBAvmMwkxPTLJsKCv1Mi815rq7PCMHDt+tmvRCqOCjcyPxnPny7mZhbVu21zvjwaX3DZnNAUag56RY6fLuWSFufwo86Nv3led1znnxg8YADMV9qRYRg4qTbPbmuqoEX1UU07WmHPJCoOkbcyPnrmvOm9wM8fmN4E1NXK3GEkyH7emOmpdQFrygkelDQ0hb8MW4NRhLyzhK7vsfIMktm9AaZoca6qjhusjoReNGa4lu1nHhR63ddZzMzcuiBs5Qgbv81pU5rlqTXWUejnkRhdILPn+EJIlFDA/egHxsIQseKWu9yfxZu+qzLPfmurkqzyGBG9WUO1YtPUaYK+nJzgEuZmFHDd+wvH+JIBiJfhHhTXVUckH5w6b8vKDj406wbLvTyQiHmemPr0Q9ic9LFRs9lxbmuNHzBw6Zrj9A0e6GA6K5ydU50mtSMgRt/uTko0Pqxw7lZZU54apQ0cxLh14dOpEqVKVWK8yU4uzPslcl9vLlue7VY6dIUuq02nq0FHBORsYW8Vhegbi+q0J1fkG94nE5t8RYFqaVCro8WVLqtNg7NBRjXLaCHqkM62IU9U0z3KTjwaGNgX+Mri6c4Vjx5Z3vt3YoWOdeAaIanPo6OcmVOd33OyXxPurc7e/o5ysFaydHkuqg7ucfSwDZlqPM9EO6n2Ln59QnT9oejdVzhC0Eb5zbhM+W6kVzVFwiwBg/SVXoj1RoBekSjXkW/Jj7s1FTSRtAgzgjoniIeXL82zqbAUqh51VKhE1YdeYY+HJyerPtdz8RJlXe4uj/R0y+urK5zmWDLHEO4J+xwk15lKU/55UnX9wC2yaXzxbEYJEz4Ntjep2C5qDc0ZmJs3OF2hQlUVcv49nJ1VnFStsgi/AdxO7Ogm9PNw8OGZBdXDo2/vYhE6cECoxWMX98PWppjQbuP+kgMHXrjjYXwIjM0rCFQkWWFLwgsY7IDVThwPJ7szTvC4fnyZs/zvr0KbNIxryKPj6cIox8wFlPJSMEsI5CAtmHNaFsayb5hJkg4Jks0TL5L7jI5wFCrsN/vI3GVedcvjEg2ko7fOk3NK++x90j2XRXt5NapXYiO0Nvge/P5goJVxoWHMOwUYtzthsnZ2J5GppY6/+9Q+Ik1drm+KhqO3aj1ZY2DGYE267YdWBoehFCmXLTXbletXXvvlXz2BrZ91z7z/kQjfiVnfYrSBs2PIKdxjVnL1h899BKFRvlYlyjDTXt7DVpzM7YvE3lsRDrrIaGVTxpH24/ehBk6QFOBmdGrrVJpouf0sAvO7yma1plmnHHcdv+rcsegHDKsLGPdrTBlVnAF71cMjObtQ1h87AZrFvc82sflh8axoZA16xPVaPQUtVCblZxjSnFN79Lspe9B375xLNAcAjv56lOk89wf5A1jW2w1q2jkhfUc9SC1sd5aaurBicvSJZdY4Xu030jOUFsRcXPza7+ecjgKpKuhzXWLJ3iMZVyQsUlTKezW8wpDp4tSZVs1wQIeg3knakWicJaA/zTs9vHuo4/E9gyQGJAKvs+FlEwuccyTpwDb49Iq1GNKcLPuf6KED9oBcucJg/PytrdH6V//0bDzc657t/ehmy5go3bMR3MqKUEUAe/jjUNGEC81WLHwwDkkuWqIrutxCcl8KVAKqinzysOXz6fDy4I8MLRC1QNBBGco3EfsbBF1538LqaRrxuj2xJM54jb9kXMMEBH33SqqRSwGZdOUd1AP+c4TVKyzGuOsXUCX//66kKnAX1ioL2HY5W4ItRgbFUTxui5MN0tVu2lM4zHSCJX/3oXNX5a5D9p+6R04bjn0QkeThDlkxIU7g5m4PpTjQfX4oMQo7J/IE2s4msOvl+L3pah86iJV9HjI9ReRDLLINigxT9eMgAECQ/GkBz2lU6OVBAj6lyvY6g/hs/TrwvD0gcA+ZYtkSgOpC1412Q9zeobza41bDYA58i22umaL5UDITsAm3N6VfhJ9jOwXII6L5BRpHu6/L9HEAYNn6wSDi+BH2ncmhtWpM5UC0Bq5nmie8knqFQ5RESxbo5TxWEZKSUc2mopl/GnI/eLfL9FCJh3bVizVn0pxXQ98OEYYsvmNosgW2ZZs+qiAWOC46/s0taiNIGJRac3Tw87a62uwx9IbeZDRUgtsbTPyRUZ9H/2bv2p6iuO37AKFrTKKkaraZOMmrSSaI1amNs0sRXZ9TomDFtmiYzrXY68Yd02qRT9rIu6y6PFV0MQURgWVx2XUR5LO/XoiKCCLoCigRF1ER84OOPaCZJR5Hz3fv9nnv2AeHzK8u953zv5zy+7y2oUahV4+vulzPbffzGwMZHBdOgXkcumj/2Wj6ZOSaa1nwVulI9lrRSxo8fNEgJ/3aqZYGUoHolPAMxhy3cgBqHWlM8JU2KAb1LVdo90OFJLJV/ldr43NdCe8F5jBHqAf83XRK2nHNqDrtu1I1/6kaQOuwlbXbRR8v+lgTq8CMUhrSHhfxQ3jvEdx2hhEPYLcSngwHJQ0zfQI83m2ZBdqqaPo04H/0KmDks6gVtq+ixjUezQQKwdAzpCg220SSb0nIKsG6JvH6yIlCHcrhBjqxUbXKsVffVGXGvWMT84YNo3HjU87azOzVSB8ivTcAcajqFbiTYUYAJdrf304tEggkYT4ioWbN5fDgy3Op5X0j71JyFfqnDVsVIOrO+U7V2aZkzYNR5opgYqPTuEbARxN6/VOl3RkkdFoHH7jiNHONO/rlmbBeXYj8ios2Ea+wz6XX/zGET1yEHhegWru/VEAEGhPE+mZ0EptqIOdQynGlQRGvJwCmxYthQrfDhadeAAn1XVIYNmOh9rGVzG1PDLyKQ40owIxzLXwsbCAeQrmRIOtmiWl5OauG5vKH3LHNeWluD6Ex2Qn6juuFWAv4Pq8Ve3HMB8YV0HqTy/8pKVeqwBdihncJkT98Q9Exk8G2fw2uIg5lNmq4IcbVVnY79rWda9zs6qw61a3kUpPjrh5/nQKKrXsQzmNiKqqjxELmTLpnCEBiPHZ0FU21EqRGKAQMiwAfR25NOnxkTDrBQqA3U+3LQV14pLhbJjdxLf7UWwxwWOQM7wGQbZnj6DgHXBN8/pXBsnqBd0BMW1LFDCjHPepHM5xm1BveONheKOF603X8Vw+Gz1ehdsQ41RMMZqpXnajGeDWCPl4IwYA4YHMffSYrUzaCqaL+M7MdtQifrLGJYrJiE1mfduJyUylYaeRIIalMGpIC6EkPOnBbIPZa+g3JOtxJuaV3YDLOKfdhn/nMCmjpsOX6op5CBdl+epFz2+IFRhhaKvHGxS4EFaDoFEuUy+NI0YdW7lmasK1fBR8f8diYjYBHB0G1DDtZ7Hl0NuIyvVj4Efn4sXG/KmZDzCqxo3cH/PU5PLTuJDpjNx9fymzqNwhw2YR1hi0zBjlc/gPyWhaSlCmsxob4pQ2FkZtD0D7RhxzR4bhgoRntwq/H3h3FvMxomf0qQ0EE02ZUKFNv520g3GDV/FuklCjLAhHk/Nie+DzRbLWEgNvciPhPa0Iafw4aPGRVT5hBklEyoV2NLULVC1SvEpQdabINW2pmrf0L3jm4/FlxAX7T6V0hLKSHWdoKlLWIWo+Pj1QQpxTbr8UPv7k0W8vr4OfDBMhwpIaQOeEf2F70FJBD5K3ZnueQlEEeflRNg5jD2YjRFTg02wvCVOmss+bzyV3we9E4rlvC7I9ty6DbEJGirbmmjCF6nu0HJAFryORPD69spktoxqKdMwXQY1Ld6FLqqXaUIfadA4phYLFEbRUW4l+YlEcfroIhjzvtMFCtI3Im5SStaZa67207Rr/zvHw9oZtvAA2yorhLBWM5fgZwWWcmHqUlkFZTUsZjnPmEsWNzJcXxJm0q3j8cHD9JpPgR3oOVXWR8S5pRni46nDnViXb3soRaXMtGaB7wyl2nBv2nciamvoaalnD785ErYaRYyxoN5GtUhoQ6U6KOeCtypfmLtPVhTTBW0vpWWYvTuz5k2rP0ZUWS3yFVrFHthGWKnV/PVxYEvvhsC5kBZzbp01eCfRIP/+MgMZ5NXR0Z1LW0CW15lWjFrA1FocVn0iSmerjKVDXu36out0NdytQSdOWDhRQVR3Z5/bTN+bxVsOXilks4bnY3YQ+j5xUwC3p9DlVt9mkCJR8VeWutv0SGcx7fDx7gDRm7XIP4ZqFxQFdNzuaJYgDe6/MtENXPJZiYFU5aRJWcRq4aed/JEbMxd4Wyk+kp5qTXaUAvF3noxKk4Gf9v+9rhY0dWkw9TgkxlTmCQsXEcXnlOwUF92Gp9132BeCtqUT7cHlzpg1hyu0uFDnTwUnycnU46PZNIQ+R+B0z7BJFEAqs0of3gnaFh1B5U5oNszHUdhea3Y9R13qIOP/iOTiajfCwgwzpEtjzq4IwfUa/Q3g8gc0KSDbXi51ytHaOYLyeTBL/uYScaCaAEZJjbLIk8JMqQNLFlxIzZ41EkTtCMjTOOko6rjEH3sWyKZdHw+NSaE5MGWvN8Hvq40aMwB3WlJ6LLkjdol5u0TyENZ8hELBOauExJkouO6BOp0ar5mGGqDxJwM0LGEq71e2+nbo9cqr263SKWRNc+ywODVbWKybG+UUBbddKX5HipsC2wJ6wnSkXUGGoB6BYWyXHeFUcJC290l0mZq9VYWOHwUISbNWOcxGaeWkt5UWqW2mkCTSmAaLgw3aUGJ3v472CQ791fny7kXevqF4kzWTGOBxJRfC0v0ilmOYJTr1e7++BwBQ27loSAwB7YPQPHIGZbGvq+MktQJXfFZsUpO495hAcaEbZNEhZrcK00+391c9qQ15x6KpX28r4JAHTAVlZNPGJfZv/92usxWkqYswZrnry1kgcfaN8UvkI2Sm0R7bU2DBalPfpP7ikhMsBxkFqPc9+UnGltr0vVypaFU5wpGRC57kQUFk+drEO2JAYNONpR8z6WsfsujNFhfyI6snG9VgobKLQWDaXajTj6uu+8IDjpi1UoWLGyN0CDdo4U2XWCQtOdBX2Fuw1E/fT0DrWWBTjR9bm5hX43tywBNvfjKNdEQ7Enj57IgYtq7mgR8vyNJF0BU5sHes8AGKscbdKHA8ULxcrHvzWJBxksRmmScUVCkhETKhvgAMif2WAhmZGrVUO3zjQVRLOiYNl+jnOubbaHgzg3r/V09sounJJbtum8t6Dob9Nl0dxzQcARv+NMEFhJ88aZWiWe6v9GFBmajKc9edPtsSu9gaVtjwalrRywN8Yfqy4/ubYc/xY69R8t7kuMbLAeuOQsSHFnuvktNdZ49u4360Ewi6axVS+u6p5f+mYUKG7dM0rzFW86YdGEGc7E3yZhdku9yua6brrtc+SXZxqRKg1kJq1EaB3LjtEh++/q5LJT45XsSLgiW1nTdGEhwpVRpa5X5/B+msRAjaus4KYa0LLsyRggkbG6LRhPD9i1TWBhg5vrnpdw0yxJqKsdogUCfVklHr5/GwgSfzJekp8RdGiOGOuzahByxdC4LI2x6RQ53isaIoQ59hgYJT121kYUXot55Q0a8gneMGAiI95Gd8Y+VLPywcvEczdSxjNECgywx6U5aszaKhSci523QSJ3SMVoMCQhI5yczVghdcdZ/wMIYM5drIw+/vsrFG/qfHm2SitzW8ph6/t/oqvmy2dNZmGPjW0s02Ab5eTC1MXGWwrTTPxm7j8Hu64z/kR18Pw2xjvhTv9nERgKmzxO2EdZy5ZT/fw/jAUdannl0s8Zr9zU2PG4m5vtTSf0Fn5s3mY0URC7+VIw6/AyqpqER4Ak+T9IoJI3iqms9GD/sJOIXqepAi/TpRZuj2EjCxJeF7Dz8dgGccOI71tKB46NGkTd6UtqOAD1idvE9Edgorpc2spGHzfPpTnV++A5UBi422eq44Mke0TtNka/tnt8MhlhuELOCCTf6y9/eZiMUn60nxhEmKiLqxFVL5/5z9u6RxZkSz9ms/gZMgmYF9wGqVT9Wv7Ypio1gTJ9NuvTwW7IUIWPlG5ylKXV5YX6KefPqfA7nTUKMIj+ry3+AdfSHX0SykY6otf/Cu9X5fSGIJZXKU52FvU3HTGFlCjK77Ff6HHctAtl1/O7VfvpFbJ+/YDobHXh2+X+RUjrHlZJV0Ea0s8GaMJhSY98dso3InL+n4pK7zWmp1xCVVa7Q7slvzWSjCBNXfPgURkrcUEFlX4xWJB66nxt8l7xilZPxxS24ogdDSxewUYbJs9WrHBzlrq90OdEcO0sCwQ5DUgADsn5EE0ntjFnKRh/++oyKZ/0AV0bnJH0BK+zHKN3XU5tpOVJ1y1nwdUKXozRr0O0+2dvX5/Ol/ACfr6+vt9U9mNXs6Er4usBprTqSuit5Z2IOnKCss8VJGjjfJdwI/fx3bDRi4trx/tT1QgFdggD4KxtSRZ/pBPlokFb0soq2p41joxSRLz8HyuiCmAUDHbwK5wvuFuzxmAwXHZBXt7CcaLJ4drRyh80A53xc2G6KQzysaol1rmkHi1roLkosisCt9OUCf/730cqcCaCZJ8cQwFuyH1fi92gWeR7Y2FPXXSZx2Hx78v/Iu/bnqqorfHgHKCXtKCh1gBJRiFAE28ECYlVaLdQ6SqetVka0xbZO7YxDe87NzYM8gZBEExIIeZEEyIvcBPK+5EHkEXkHEsSQNBAIEAvkj6hIUwLstfZe5+59bmff/fO556yz9nfPXo9vrQV+KF/WFTqfwB8FpoYGJe4B4Kx8G4KplWnouKTOUOpiPuMgdPkYXaHzPqihXpk0XPY6Ck87zCIP6tsNGzodMoUGqCggZecfukJnJTFZc13qLmyE0xO5xPEjkXBnu7YUqUJ/xnxIF3T5hHGaQgdu2s2exTIgdRcw3nw77U7t4I08TXJlTmEejPXg9ZM1hc4rNLJOlCl51cHYifP9FJEbiRpaTH5yAXj5Ej2R8wj4wjnMxp/NsrdhK9yRJWKj+G36YUe/WrbIbBfLkxNgLtbPiZT2dun7cAs2d3YJu9RlsL1dVCVdZHYQABxWtFpP6ITCOSZnPv4QK+juN07QVA7zwhnRWvkSH2c+CaweXqMndOYTM1iX5G+EicxhF/Sq/w3fQcWsv1paAjRYT+i8RsxOblawE8hpI9bMHUnCV+YoEHg3DaTjR2oJnVVEW1BJf+wmuLexW6CJRAMcC8y6oELecKZ5lgZe/6aOyJkI6yed5oGqSmZlcQcBxBcgxEA18jI/k5Xg5W/rCJ03YMvTTYt7+baQ5mEFvFQ9MpTzc0XiMmfDRYOXh+oInXXg6+5n7sUxRXuBZBEsL35IFlvOGjogk8kNyrlSR+ishcMt9q1WySQtnFScB5vIWftVScv26MDKnNk6Qmc9qJ2dTO3kqdoMzEtyIRmJzASpvA3B1Upjts/VETrPEPOSmcp2Azt43CAItiJ+fbE6WZNopIJXdITOc8Rge7y67cAig1HA8JrwVNsmkk+rnxYTNB/TDzmPwtrpZnYqUIgcM74NxkFiFZFoYV3ZqlDUKiIp9gX9oPMmrJ1mB8M6/12xSP1dcyQt+0XJutMXO3IBm/Mf6gedJUROSrVS6GDekjX48PmTFyOJ60Nfu2jh5Bf1g85CWDnM3MCXajcEM5UfJnD2I1M7VQuaTftjacjYWQ4bHo6loe9bN5B68uMPxCyRqV1XIxXLyWy20Ade/l39oDMGDtExt2SvauikIBMkY+4LKm3rg6+sOKBazkO0ErX1+kFnDfiy7A7/O1VvibkZaUXYOMz0DUM4ze5S5WIy+3NmgZdrSPb6CTHodVP5npilHiSL3sBhEynOltxbe5iQBS+foh904D4X7AKDfvWbYrYiblbiBr5brtxEhmPtYLnXT7VDziRYN+eYujngwK4gleOWteVuOLsXgRe19M/Wush8NEigH60ddCbDutnheB7inhnjRbCTesd32g6zCglVFL6sEiL79nXdoDMN1k0X7TCXm5FA3CzrRpiZGSVmSitch5kP3wRer10B6CKiCxHlDHTMgSIEO+0HLiPBnxJnJGTXRMCwfU836LwI6yaNRqGUvDZi/XGRb476mOWQH0hseDZLN+iEEsO6BU5BB7WDkXXbMWwTYxfalZ3D9FKTaarmOgYd84gd5LRsc0q8JubzYVqids2TZ8K6SaWVi8hf7XTk7LrgmHSZxD72T+sGnQWwbnL9wLm4b+VUU5FT0+ScdLFE5rZ2qfPZsG765PUVteuibyEOgMgz/Q2dw+D1z+sGnY9h3TD37YaT0EFZFc704JD31VmrG3TmErlM3Y5Cx4yNIiDntOl/6MC2jnaDIuDEucms4z7kLHTM0ghh5NSFOSoZ1UyeqRt03iFC55TD0DELRUdh921zVrAmYvOh+bpBZxTxwBp0GjrmcbHQYGKVw3LdIoYEtWu7PYJoJt92HDpmhghyhlHAHFrbiTks7aAzmuic1zsPHWDUuj+y5cNXEpEJt0Az5Iwz/49DgkMrrJuHHHeS81KxhyDEBgx05iG66fR3IuJ/6wRnSqir1Q9CtRJJlM9qBp2XTGL686o/oGPGJ6LQ6fCHTGxu9NGAgc5YRDfd/iVdDF/7cC8rIs8PMjGtd1dYwBxYIxHdnGTp5rI/kJPB88/dO50X6jSRRDk/gKDD1M2nfkBOj0DiM85xqQaJJMrVAQQdZo2aK8fpLQr7UiSu49rntFxMOlMLfL1ujSiDyHag00HbyNuCiYgvHBaM2VTaC1//gW4hwelU7zPT2Q2KTxVOf3Y4+0GsYclwEr5+uW7Q+Qv8rnn+qjkftvZTyF71kQ5KVkb99C0LoBwWm/Jf4iRyYq+QqF6V/3JOtH5qC5kfBFDmfICpHCfN0dLzRG5ywWbHZGN/kwvhH7yvG3QWIwaqv6l4JREWdRV95t9gMpKFnaMbdKYg2snyL6+92E4NX41TgeVkWqN/01ykG3ReQ7TT4s9MxIlrtoo/rRiHuO1Mz68R4bg+rht0liLaYUZUIpxhAFc1W3ZXsiNOegXr0dnID/6mG3R+R04AOGKJ9kdb9lf1UfUCbrCo9SLadfr/BfKy52gTNCSuwhrLl1Wgnm1aS+2yETJON+isJavniPqs1R6OgVyQlIVfEFWrWkZ2J8Gz8A9G6YYcrEkKENhJUx6n9fK6WVSZmUV+Npa7aeOwdOxgug779zfSukpLMnMSOchpLvvmqt28OPMptWVZTFssBsmE/Ew76PwR0w+zJsKl1ghtbeRgovxuf9kLBZzrsncrlPKARQ1caFfBZ7yHKaid2H3I97Wtg2cCdw81tq3q41wZpTA6yG5fipXGvqUddCZiCjrOVFCGwnRnNg857feCNvHlPPrX58oiPO3kTht/1Q46GOsC6LSYqgw5X3F98vu838hBbipdVQdltqV1ywygPIRhTMWOD+akuQhFBmj8KS6L9IGhRmGneb+oUFPb18Am12N8oXf1g84PTWoWy1KzHQd5npUV8TClYQcXbcfCHUubf5VCQAAACbtJREFUYy06Q17SDzrzMRWx/9VnFGxGeIabh4LzB1lnHPdnfQpCy5VkdvRU/ZBjLKM7Egrabsde5WYX0tkQqE3g8jAuSk9gxRB765jmUg2hMwfT0X6LSmiyl3nI55O6KqHJ0/27+P2+NsiVl53cc2OTV2ZqCJ1PUCWx425dko1OAYLFNXhO0QU+9T2rV6rAuRa5k8NCDaHzKKqkM2wap8x4Sc4R/ifHtQN1zer50DsksX4s1kXPC/9aQ+hg3QSh/kMyiRdNLQKs0cOcA6+Lf48KeWXpQCEzWqH2Ix2hswJ740h2RskrLZZzzM3f9Sv8ssFWgdvUSRoCkBJFdx6e0BE5yKDzO4t9FrgkOby9l0Wqq0TOmtIK/o0S8qWQY9lGstVjBpiDZRhP4bkBhc2QYssFgGP1iMX0BkTqRFsk+Ibh0TbczuVaQudPOO+KPTja4/v02LIegUPGajwrnHQ/JNIQo8NnczmOfedo9Iv2kZbQCRph48TC6vLF/rvnsoS6IVNGzewT6c4dle9bZmJbtJ1GG49oCR08iwU06rRifJt3/nW6WO/+MtJdb1aI3LTNJx5PMXDXhsCzkg3jx6iqIoG672YfTM7aq0LAidlHfcaFXKEbd9ovL94MkBjxzq6zNYXOR7aiGNY5u9rfLtgyZ1cp/d4nzgjd2tUda1N4yLLHTbLfagqdGbiyMiED1p72b3YKFlN57Rm0hQlCd3eftBVf2AsFHPHWPtM0hQ422OjOgvY6O56e5yzMFQSOx3YMZneL2BPc1+jg2QjlTHDS7YggXaGzGtdXEthFi7i7KRfTBYFjtfkwxDOyR/AhrtvEMA84FNCDE1lX6IocTlDQDAPLVkgeesMx8Yl6ySk++W9JFaLgqSwkwL8MJN0nmwFp6hjGxPH4m5eAqk8TjZFE9naKd8sp8pnBukF8VvGVI6JknirwJHQP4L98QVvoGM9wPjttoOJThfR+K5kywvO2BH5E2LlG4ed5BpNESCSx8Gnbjv/yHX2RY7zFy1IiX4hC3ibe6iI1PDkvqc9l7FXCQ4t6uFbPWdhza+Sk5FdrDJ3HeduP+UVeJL5WVthRROtvUi+NCxpe7KY8OLqnFjl9m8pFi8MY622NoRM0iueU4rZmK6vp7P7CY30xNNxYWVJb6/a30J6eUL83k2U1h1/3YoZaESdIMWGkxtDhuefAlJphdmJuV0nTEH5SGm7GdVUTvzZ3PTbJUwTCd3ioIiSUf1HSPwwL4Zvi0jiGGo9+uF5n5Bgfcr0LkTy3pyIx8UpFhGVzpStoBL+p0o4krvPZnd1pJ9NuVKbzDz3uSMs5WkOHe2IhDrqkFZGhpB45LC5KrdwJvN6K35mkNXT4J5Z5SO0O1CnrhrPhlFLBuVS0Z/VGjvEGP5QarVD/6dQSi1WkjGuBOskHuU9fpDl0eCnQO3E9jyr1R+WfICLn49+HTqeYy/kJqjDPbXEWHKQ7dJ7kb0CrGu3HnCb7VfNfMowlE0inVnKMCtk/3cR98nLdkWPMCOHrv0eF9rvJ1IfxT34r8R/+SfpVZrV82V0CVNV3tYcO2rZ9yFuRbyqX06tbvjfk7M74Fe2Hl1pkSy8wq3ap/sgxZonQNyX/cyttRHKC7zHuRo4hOuq96VLFLxZ45pIAgI4xV4Q7Uedn4Jivzhguc2gI7dfhrYny5N8h8MCpQYEAnXVCupd2ZnltkNa/MZDHPhAGf46am/hK0pfHJdQPPjQQkGPMWyz00d8jQ+/uNFuDi0Menp85eQo5sVWyRcIbRAh17Bk1KSCgYzwtpvqSGl/VnrXHXs+JJ2YxpJ60gH6j2nJfX6FIzLxfFhjIMcYGC5KMffNUWlptzpT+5ffZci8cTb9XZnKjT6etWChqxGMBAh1joaDeT2TYDiwnJNsudfhgHshUC7Zxu7L8NrsvUbNXkAv/90BBjjHvz8LszU47Ko+pPmu70mEERl2YuMbWPUtP2vr01A0I3n/U6wEDHV4J8X3xNaqt6WrO96Hr/tzf4KSR50Ns3Ta+xOumnreXhO8eagTQepUQX7tOsDU95Rd9mtawciw3ohls89ZVcV7C8Zv7tXjd1uKxgQSdadNJtmaPEIs0/fR13yryVonwwieusH3/+N6Oy0I2zrWDlNs+ZQTUmklTek7tf3YL7wjbmvtn7lB8OYynMFFOZ9fKoGQl6onT+JNP39PzpO2xjx1ZKYfB15LkQO+4c2sd5srligebbjX3nyyjGLDYED2WH2hGmVU7D03Z2olt78PMHTNekuoVFtsRlnTwn/uPG9xuO9S87PqZixd7zlyfcePOig5q3QdjVkiC45kUKLewtr27ecq5g5v2PNy7d8+mpz3L9q8ga5+GHcOIAwZlgwkokLiHKdlykDjcjGnkJR0JgcGTcMzTSHZ+xOBI+rJSDCMQuHIOkoTDqSBKjvuLmAeB24MYRiRIGBwpRzyATPdz5w+42z10RmbS4bAeBAlHmY+C9QpZMgPreGMRhhEK9KIGPOVoF1LkAwndAa1pjRhGLIhmHNiEwyVN8brMgPTRhs6AACPZgUw5xdQo75ksMgbI+QbsIznpMIQO4IhIAJX8kOMwME1kJoaRDZwGKOEwSlOxc6JRSn8PpHMzjHSgMhAJRzmYugHPZMFDZx9EZTOMAhv6pxxV6k8ZitB3dFmAfzThAIGhHH0TTgltbuX196CfFyxtR5MNpKlAzz6KWRbNOiaRpvRq54yWOTDgR7fpoHQ1Wu6w1cmky5yupvxokoGDbG36JJxEWs/5MGnRfm7CwXc0wSAHOSvtE46YGj329DM50bgINeEYTS6oQM2ZxiNoBfQafOXVomG1xWM/mlQwKy1FGo7jFPvT0ytsmbSa2dKMGU0oWACHujdtwpsxSZjuftGgRVed08RxNJlgB9z6NAhv7cyBOUFE0oDac7tmSqNJBE94e1J5WYXbAC7eFQqiZqNH0Ga0yMEPrMSoFthy1vYDfGQRh5ULlYbKOQ1GhwEJAvYCd+q0KFUGxfJLERUzKnjGOn40YRAFlPIpbSZoq+QMHu/EJ1FWcXHG+Y+mCaKBvIo42SGd4WA42Ap3Dv8kc/Kba6NznSTWW/585ORVMwWrQbp6rtDCnYzDeTxCRUfTAhmpRzLIg4TQVtZU0BjcS+ckNIJJmlz3UQkZTQXkh3akiSLhCz5kzQy0lIbGWl3uIi8PYpYUyhiEji4EpBjoBKoFFYth3XgjZ57LaqFhO8Q2QXIEppq4iOPstjN68tmPTjhQE4japmlkhgWZmCTxedlZOKmrpQXKD+WNs0y2rqEWbuGxmuICzN6MxgLpYorFChap/qOrcUbB8AYAJ7w9KMvM28IAAAAASUVORK5CYII=;" parent="1" vertex="1">
          <mxGeometry x="467.73" y="150" width="44.53" height="40" as="geometry" />
        </mxCell>
        <mxCell id="_Gt7bBRQ5WeV5vQwa5ph-22" value=":8080" style="text;html=1;align=center;verticalAlign=middle;whiteSpace=wrap;rounded=0;fillColor=#E6E6E6;" parent="1" vertex="1">
          <mxGeometry x="680" y="40" width="40" height="17.25" as="geometry" />
        </mxCell>
        <mxCell id="_Gt7bBRQ5WeV5vQwa5ph-23" value="Port number" style="text;html=1;align=center;verticalAlign=middle;whiteSpace=wrap;rounded=0;" parent="1" vertex="1">
          <mxGeometry x="730" y="33.63" width="90" height="30" as="geometry" />
        </mxCell>
        <mxCell id="er37VX0HFplQ5w4zfamw-3" value="simulation-project-simulator&lt;div&gt;&lt;br&gt;&lt;/div&gt;&lt;div&gt;Simulation code&lt;/div&gt;" style="rounded=0;whiteSpace=wrap;html=1;spacingTop=40;fillColor=#d5e8d4;strokeColor=#82b366;" vertex="1" parent="1">
          <mxGeometry x="730" y="377" width="200" height="120" as="geometry" />
        </mxCell>
        <mxCell id="er37VX0HFplQ5w4zfamw-7" value="" style="shape=image;verticalLabelPosition=bottom;labelBackgroundColor=default;verticalAlign=top;aspect=fixed;imageAspect=0;image=data:image/png,iVBORw0KGgoAAAANSUhEUgAAAQ0AAAFGCAYAAABwjcqnAAAACXBIWXMAACO/AAAjvwGm+t7LAAAAGXRFWHRTb2Z0d2FyZQB3d3cuaW5rc2NhcGUub3Jnm+48GgAAIABJREFUeJztvXmcHEd5N/59enpmL2ktZFkgXzHEBLwyBCxCwNhgxweXbU4ZYo7wIcE2JCQB2wmQD8jiCL6weSEvBMj7I+EIxCLJCwEDxkayLckmr22OWOKwOXxpZcsW1nq1u7Mz3c/vj5nuqa6uqj6mZ6Znt76fjzTVVdVPfbv2eb5dXdUHMTMshh/nXnPr2GPN2SPJ53XEfBgxr/LhPIHAT2DgCWB+AhirQPQEgF1mngRQAZgAWgUAYL/KoBVtkz7AByC4B4MPAlgEgwl4jIEZgGeYMcPgGQfODBMfIPiP+Uz7CLzXB+8BVu3duumUhX73iUVvQFY0hgNnXH7DIS7T77HjP51ATwH4SPg43AeOIvDhAA4FgFaQcycJANLfmDlSGmZKtcIqrMhrbckVWNFcWGc/gGlmnibCNIAHwHwP+XyPX/V+sXXTxr0JXWBREljRKBlO/+iNh45UcAIYz4Dj/x6DnsY+ng7gSa0aLP1EohhxwYhstTd7JxhR85m4zoLpbpB/Dxj3AHQ3+fRD1FbdtXXTKU1YlAZWNAaIc6+5dWyuMfc8OHQiAycw8wYwfqdV2nUQphMMsCJLsiMJRtiyYkTRA67zIPoRgJsd+N95/OH9O27/zPkNWAwMVjT6iHO3bKnM/Wb1iUx0GnycCsIfAhjJFITtZDwIW4miBENgkF8wesN1BoxvEehLzsih19tRSP9hRaPHOHXzttEVE/4ZTPRKZpwD8JpyBCFSXJbIgtFuJS9XgVsRXJnxkEP0zw3iT+788MYH4ztZ9AJWNHqEs67adjyIzwfjTQBWRQbj8txApiCM55mCsGUrp2AMD9dFML7q+HzZTZe/7qdxAxZFwopGgSCAzrrqprOY8B7AP7FfQRjJ7eVKSfm5NsH4PLN/6fbLX78HFj2BFY2CcNbVW88BnE1gPiF1EEYqyEEoFLK0T5iXEISKvD4srZaB60EAmw//pXP1tddu9GBRKKxodImzr/n+EczOJ8F4VSsnfxACijN36iCMtdhTweg/106dDFx/7Pj01puveN2dsimL/HAGTWCYcfY12/6CfefnHcFAYhAqKnRKehmEUAXhMHE1C4aG6+/7Du886W+/emH8CCzywo40cuDca24dW+D6Z33GGyMF5V+ujLYbibOycIViMrQIrv4X6+OTF96+6ay5WIMWmWBFIyPOumz7E6jmfRfMf2Ae6suO3XbtvEEYFi+/pdXiuNJtzcriWT/4+zc/Gm/YIi3s5UkGvOyTP5ikmvedVIIhId/qg1zdvFyZOwh7zVXVjupc1XOu/LxKs3rLye/54tGK1i1SwopGSpy7ZUul0lz4TzA/1+zYiG0UuVypbCBiK5qZi6uina64Fra0WgjX4zy/svWF7/rSOljkghWNlFh4YO0H4fMfJTs2Z3TsWBF0QdgpVp3D8wShhqvEozuuqt0GzvUpTbdy/Ynv3rJaUdsiAXZOIwXOvmrbKSC6kcGCyOZ3bEBxNmRpnzBPFYQsVUkKwk6d0nFF9gfmCuR68+LMwdPtA3DZYEcaCdi8GQ4c+lhUMJAoGOqxdTur10GoabAQrqpWVMkeCUbBXF9YnVxxWdyShQlWNBJw++RNf8LMJ0Rz484vOzbHqsnD514EoSqrYK6s45pnabXPXGU7rR3f9fyLv/hqRSULDaxoGEAAsY+Lo7kdR2ZpW6iR1bEPAJBeh5dvubIPXOPt9oprvEZGrmoDElcC6NN/+L4vHBonaaGCFQ0DXn71TacAPNXJSePY6uG04Ng+wDeA+M89B7+3UK+Ofec9Z676znvOHGtyZQ2RczITrmTgN53dVZEuN7wEl1YjzefhKo+IFELVwlpn0blSwdRCATsRasDZH9v6BQa9qbUlO3Y0r7UlV5Ad27+B2Pmb695z+g+T2j518za3Wlv4U/JxKSh41V9gSw7MXqw+pA9CYagv0+oTV6GQpX3ScgXYYZy082Nv3AkLI6xoaHDuli2VufsO2wtgTQGO7RHz3133njMuz8rjJZu/u5qr/DUApyqH+qUJwliLPeUaNV8QV8INt131pjNgYYS9PNFg7v5D/xDAGgBdOTaAhu/QK/MIBgB8Z9OL9x/SePwlDHy1iIfQErgqjSybB+YYp//hu790crw1CxFWNHTwnZbzdLkESMBfffeS077ZDZVrN21cdFfyW0D4gdjugJcrhUQKwdBwjViUuEqmw42ecnX4ElgYYUVDB8KGeHRldWz+6nV/e/qni6Bz3TtfWvfYew2A2Y79eLv5uUqFrAvCPCsl+oxQ5lhRIy9XoSArV/L5pc+xt5gbYUVDCz4hemLO7NiLfoXfVySjG//urAeJ+WMDWa5sF+iCUDIWyZPHA8lc1SOkPj3c51Yc/83xQosAVjQUeM5n76iCcQyQ37EZ/r989+Izf100t9Fa82MMPB5pVxWEkbjKE4TyKEMhVOKW8kSf8yG0gXOl1yhqWLRhRUOBJ809dhSAitGxES8UHZsJW3rB7et/c87jAH0nbDdNECJeWOoH5gbNlf0TTnz3/7EPs2lgRUMBalaOTnRsyWmjvkmPHzJ/4Kae8SP+r0xBqAowSHnhT1IQKvZO9cDcUHGteH7lNAUBC1jRUMIHr22lcjv23ddu2rjYK34e+buSglA9BGlnyfwzBSFLVeKjg3gQyuf3IeBK9Nw4GwvAioYSRFjVlWODp3tGDoDfcKRvesS5SjETbvR9aVV1yVEKrqqsyD7HxXawAGBFQwlmHNKVY/s42EN6qE24jwsMNMPwWE4fHkJTZES0tkxc9WLGAAhsRUMDKxpK8HhkK/wvkqN3bMLaHpJDc8F7kjzg7zSvHiH1abkyakgWjF5zVbWj1Jg0XOloIpBi72UPKxoqMNxOMo9j+4f3lB/xERKddjIPV3l8rzgDi1u5glDDVdFOV1wLe2AOALP7zIu/GDl5WLRgRUMBJlSBNI4dK2on6Klnf+T7RyhqFQJifpF86i3NcqUyCDVcJR7dcVXt1h3XkTlvpYLRsocVDRUYlS6XAGmx0nx5z/j5/jlpgjAKLdf0QVjqpVWWqsRFNCtXb8RboSC37GFFQwm/9aPw57RLgA77byMUf038Rx/61gaANkQa65JrcUEon99Z4pWBq6oVVTIt11hWMteqV7FzGgpY0dBB4exZHJtBzznjsu+8tmhaDvgyhGJUzuXKcFvilYkr67j28V2kFkpY0UhEBscWChgAMV116uZvrimKyekf+tYbwTg9wiRvEEpcVQZ1QZjqgTn5SiYzVxUG9S5SCxFWNIzI6NhtbxOqHz1Sdf/z3M1bat0yOeND33g2mD/TMa0e+pdjuVI2k4erPMoY1LtILWRY0dAin2PLNhg4aaa68htnXH7DIXmZnPmhb7yA2fkOgPHQatFcC12uFJPDzNVCBSsaBhS1XMnAi8lv7njxh74lTGAm4zmfvaN62oe+9dc+O98HWjeMDcty5VLhahGHm1zFQva4XMuVPq9nx/l/L/7wt78C9q/+7vtffoeutRdfdf2EP998xSr4HwDjaR07aRw7D1eWqihHTKZmkC8Iy8FVPQSx0MGKhgY9Wq4kJpwHovPO+PB194H4BjDdx8BeB/4o+ziCCccBdBrAY2kdu4zLlWXjGrEocZVMhxt1mbwFACsaSrAfpqL5hTh2mHU0mN4KAAQGs3hXR3rHLu1yZV6usp0MXLVDjA6DWB0jV3uXhhJ2TkOLXjm2PuhyOfagucZrZOSqNqDjqubVypMlPpmreoSknHOxCGFFQwm/k8zt2AqzS+5JULn5PFzlEZFCqKK0cnBVNZ+Bq0UEVjRM6Mqx42fHXI6taGc4lisNZ20N/9gR9PqBuTRcLWKwoqFDasdW7VagY0sNDe9yJUs/Obj2+4E5CyWsaBhglyuTuaqHIO0smX/Pucoy2AVXCy2saGhglyvVdWSukulwo+9cYx3WJVcG7KKrGlY0kiA4VDbHVmUV79hFLa1qhxgdBrE6XXEVCgrhGtHaXnG1AKxopMSQLFcmcFXzauXJ44FkruoR0nAurabpV4sAVjRMkB27k6ndbOXZ5cpScVW0k5qrRQxWNHRIceazy5VDwlXikZqrhRJWNFTwgbhjR6v02rFVrXV+koJQsXe/lyuXBFcLFaxoKNG6IzTqbxH3VJyu7HLlUHJVtWIFwwgrGhpkduxYVryO7NiS6XBj6JcrC+OqyiqYK+u4WuXQwYqGAtGHXJMdWzvECFOyY8dMI5NjCwVZg1DJNXJiLhNXvUAUx1UFu+BqghUNHeLep3Vs+Rwbc+yYafVwekkuV8pcVe0oNaZfXOVRhpWLJNj3aSjgoXoZOQufTqyYcMMgCf9H8zUvaiCFUcM7HRaMBaod078ggtD8pA9+WTS3gCAcphUoe0OoElY0FLjhvac9CuDRQfMYJE5631dnwRQLsGF6YI5VCsPSPim5WnRgL08s9DBGUJ4gZKlKfHSgvrzRC0a8QvFcLaKwomGhhh/PGtQDcybB0MV3UVwt4rCiYZGApHkMdeRlEwxVlmKOIlEwMnCV7Si4WqhhRcPCgDQTn/F9sgrGQB7uYzNXCz2saFgYkXWlJDaJadgMGjBPfMYmNTCwB+YsAFjRsDBg2SytpnlgziJEKZdcz92ypTLzwGFPdhveUT45Rznwj/EJ42AaB/NIq5bhT+vHEu2kL+fGd0s8xfihAVbkqdGq6RtM+xqu0TzZYtKZ3Fen5KYiidDIc2IkUwdhGq5D9HCfDnsvuQTEx6arnBfEIP8xAAfBzl6w9wtU3J/jsCv29rZdPUohGi++6vq1VdTOZPDzwTgBdOgzK+yPMxEI3HnoNPxjyo4gJHTOQozWZ4nE6ixVSXLsWDOtlPCho7yOTZEiBVeKcs2/XEmRPajTXLRm2n5VBmFRXI0V+sTVBD4HwEkZdsgB8W/GADmA7wMPXfwQwDcCuBEV/9tYc810b3l0MDDReMU12471PbyRwS+vonoCg1uXSlQWZxns05WZucayho9rxKLEVTIdbvT6gbkS44kAnQfgPHiVJh66+NsA/xOeeP+3gGu9XjbcV9E4dfO20fEVeCMR3gLGiSCmmCOUxFkG+XRl6bnKdjJw1Q4xOgxidQbGdWjALoCzwTgbe4/8GXDRB/Ckq7/Wq4Pqi2ic+6ltK+bn8acTK3AJgCPCP1rkZFciZ+nL05V95BqvkZGr2oCOq5pXK0+W+GSuccHrC9ehgHjsYfrpgH8t9v7VbeB3vRXrrvlp0a32dPXk3C1bKudcc9M75ufxGwY+DuCIVklZnEVBugyOrWqnG66R5vNwZam6QqiitHJwVTU/IK5DAaVgCPn0PBDfib1/fRFAhX7Kumei8fKP3fzC+QfW3sk+/28GDu2UpHQWxAuLd5b4GSeXYxfNdaktV3azUtJvrkOBoPNYOCbu5AdpxiiYr8L0X27B9AXjRbVe+OXJcz57R3Xd7ON/5xC9Hz47uZ1FcoThfbqy3FyVJMOfHFxzr0CVgGvpIR4jq/Mj/RKKyGuAkaPx8F+fjbUff6hbFoWONM752Lanr3t89r8B2gSWBQMDdBaWqsTPYkuZq6JCp0Tm33Ousgx2wVXVSm6uZYfQL+bRRbuco/sBfwDP+x4e/Ath1J8PhYnGWR/fdjoT3QrCswbnLFIyrWPHsoaPa8SixFUyHW4s3RWopSQYggCoxUAo1+R3BOUZIFyPX11wSDeMChGNs6/ZdiH59G0Aq4BBOssQLFd2wVWhxDKDWJ2uuAoF2bnq+7F0XEsL8XhVYiCkY4IipMNNBoATMFq7Fji3kpdV16Jx9tU3vRtMn0YwPzJMzjKI5coErmperbxobhquccHLxJWHmKuqnWHSC1EMUl2OSPsFaVbt55+J6TWX5mXWlWicdfW2vwbwsTBjmJzFLleWi6uinZ6vQJUSQoBnm+yMp2PHHOmzv8OeC8/IwzC3aJxz9c0XEOiaDokhcha7XFk+rhKPnq9AlRJCX+Sb7BTKFflhOQMMAtPncd87npCVZS7ROOuam05m8Cc6fIbIWexy5TLgylKVsguGIADdT3ZG7cnpaEcdAZevyMo2s2icc9XNTybGfwCotdoeJmexy5VDyVXViio5tIIRJFVi0E5zUG4QA62gtPdVCQrzn+KBtz83C+NMonHu5t01Jv4PAGuCRofHWYZpuVLBNdZhZeGqyiqYK+u4DvtKSRALLHBVCINJDCLlOkFh9X4tEOB/PMut5plEY37lvktb92G0mx0mZzFwDWWOFTXychUKCuEa0doycdX/zYvjqsIwP4QmBHUvJzsjnWcUlOfjgT97VVr2qUXj7I/f9HwAf9Phk8JZ4jUG4yxlWNUZJq6qdpQa0y+uLFVX+F6UVokhdFDvJzsVtoOkLCj0/rSjjVSicermbS58fBZAJWgwlbNE/tYDcha7XJmd6zCvQCn7vgwQgre/k51xG2qxehYe/FPpM5xqpBKNFSudCwAc37JdUmeJM0jJlYefq8RjmFagolxZ+imAaykgHocqkNtpDsoNYqAVlPa+JkGJjS6ktI/3pDmaRNF41ce3rQL40qDRopwligKcJXEJcJi4xprpI1eWqsRFdHi4lgFiwGrEIOyvBEHRiQFk2wobSrGSBAU4Cff+2bOTjihRNDymSwCsyeMsigqdEtmBBuzY5eIq2emGq6oVVTIt11hWWbkOGrGAFPKldOR48gqKwYZWrIKkkHb8C7SHFFQxFb7iih0rmfEOk7Ooybe2Y8caBFW/HTvmsWXhqsoqmCvruA7Bw32ynQxcBwtBDEo12SnzUwkKvQEPvXnCdHRG0WC3cQGAVfG/o/RHizmL4lj75SwqriwWlYmrPuiK46rCkDzcx2aual6DhBC85ZzslPgpbaxAo/pK5eG1oRWNUzdvc5nor0qxBJjWWcrAVdWOUmMGt1zZM66RporhaiJXKr2IcNcGZDtuE8RAKyjtfU2Ckji6EPkpbLTK36A9TBhEY+VKvAQ+H2l2FsUxDcpZlv1y5TBxVe2n5topVkldWVRDDNiEgNSJQaRcJyis3i9MqvIlQYHBRtA++2dg71sPix9nC1rR8JnelOwsUYGwy5Wq3SxXLcnwJwfXUgwz5IAU86V0RDDyCorBRpbJTlXbEUGBi0XvxdBAKRov++S3JwE+W0W6dM5ilytLw1VRoVMi8y+U6wARBly4EU3HAlIhBlrBaItBWK4RA6VvCGJmEhRd24SXKo4WgEY0qDH2agBjsfbFjFI4i12u7DfXiEWJa8z/gr9pT7n2Dn610jTX4KpWDMIfjRiE/acQmiBtEoNAUFT7iYIR20/HL9b2i3WvBFSLBpOgMuV1FrtcaeAq28nAVaHEMoNYnYFx7SFGuT6TUGVl60cKSAaGYLJTypf541DcO6Z8ZD4mGudu2VIB+LSIgdBsiZylL8uVfeQar5GRq9qAjquaVysvmpuGa1zw+sK1x9jv+LPmGjypDEidGETKdYKiCeQwqcqXBEUnBuGPwUaEn6+8RImJxsF71zwHwKHlcRYF6zI4tqqdbrhGms/DlaXqCqGK0srBVdX8gLj2GAws3P2Jd9YTqkVHGpFjUQhDKkEx2Ch0slO2LfMHAFI+wBYTDSKcltpZEC8s3lnkwLTLlfH91Fw7xSqpy8OVy8G1DyDgV8YKuzfXAF6pD0h00rGAVIgBK/JDEypBEdJ5JztFfiqRA5+A6fPWyIcen9NgvCC1s0gHMkxLgMPEVUky/MnBtdQrUAlc+wXCz43lqw88FYCjD8h24JnEINKnGhu9nOyM8FPaICzg+ZAQEQ0CCMBzo7v2y1lYqiLbLZNjF89VUaFTIvPvOVdZBrvgqmolN9f+gRi/MNfg45bAZKeBf7sOxUUj8gHol1yx9ffgYE1vnUVKpnXsWFY/HLtYrhGLEteYfwVB1VOuqqyCuXJxXPsJBt1mruEfJ9aOpE1iEelPg6CkKtfU0bafVK7iRydCQmSkUanQ89Q7t7aLcZYhWK7sgmtcpKR9YlwVf8MsXIWC7Fz1/Vg6rv2FX3MatxhrMJ7RYisGZB7BkGyYBIOhEQyh7cJHP/gDbDs1MriIiAb7eF7pnGUQy5UJXNW8WnnR3DRc44KXiSsPMVdVOwPXCwDAj3/wD3/+qL6YCOBTOtuqgFSIQSwgVQEr5Yd/FIMYhD9JYmUSFJ1Y8TiecvjvC5nSRCjxiaVyFrtcWS6uinZ6vgI1CDB93Vi+553PAnBYGHgmMYj8jVVBLQesIt3byU4FP8mGx5FLlFA0XnHFjpUA1ss27XKlSurycOXh5yrx6PkK1IDAFfqKsYJDndsSTAE5LJOdOsELJ0M5MhkaXqssuovPdXyulMJZ7HLlMuDKUpVyCAaAH/zoH95mXjlh72VgglYsIn1oEJRU5Zo6WrFKKk/DTyrn6ApKONIgz99QDmexy5Vy4XBzlZLlFgwQ4VPGCtN/8TtgelG2gORounSTnUJaPfo5Bve+Zl2w0RENouOVByDBLlcauMY6rEuuXFwQDtUK1IBAwP1OM+HSxKc3A9yOG4UYKAMySCoDspMe2GSnwE/ZNgOohl9W7EyE+u3vmgzSWQyOzZ3G4jXychUKCuEa0doycdULRHFcVSjfQ2gmMOjy2z9zfsNYiYJX4akCVpEflpsCElCPLiCVG2ykEhTE91Pyk9sG0PTDQYUDtJ9sJTw9rDYIZynDEuAwcVW1o9SYfnFlqbpCqKK0Sga6Z9at/5Oxyt53vhTA06LHKgasRgxMgsIwC0qkXGEj3MUgBkp+Mn8dv/Z+TudKxAWAhfsOeyrgjw3dEuAwcVW0s2xXoJR9P1gQ6C8Tn2r1/fd1NhKCDYDx7B0p19SJ9ROnLE/DLwt/AMzRkYbn8/qhXAIcJq4Sj2FagYpyZemnAK6DBuNrd37qbd821tnzjtMBnBTsED9AjqYHNtnZbpsV+4XtJwhGhF+wH08Fb/JqzWmw94zo/gaP7sZZEpcA8zt2/7nGmukjV5aqyHaHieuAwXig4tPbkyvSB8wBGSSTAtIgBuGPSgzaaZMYKMVMwU/Zto5fuOMofo1jgbZoMNHxKh/p/3KlTDXq2IoKA+Qq2emGq6oVVTIt11hWWbkOHL4P/pPbP3P+I8Za0+84D+CTzQHJKQPSYGPQk52Jo5/WZGh7pNGaBBUrD/1yZWFcVVkFc2Ud1yF4uE+2k4Hr4EEX/fjTF37fWGX/X07Cx5WdY9KIgUlQIgGpEYMyTHYq+Yltt+Y1gjtCjxYr2eVKcRd90BXHVYUhebiPzVzVvAYPAq6+81Pnfzyx4lzz70E4XBlsAIxn70i5pk6sv3QBq7FhEoPE8jT8Inkt0XjVx7etArCyb85ilysV5liqvsQf7hswGPTFHz1x+pLEig/++akgXBgL5CBtCsjSi4GCUxI/5mMAwFmsN4/qm7Ms++XKYeKq2k/NtVOskrqSqQbjUz9+4vRbeNMm31jv4bc9EfC/DHAl2LFjI0kwWMiX00D876wSDION1IKhsaGf7FTwE+viKABwGc6RgG+XKy1XNcnwJwfXcg0zmJg23fnp8z+UXHWzg4b7JQDt5y3yBKymTu7LFV37WdrW2U7d9lrc87IRFw4fFf2D98BZ7HJlabgqKnRKZP6Fch0oHoWPN9/5j+dfl6r2gw9dCeD0/AFZsBjkFqsiBEVsnwmee7gL9o9kJoWBXjq2ZKcbx1a1okqm5RrLGj6uEYsS15hvBH/TnnIdKLZVPPqT2z9z/n2pau+58GKA3q0OuCwBK6S1AZlXUCQbuQRFbD8Df3KOdJmd9pxGb5zFLlcauMp2MnBVKLHMIFZnYFwHg/0AvfdHnz7/c6qBrhJ7LvxjMC5PHZClFwMFp674MUB0lAPitb1zbH3Qlc6xh2m5sgwrUGm59h8zYPpIY9F96g8/df5nMwjG68D4Z4T3LiUJBgv5chqK/lEFpMFGasHQ2Mg92ckGfgDAR7rweQLC1Uk+Z5F3QjkcW9VON1wjzefhylJ1hVBFaeXgqmp+QFz7CALuZ6b/45H3iZ98+u2/zbTzngvfAcYnATjZAlZTZ7gnO/W2W79HuiCMR+vncRY5MO1yZXw/NddOsUrq8nDlcnDtBwgPgfk7hMqXfvjEPd9PXEaNGyA8cOEmEDYByBiQBYtBbrEqQlDE9hP5P8kFMJ7eWRBB4Y4tNWSXK01cY82Uh2tvsB+EnxPop8z4H6+CG//nH86/K/XlR8zaX05i/sJ/AvFGAMIxZAlYIa0NuLyCItnIJShi+0UJCo23RANpnYWlKvLfq0yOXTxXRYVOicw/mesjDOwG8FOH8DMfvNfxnVl2eBbsPR5eMgZofzMzRCNSFEu1qshGlDuptxvRgmix2KL5RVd54TH5PvGBMcc/sN/xZ5XvuvhkTuMPnv8sgLYAdGxiQJZeDBScuuKXWD7hgjFhlyvVdWSusf4PBCAd130AthHTDX7Vuf7Wj77+N7DoL+64oIon0rtBzqUARvt3djaVG+oUOvopQlAAwJ9wGTwW32cIliu74BoXKWmfGFdF/6bj+jhAW3wHn//B5X+8I/dQ2qJ77Hn7C/Ak+kcAxxdzhi9CUMT8vGKgsNGVWCWVC5cnYmH2INQLBAv/SzUyBqEKpV2u3E1EV836zWt/fOWbDgIALlMegEWvcf8FvwuHPgDgTQCofMN9KV2OyU4Tvwk3zGkbiwWUYbNtJF0QRuIqcxDG8uJkJBa5uKqaz8R1F4OvOPI31S9fe+1GT8HAol/Y+/Zj4PF74dBbEbwCwk52puCX2Pa4C2Ae3Hk0Xk0w2IzXyRWE8j7x5qT91ILRKVZJXR6unIsrAXsBvnjHlef9q70EGSDuuKCKwysvh4+3AvxShO+LSQjI0ouBglNX/LLwj/GbcMFYAHhlpJocb8pMu1zZaoi/1Kg03/WDv3/zo7hcUcWit5i+YBxN52RU8DI8yXk9fPkO5wGenTMFZFkERbIXLx91AZ6LZEmNKINQcQ7CmV4QAAAgAElEQVROCkJFhU6JTCyTYOThKstgHq7+fQ7RG2657Lzt8VoWPcEdF1RxuHss4EzBb04BdApQeQEcHlGeTbs+wxchKBKn1G3rbPdMDNLy81wQFqJilyIIY1nxOnIQxo4xEADNmbxnS6sxJcjD1b/Rc+kNOz7yxw/J1rPh3Ar2Hflk+DQFwrEA1gK0Ej6tgIOxxN1LB+GGTF+huEF5vIPVNphHQFgJpknAX43D3SPBqII9tO4VKcvZOUvA6vgVIShi+3kFRWxf2XbTZca8iog6CCU7UkZ4/mZFjbSCwZJgCAXZBEPDVez37Fx9Yv/9O64876O55y72/c2z4PlngnA6cPRJQFscRGsU51V+BB1bsMOLD15xlw7fFb+8giLZyCUoYvtd9G8xfdN0QbTQOivI0aMKwhI8hBaP6n5xbQJ8/vYrzvs8rog3Z8RDl6wF8ZvAeCuAqdjdl0ONvAGZV1AMNkwBWXoxUHDqil8W/jp+yvJFl5gPxsJLEYN9WK6MB7NKIHrJVdFO2/4csb9x+xXnpXvzU4A9Fx2FCi4G6HwwRjPtOxQos8OL7WcJWF37eQVFbL8sgiLZy9a/My4zTyNWVQqgHi5XRo2oBaNTHGNRLFeJR0cw8JLtV5x3i4K5Go+9axXqzodQofMB1FLvNzTI6/BieiAOr+BXhKBInFK3rbNd4r5hOuAy6EESwy9xuTJ/EEqGpZ8kwVDs3fulVY99vHHHla9PLxgPXXI2qPIpAEem3meo0A+HB8p3ds7LX2NjWEc/5M+4BP9BgNRBiGW9tMoAvW3nla/7z3ipAo/87Up43ucAvE6pkUsChjNQpFyTH6RLJShiugjByysoYvtd9G+v+wb8W9chetBj2VirUm+WK6M2Svwu0g/uuPx1n481pML0xU+Hg68BWJ+q/tAhr9PlFRSDDVNAll4MFJy64pdXbDU20vBnTLs+/AfBiul8VRCKxxYLQsUxmwSDJcEQCrIKhuk+kXxceesRv3ZTfB8DwN53vwiO8w0Ak6nqDx3K7PBi+1kCVtd+XkER2y+LoEj2CutfnnYri/Rg00UUZVhaVbWj1JjCuT5Ucb03XHvtHyc/cPbQRWeBnGuBYbwRKwl5HV5Ml83hs/LXtb+s+2bancfY3irmPQCVwIg5CBW8YoGZRjBYqi4LBCs243UK58r05ps/8sZpJOGhi84C6D8AVBPrDh364fBA+c7OeflrbCzF0Y9DDzhbN53SBLA3MJIchBxtN1ZBFgwVL7VgKPsgXopecSXGv+644nXXK5hHsffiPwDoq1jSgsGIOkwewTDYSO3QGhsxfjJ/nW028JP5G2xo+cn8dfxM/ZsgGKzjL9g23wpuEDwWyhU2PO+e4MLkZ2A+IhbnOYPQZKS07yIlzABI/pL4Q5c8GYTrAEwk1h0qZHV4U7kmP0jH/gYZAtYoBnnalmwYy5Hx2PvcN1p+efnHbDQx//i9rQ/DEN8VD0IpmKUgVESpgle0sMzvImXgfdsvf/2eeA0Rm12AvwxgjbnesEF1BpLPNCyVC/sF6XAXjQ3tGTJIJgmGgpPMPzEgDTZSB6TGRqbRj6Z/dX2TSvAMfRPhr+OX2L/3YsPtDRcA2OPdIIobURJubcf+Pu2NVCslQp1sgqHKKoKrf9/MWPVzscZk7J39KAjPT6w3NMjiUJr8TAFrsJE6YHX88vLXtW/7Jt4+fgq032zkO7jL4Xglju+kbiOLYAgFWQUj1dJqvEYiV4Lz0bs2bVxUkOzg4YtOBNFFxjpDhWFxeAWnrvhl4a/jV4SgiO3n7V+x/T70L+EnQPu7lY47sitkmBiEsogkCUbMQGBFczDKZpF6aTXSfCqu09XxhX9WtCjg3Ap8+gfEvw4ypBDPQKLD5BEMg41MDq9I28lO9X5heULf5J3sDMulfN//EdAWje/97ekHCPygIu7iQYh44VAurXby/9fWTW9ZkHMj2Ps7bwfh2cY6QwE5IMV8Kd2NwysDUhaUoh1eEiuToKQKSM1xxfhp+qbbuR9d2wE/1XGl+tvJbSts6Pqm4nRGGq12aHfUFEd5xqJUF4TxOjJR5d8jXhoQSyEY6bgqWmsSnC8qCjv4zeZREL/PWGco0EeHVzpdkEwKyLwOL/DTiYFSzBT8lG3r+Mn8od7PGJAyfx0/WVA0/as6ru779zE8bevdgCAaYN5VQBAKP2kEg6Uqst0ePzAHfDdxxWR05k8BrDPWKTXyOjykur10eJGfwUYvRz+DGO7LfaPsX5Gf5riU/HX8NDZi/CQbzDsB9oHwFe8AE+6MGIiRQgyDWlqNWJS4xv4ugVipuDI+DyPOrYCOvthcp8xIIwam8nY6UQxM5UghBgpOXfHLwl/HLy9/Xft5+1dsf4D9S3RrkBOKhud7t1Ucp9sg1AhGKT+duFibcL8bb1jAviPPAHCMsU5pETiEdXh9+0UIXhf9W2jfiOke9A3zzmArvDzZuumcewBE3q6dXTBUKMX7PVVcb926aeOsknIA33mzsbyUYKR3aKEuFOnMTie1PdTDfUj8dfw0NmL8JBtlnewU+Xf2W8BkIxxpdOY0WuX/3UlmDsJYXjy4JSlQqUzelZKsXJlvVLTewSN/uxLgVxjrlA59dHil0wXJXjm8wC+9wxv4GQRFJ1Yxfpr+1fVNIj9ZUNL2r8gvoW9M/av82/q34Mid80GVqGgQ3daqrg727lZKYlIgEUdKwWCpqXxcmfj7ihodeM0XATRurFMa5HV4SHVL7vARfhobMX5S3wz16MfUv2zgL/BTHZfIT7Uf0feEDETepMG+f1t4+5KSvHwQwU+SYCj2lqM6JhixZqAVjOxcmRfwP4rKwm7OqSCVvbIhjRiYytvpRDEwlSOFGCg4dcUvC38dv7z8de3n7V+x/RL2L3t60XAnRn7QnKs3wZBfyxMf6mcSDJaqyMHYq08nark+eNsn3jAT3zNi5VRzeRkQHJh1eH37RQheF/07TJOdan73Yv2OHwmF0cuT71585kEwdss7931pNaYEccGI9VUGrtR+8EaPzS6ozO/7ZKR3aKEuFOlcZyDB9lAP9yHx1/HT2Ijxk2wM12Snmh/h/0KCI2cQcJu4c6qlVaEgm2BIfDvGRQaxOpkEQ8HVZ75bQb6DR2aegtJ+r6SPDq90uiDZK4cX+HXr8Mq2dfwkG6a+0fKT+ev4yYKStn9Ffgl9Y+rfVGIbpr8OCTHRYML25CCUd2r9pxMMyVgkL5qrEIxYUzKB7Fwd4LdxMgI852nG8oEgr8NDqltyh4/w09hI6/C6vin16MfUv2zgL/BTHZfIT9d20H4A4n3YV4198yc2d1FhvtGL7KsKwmhePDQlKVDoRe6lVUU7Wbn6rbd06UF8hEKvBog0YmAqb6cTxcBUjhRioODUFb8s/HX88vLXtZ+3f8X2h6R/GdfilK1NSIiNNK7fdM4egOLX/JrAjIVmr5dWJR55loEBelyxVwc+rTSW9xXBcUtnjFyCYbCRyeEV6aU83E8SjCzDfV3fDGT0I/OX8/1/hQIx0Wjt5t8QOygIgRvmyYIh20E8qvu7tKrkyj7Md4KCV5jL+wE5IMV8KW0nOw38TILCBv46fpKNpTDZGdsPAHAvjr/1ViigEQ18I59gsFRFDu4eL62qWlElWTk+ETDom7pUAdkjh1c6XZDslcML/Ap3eJmfwYapb7T8ZP46frKgpO1fkV9C35j6N/fopw3ClxUBDEAjGsAh2wA80qGSFITRArVgqLLioiILRqxfArFS/cFYx1WepC0rTAGJaFrrMEPg8BF+Ghu5HF7om6U++lEdl8hP13bQvtK2AOKvqAs0orF10ylNEP4rFoRCQ1kFQzXqiPh/TDAUf7dEwVAhYVWnNOjG4UWHgeI4i3R4kV9Oh4/wUzi8SVCGcrgv8zPYMPWNlp9gI5OgaGPhRzhux126Qs1IA4CPf4uZbBPmeKZ2s5XXr6VVlqoncC0NunX4drovDq9x1hi/IhxestfT0Y/MX2Hb1L+lHf3I/GUbSnzBVKgVjRc5P/oeg++L8pMFghWb8TpmwUBsI+tDaDrBMHEtB+SAFPOltJ3sNPAzCQob+Ov4STaW7mSnCnMg/19MFbSisWnTJt8B/qXTvhSackwqM3u1tKquk5ZrOaAKyB45vNLpgmSvHF7gV7jDy/wMNkx9o+Un89fxkwUlbf+K/BL6xtS/3U52KkFfxtTO/aYa+ssTAOzg/wPDUwdhJOzlqIYQ/ohWzC4YJiO5VnWQ/EH43sEUkIimtQ4zBA4f4aexkcvhhb5Z6qMf1XGJ/HRtB+0rbSfAoX9MrGIq3Lrplb9h4N8jzaYVjFiWFMySYCgURd41VljUqk7/0I3Diw6D2LEV6/Aiv5wOH+GncHiToAzlcF/mZ7Bh6hstP8FGJkHJ5O/bcdzNdyZVMooGAJDvXZk1CPu+tCrbycC1f+jW4dvpvji8xllj/IpweMnekpns1PRNeSY7FeD/naZWomhs/fBrbmfgxtRBmGZpNV4jo2CoDegEQ82rX5ADUsyX0nay08DPJChs4K/jJ9kofLJT5q+zLf9tdfw0xxXjx1Kd1JgGHfiPNBUTRQMACPzeWNSpeKVdWo1ogKwCaQSDpeoKoYrSGhBUAdkjh1c6XZDM6vCSDa3DC/wKd3iZn8GGqW+0/GT+BhtLbrJTAeKrMHWX+XvGbaQSjW0ffPX/Q3tuAwg4SgT7sLSqMNDZJ0pOtqgw2EuYAhLRtNZh8jq8ZGOQk52FDvel4woDLqFvTP2be7iv46/jp7GRSawUNvJOdsbxEObriROgAVKJBgAw+H0AFpRBWODSqtxq9CdJMBR7ywrEDF/RUnHoxuFFh0HkGGM2hmGyU9d2wE91XKnESm5bYcPUN8qA1fEz9K9qPyU/Tf/qxCqzoHQlGABwGTbcPpe2cmrRuOlDr7mbGR8pYmlVUaFTIndWJsFgqUoKroWiW4dvp/vi8IagLtzhJXt2slPDjw38ZP6yjdz4FUYmP51lh9SiAQBOdfVlBPy4k9OHTyd29ogVZRMMZVZBkAMywiSatpOdBn4mQWEDfx0/yYad7IzDcS7CsdfVM+2SpfLWTac0faa3Amg1EuMtBW5MMBT9ahIMlgRDKMgqGL1TDFVA9sjhlU4XJLM6vGRD6/ACv8IdXuZnsGHqGy0/mb/BxnKY7Izjehx3c+zFwUnIJBoAcPNHXn0ngd+deqUkUkMWkSTBiBkIrES2o3XUglG8ZJgCEtG01mHyOrxkw052avixgZ/MX8fP1L9s4C/w0/VN7G+nsFHcZKeMg/Dp7Xl2zCwaALDtw6/9FDOE5+1lwUBso1Sfeez6LvJuHF50GCiOK43Diw4t76fjl9PhI/yKcHiJv1as5LYVNhIDUnNcMX6G/lXtp+Sn6V9d20p+pv4tVDAAwkV4xi2/yrNrLtEAgP0j/BYAN6oFIyoQZfzMY3506/Aij147vCGoUzu8xoaRn87hkwRF5NdF/9rJTjMI/4ap7Z/Ju3tu0bhr08bFSs19LTPuAlIIhrETWPpJEgzF3oql1VhLXfW/HJAqo2kcniPHpLQRO9C8Dq+w0TOHF/lpjkvJX8dPYyPGT7Ix1JOdur4pEISfo9Y8vxsTuUUDALZueuVjfsM9zQd+2Mph6ThlwRBKNArQv3eRZoEqIHvk8Eqnix5DNN/k8JINrcML/HI7vMjPICi6tmP8NP2r6xslP5OgpO1fkV9C35j6N7fYFopp+PxyHHtbwidJzehKNABgx5WvenjMx6kAbpEFI9aHgQCoOodVgiElUwmGKkvOSDupYQpIybbWYfI6vGTDTnZq+LGBn8xfx8/Uv2zgL/DT9U3sb6ew0bvJThGPgnAGjt/xy24NdS0aAPC9yzYeWDm74gwAnwjyuhIMoSCrYKhGHZG4Tv1H6cbhRYeJc0/n8KJDy/vp+OV0+Ai/Ihxe4q8VK7lthY3EgNQcV4yfoX9V+yn5afpX17aSn6l/eyUY9ADY+SNMbd9VhLVCRAMArvvES+u3fPTcvwLznzB4NptgSGj/ITieqd0MGojtk0sw/NBePocX2+61wxuCOrXDa2wY+ekcPklQRH5d9K+d7EyLH6LpPQ/H3/yTogwWJhoBbrnsdV+Az09jwhdbOWkEI5oXFwhWbMbrmAUj3rwRdrJTfVwhP81xKfnr+GlsxPhJNuxkZxowwJ+FN3Eyfn/ng0Uajn3LtQhsv/z1ewC8+eS/+bdr2cEHmfHsWCWNiMRkRNYGZWb2B+bSIYtDyW0YAlZnGzA4vKk8K78s/HXtZ+Gv41eW/hXbH0TfFI6fwHf+Es+4+aZeGC98pCHilite980dl79+AwhnAbgp7LXQP9IIBktV5M7O88BcGhR1BlJxyHIGyurwOhsJgmEnO1MIhqF/yyEYPwPRG7B+x7N7JRhAj0YaIlqDgNd/C8C3nv/erx7j+PwGAK9l8DMRiJasHWEihWDEsiThiQlGmj9Y8PB8kljI9nUObyqHwaFU7WcRM137Wfjr+OXlr7DRVf+K7Q9T/xaGR0H8dcD5PKZu2d6LBmT0XDRE3PrR1/8GwEcAfOTEd29ZjWrzhfD9EwH6PYCfyuDfBWgknWBA8TeIi4osGAyAUrHN4jBLyeEle10Lnu2beJ3ceASEu8G4G8CPQLwVUzt/AnBvXxEjoa+iIWLn1Rv3A/i/7X8hTnz3ljEAY000VpktaJ7mlRWB4ptz9fmHU5EsZP5AzC/L2TmNw/vvRKVyHWKoR36SQZq0jIW0BgVzJtv1tGcHjY0ErpnpZibT3s1pgP1Z/GzdDDZeO8hvb4QYmGjosPPqjfMA5gEYP9jSU/gAqOjhaJJgFCEoYvvdnuGdh3H0l3M90GTRAzxj0AQ6KJ1olAPSnIaYLvNwP4lfpuF+KU5qFiWEFQ0t+i0Gkj1jeRp+RYx+LCzisKKhhI/ONWhRw/005Zo6hQuKZE9ZbmGhhhUNLQqYPyj9ZGcCPwsLBaxo6NCT4X4RgiK238PRj4WFBlY0tBjgGb5vk50G25RzidBiycOKhhLSnEbwO0gx6Nlkp6ac+W349WtPgwhfth0paP/o7jPSjWKE+sp7lFLsF2nfsF+MXwLXZvP9eOaOdPf0LCNY0dCi4OF+KSc7jfxOB5PQfoq2iREXW2ToG1LXSewbzX5KfmIdgrFvqu5VAKxoSLCikYiE+YNhn+wcptFP3/vXQgUrGlosAYcv3einCEER2+9x39h5HSWsaChR8jN8oWIgppfS6KcIQbFQwYqGCqZnT+xwPyN/XfvDNPqxEGFFIxFldnjJXi/P8EMnBpK93H1jIcOKhhZlOTv3WAxy8VtKox87usgKKxpKiPcOlNnhxfbLcoYvQlDE9gfRNxYmWNHQYsBneDvZmYJfEYIi17FIghUNHUxOZ4f7KfkN0+jHIi2saGgxTA5f0Bl+6MRAsmdHF32BFQ0lxGcS+nF27rEY5OK3lEY/dnRRJKxoaFEWhxfbL8sZvsDRz8D6xiIvrGgkYWgmO4sQA8leKUY/RQiKXMeiG1jR0MEO91PyK4vgpeFvUQSsaKjAijkNMT0Qhy/oDD90YhCmHwF4AoyxfPwsikJPv+U6/BCdv+3QzNAGRVikOcOzOOTWjB5MQc0sBbWOn8aGsm2Jn67toH3VcUXEKo9gCPxbaQ/gb4NwARzvKeDDRnDc1sNw3LZxLNIT4PMLQLgc4F/q+VvB6BXsSEMJxZu7jA5vKm+nh+4MX+DoJ1vbN8BxLsLTbvgJVHjW1scA7Gz9o/dh90mvAeNKAL8Tt23RC9iRhhG6M2gGwdCOLnSjB7ltIN3oosSjn0TBYADcBPDnOO77Z2gFIwb2MXXLFrj8DBC+ZQWjP7CioYUYkEJerFzMl4KmPMN9DT/NcSn56/gZbJj6JiooC3CcM3Hc9z+FPHja9sfxsPtKAF/Itb9FJljR0CG1wxvO8JF8k6BozvBRMtG0afRjHF3AMLpgqVzXNgz8RbE19I3Ij/nP8LQbtqIbnLK1iYWFPwPxTV3ZsUiEFQ0lfKR2+EgdNgRkkEwKyIQzfCRgNfyMowvDyCVoX3VcPRv94HOY2vplFIENtzeA2usBzBRiz0IJKxpGpBldSGf4yH5Sun/DfbWNnox+TKMLqW/i/A6C+QMoElNb9wK4qlCbFhFY0dBCChpTQC7ryU5T2wI/dd98rh3kxYKq1wB4vHC7FgCsaKjBaASJeECazs6Ip+1kp6ZtAA59Db3A1NZZAN/p2g4tNrons/RgRUONx/UBiU46FpAmQdGc4UV7cnopTXZG6jDA/AietvVW9Az0za5NNNwDBRBZcrA3d6nA3B7a6hxezpPSQ/kgVxb+OtsZ+BN+AfV3GIsBeT8Dd3VOZDzq2kscBaxoqMDY1/mEQd6AzCsoYn5eQTHY6EZQChMrBoDi5zJENP09qHQhGkQzOGVrszhCSwdWNFRg/LR1F3mZxUCyN2yjH8Y8egnXmYtQyArmXxTGZYnBzmmo4B3yc7Rua0b7+hthOkSas7MYkHkEo70fC2nZdipB0eyXSzAUNnKNfviJ6CWIDu/Swq5CeCxBWNFQ4dhP1AHsNjh8J20nOw38dfwAAEegl/C5O/tEdxXEZMnBioYW/F2Dw6cIyIQzfCRgFTYSRxdlHP3I/A02mJ+OH5/YQ+GgU7vb37+xGB5LD1Y0tOBvJwdkqYb7Qnme0Y9pdNGT0Q+hWnk5egbnnC52nsbUzh8XRmWJwYqGDo+s2A7gobjDJ5ydl+ednR1+uraD9sX9fP8CgAhF46cveCHAx+U3QN+UlNVCgBUNHTZ8pgHmfwq37WSnpm0dvxSCQnQC7nrBuSgavvPRrvYn75+SKy1fWNEwwefPgLhpJzsR3y8szzv6aYNwJe56XnErKXeddCHAJ+ben3AHpnb+d2F8liCsaJjwu1+5Hxy82CXrcF8MSGm/IF3YcF/M7/XoR+ZvsKHsmxiOArlbsPv4mq5Cauw++SQQ/ldXNnzqbv9lACsaSajg/QAfbG2UdbifdvRjGl30Y/SjxcnAqm/iR6euSlNZibtOOgPM/wWgG/H5MY7fXsy7PZYwrGgk4aiv7AHTVb0b7iNad6lNdqYF4wxUG7di98l/mH4nAPe8bAS7T3ovCNcByC86LbwLvXweZomA2E4SJ2P3uTWM4TYwnt3JzDrcN5W304nDfVM5cox+0vLXtZ+Gf2YwCNeC+WNYv/N26aA6uOd5k6i7rwLwAQBP6aZBAADxFzG1481d21kGsKKRFve8dj0c53YAo9ozvJwXpFMH+zCJQRp+3YIeAPgGMN0L+A+BaBTAUQCeDuCPAIwU0wx+jVrzWTj2NvuawBSwopEFv37tG8H0BQCUfbhvKjfUKcNj7Fp+hY0uBolFsH8qjt+5c9BEhgV2TiMLnvy1L4HwYf0ZXkrnOsPr5g/SCobQdrkmO8sIBuhtVjCywY40MoMIv3zNZwB+WyeviLNzltFD3tGF2H7Rl1NDCML7MLW9uxvBliGsaOQCEX756k8A+Iv+DPfzXo7kFRSDjeEfXbTBl2P9jvcMmsUwwopGbhDhl6+6HMAl+c/OZReDNPyGDgzgIqzffs2giQwrrGh0i1+9+q3w+dMACzcVFRGQeQVFYaMno5+hxCzAb8H6Hf8+aCLDDCsaReCXr3gBmP4VwNH9OcMXIQai7SU/ugDAd4PoVZjabt/I1SXs6kkR+N2v74BTeyaIv9LKYCzbOzvLCOIvgmonWMEoBnakUTTuPuc8AFcDeGK24X7Z5zeGEvfBwdtx3PbrBk1kKcGKRi9w31lPQN25DOA/g/jxjVKKwZK8HFkA+Cos1D+KDbfPDZrMUoMVjV7i5694Jir+ZWB+qZ3s7At8EH8ZTXcTnnnTrwdNZqnCikY/8LOzT4Hjvx/gP+pk2snOwkDwAPw7gA/aeYvew4pGP/GLlzwXcN4D8DkAKvbOzq5xEMDn4dM1eMYtvxo0meUCKxqDwM/PPBxw3gTwOwE6ojzzG8MC+imAfwF5n8PUzv2DZrPcYEVjkLjjOVWsPPR0gM4F+68EsMpOdmpxD4CvwXG24Lib7xw0meUMKxplwT0vG0HTOxPkbwTjFQAm7WQnfgOibwDYgqntOyTFsxgQrGiUEQ+cOIbZiReC+TQQnwbGswA4y2Cycw7AzQCuB+F6O6lZTljRGAb87PRD4XungnAagNMAPLVVMPSTnXMAfgDgFhDfhNohO3DsdfVBk7Iww4rGMOKuFx0Ft/Jc+P4JAG8AsAHAmpJPdvog3A3mO0G4HR5uxWL9dmy4vTFoYhbZYEVjqeCnL/gdeO4GODgBzM8A81NAOAbgFQNgsxfAboB/BsZd4MpujC3+0L6Dc2nAisZSxw9feBhq3jEg5xj4fAwcejJ8fx1AqwGsBmE1gDEQJsGoGCz9FoQ5MM8Bzj6AHwHwMMB7wdiDCt0Lxr1oTvwGz/zuwf4cnMUgYEXDIop7njeJ+WpLPGa9BTx/5/yAGVmUDFY0LCwsMsG+T8PCwiITrGhYWFhkghUNCwuLTLCiYWFhkQlWNCwsLDLBioaFhUUmWNGwsLDIBCsaFhYWmWBFw8LCIhOsaFhYWGSCFQ0LC4tMsKJhYWGRCVY0LCwsMsGKhoWFRSZY0bCwsMgEKxoWFhaZYEXDwsIiE6xoWFhYZIIVDQsLi0xwB03AIh+IiACAmbF582aSy3ft2hXmbdy4EQCwe/fuWL0iMTU1xQCwZcuWSP769esjL6LdtGkTt+mD7Utqhw72xcIlg0oMAgHYuHGjMvDXrVsXyZueno5sT01NYe/evUbB2L9/fypBWb16tdFhnvSkJ/Hu3btlfpF9pqenYzampqY4EBtRZC699NLWF2yto5YGVjQGACIilSisX78+EriBGIgisHr16jCtCvQDBw7QUUcdFcmbmZlRCY0yPwsmJyd5enpamS9u33///TjkkENijiYK0P79+8N0IDKyuOzatYuBjqgEI1rodG4AABASSURBVBYrKP2FFY0eIhg1XHrppaE4yKMFWRgCUZAFYXJykoCoAExMTITpgwcPEgAcdthhEQ6zs7MRO2vWrInULwITExP8yCOPRPJWrFgRcax9+/aFdQXOYToQmpmZmch+gbAEoqISlGCUYsWkP7CiUSCIiHQCkUYcZGEIROHgwYMkikEgBGNjY+G+c3NzEREYGRlRisLCwgIBwCGHHNLl0bZw4MABAMDo6KjSker1eiR/fHw83J6fn2cgKjD79u0LhSUYyagEJY2Y7Nq1iwMhsZc5xcGKRheQRUK8vFi3bh3pBCKNOMzOztKaNWvCEUEgCrIYBNuBGLTtR7YDVKtV7eiiXq+nGnmMjIxoHabRaCjLFhcXw/xAXGQxCbZ1opJFTEQhMYmIFZB8sKKRAeJchGokIYqEPILQCUSSOCwsLFAwKlhYWCBZEEQhEANflT8xMRE7psXFxVyXKbVaLeY4Bw+2PuEqCsvs7Gy4LeaLAjM6OsozMzNh+sCBA6G4BOlATIJLoWB0Mjc3x+22Q0FJIyLiJY29nMkGKxoJSCMUppFEIBLj4+MEtEYQwWWFTiBkcQgEIAj+er1OK1a0PgZfr9cpEINAAMbHxyNi4LpumE4SifHxcWX+3NycsZ9EEWk2myznz83NhWlRXFSiEghKICaykMijkvn5eQ5EJBiRqEREvKTRjUKsgCTDioYGuksP3YhCHk2oRhKySIhiUavVCABWrlyJhYUFCgRCFIyJiQksLi6SKAqBIIhiIItGpVIJ041GI5gPCY8162hDFIj5+db3oavVapjneV5ENETBCfYNhCUor9VqLIpJIByykASXOqOjoxyIhygi4kgkEBDxciZJQMQRiL2EUaNy6aWXDppDqUAtOIcddphzyimn0L59+5y1a9fSunXraHZ21qnVas7Y2BjNz8878/PzNDk5SfV63XFd16nVarRq1SqnWq0SM1OlUnEajYYzNzdHjuM4ruvSxMSE02w2ncnJSWo0Gg4z0+joqNNsNh1mJt/3nYWFBWd8fJyq1So1m02nUqk41WqVKpWK47ou1et1J7DPzKFtZnbGx8edRqNRISIn+Oc4TphmZmd0dNRB625gp9lshnVHR0edarWq/ef7vkNEju/7juM4BCDMr1QqJLQRpn3fd8bGxsjzPKdWq1E7j4jIGRkZofn5eYeIHNd1qVKpULVapZGREfI8zxkdHaW5uTmnUqmQ53nEzDQ2NkaTk5Oo1+tUqVQcz/PC0Rwz08MPP+y4rkuu64Zi7bouzc3Nkeu61Gg0aHJyEvfee29wwqRarUbz8/O0bt06/PrXv8batWtpamoKAGj37t106qmnwsZJB1Y02gjE4pRTTqGpqSkiItq3b19MLPbv30979+511q5dG4pFo9FwVq1aRfV63QkCudFoOLJQACDHccIAC4TCcRyn2Ww64+Pj1Gw2nZGRkVAUfN93gmBpNpuOKBCjo6MUlAd2G42GMzIyQoI4VIjIGRsbc6rVakRAPM+rjIyMOK7rOq7rhkKCtpj4vh8RiKCe67pOW8yoHfDOyMgIVatVx/M8x3EcZ2RkhHzfd9ojpXazHcEIhMJxHHJdl3zfp5GREVpcXAz6gDzPo2q1Sp7n0ejoKC0uLlKlUqHf/va3TqVSoVqthkBAJiYmqF6vh/M/zEwzMzM0Pj4OZg7ndALxcBwHk5OTGBkZocceewyw4pEa9vIEnUuRLJchpksQ8fJDnJ8QLzWq1SqpLjlc1yX50qMtBjQ2NhZeSlQqFWo2mzQyMoLgt9Fo0OjoaHgJ0g72SHmbF4J8AKjVapFtHVzXDS4RItv1eh1A6xKlXq+H+b7vc5C/sLCAIM913bBecClTq9V4fn4e1Wo1zBMvYZrNJsuXMsFljOoSRr58kec/xLkP+bIluKtVvGwR5zwALOugsaIBUDDJKQuGOMEZ3GmpEoyxsbHIfIU4oRnMVQQikVYsgnkIMV8UikBIZJEQBSIQlFqtFgqCKCSBWKi2VVhcXAwFQd4OBMJ1XQ7y6/V6REiC/EBExDLP87QCIopFICSBiMjiMTo6yo8//ng4iVqv11mcSB0fH2dZOHRzHvJ8h50sbWFZX560L0kKEYyFhQWamJgIRhk0Pj5OzEztuYiYYLQvMcLLFM/zyHVdajabTq1WC9Oe5wXX+rH5gfaw2/E8L5xLcF3XqVarREROo9FwqtUqBb+u6zqO45Dv++GlDVqXDpVKpRK5PKlWq05weRTkVSqVsB0AzsjICLXzwl8ADhHR4uJi0CYBoGCep315Qu2gC+cigr4CgGazCcdxqFqtIignIjQaDbTrAQCq1Spc18X8/DzVajUsLi6iXq+H6fblE0ZHR+G6LlzXpYWFBYyPj2N8fBwjIyN47LHHiJmxZs0aPProo8F8Cebn52n16tXYt28f1q1bh9nZWaxdu5Z27dqF3bt3Y+vWrX3z07Jh2T4aL66OBE+B7tmzJzI8Dy5J0owwgpFFsK/pciQYPahGF2NjY2F5pVIJ/zWbTXIcJ9z2PC+cgAzyx8bGKBCFQBjEeYi2AFRc13WYudKeYA1/q9VqhYhcInKbzabbbDbdYDsoZ+ZKsA8zVwKbvu+HbbiuG4pSMCcScB0bG4vkVyoVGh0dhXhswb+gjxqNBlUqlUCAIiOz9pxR2MdB/wfp4NIw+NssLCzQ3NwcHTx4kGZnZ+mwww7DwYMHKek5nOCO3o0bN2LXrl20efNmCh4TWG5YtqIRYNeuXRTcd7FhwwaIowyg9QBYko1gDkO+JAFagiHeXLW4uEjyEqd4b4QoJEDnksRxnPBSpNlsRi5DgknBoF5wqeE4DgX/giANRgVikFcqFcdxHIeZK67rVsbGxiL/XNetuK5baU/COu1VnDBNrSWasI3gn8gBiF4+BWnHcSKXWc1mM7w0A1oCIS4Py/ecBP9E4RBvcpNvmxdvnw+ewwnuwg0e4gvuswFa81niA4O9fr3AMGDZi0YS5CdGAwQOlwYrVqww3qad4z4JAAjnLYDoJGbS3ERQp9lsUrVahed5wUoFxG0xv9lsUvsSKtYe0LpUkCHWSZpkVUEUCyDeT7ob0bJAfqBPRNrXBSw3WNFA5+UxQOtWY/ExbfmpywDiU53BQ1u6h7eCSbqDBw+iVquxfAu2eAdlcLNUgGCiUJw8DFYgfN8PJxKDicjFxcVwUtL3/UjdxcVFMDP7vs/NZtN3HMdnZnYcx/c8z/c8z282mx4zN5vNpiemicjzPM/3fT/cp9lsBpvcaDQgt6VKBxOkYl0ACI4tOGaxL4Jfue+CydBgW7wpLA3Em8AAIJgMvf/++wF0VlLS2lsuWLaiwcy8adMmXr9+ffjyF9XLYURMTk5y8NDUihUreGJigsfHxzkQidHRURafoxCXA8XbpcWVgMDpa7Uae57H4oqB53ksriz4vh8RDt/32XEc3/d99jyPHcfxR0dH/UAU2vVDgajVap4oEJ7n+Y1Gw2s0Gh4AL0g3Gg3P9/2m7/tNMU+sI9oIBCT4XVhYYMdx/IWFBfZ9n0dHR/12uywLWXC8wa94zEDr7lLdKopqVQWIiodu+VV8RF9MA4i8+yNh6XVZYlm/7i9YNtu8eTN27dqF9evX0/T0NK9btw7T09NYvXo19u/fTzMzMzw5OYnp6Wlat24dz8zMYHx8nBYWFjh47mNubg4jIyPUXuLDwsICarUatYUDANBoNMLfZrOJZrMJILxUCLcdx+H25YDMlx3HofYdphgbG+NGo0Ft8aD5+XlqB0xsuVVMB5cvi4uLYZqZY/dtiJDvzRCXW+fm5uC6Lge/juOEo4B6vQ5xFNJoNNhxHFQqFW40Gmg0GizuS0TseV4oBMzMnueh2Wxys9mMCEaz2eRGowHHcSK3nacRjGCUIT7wlrTk2h6Rsug7Xbjf0GJZiwa31/KShAMA9u/fj8nJSRw8eDB84Kq9ksLz8/MYHx+PPNRVr9cxOjrKwUSc4zjcnqQLRaPRaKBWq7HjOCQEMLfT7HleOFFYq9V4cXGRPM/j4B6NdnCS4zjkeR6L92wEk4qO44R5AOC6rigWFIgB0Jl3EPNEBPdaiF0obDMzo9FooFqtcnt5lJvNJlzX5ZGRkcgNXsElTdsmExEqlQovLi4G92+EotO+LEGz2WTHcbgtqhBFIxCLRqMhigWIKHaPRqVS4fn5eTiOk/oejampKd69e7d9rB725q4QurtCAYQrKqq7QoH4E6xpb/QS06qbvQBE8lQ3fAGdB9KClRagcxPX6OgogM6DauJIQ5ycDEZDYt0A4sNowXxDm0ds1BHUDwRCvIFLvgsUQOTSQrwEEct0d4K2ecdGFoFIiGIxMTHBCwsLscfpVWLR/tvHLkmWu1gEWNYjDRHtUUdwuULi27yDUQcAbosHAHClUqH2Eh3PzMzQ/Pw8VqxYwUQUPP7ORET1ep2CS4uFhQVaXFzkQECCJcn2HZB04MABmpiYYN/3ETybsbCwgPaDaoE4hDdGVSoVYuZwKdL3/eAXlUqF5ufnw9vI28dJ9XodIyMjcF03FIggyFWQL5MAxCYtg2Cq1+uR27+DSczFxUWMjIzEbhVnZg5s1Go1bs+HRJ5+PXDgQLAvO46DYLTRPn4+ePAgRkdHmYjC0UW9Xsfq1avDkcXCwkJMLADwzMyM8tbx6enpUCyuvfbaZX0HqAw70lBAfodGmpEHgNgNYIB69CH+yiMQoPPeDHEUAkRHHUD8sXixTH4cPli+TFrelesFE7Xyqo4MsZ7qMXnVI/KBKIhpoPW+jaIfjxeEAmlHFsv9dnEdrGgkQLxsSfOmrrwv4FGJCKAWkmBbJyaA+cU7wf0Ned/aFUB8wY4qH4i/kEclDkBHEOTtNs+YSMhv9NK9iEclFKoH0ux7NNLDikZKBLcMZxEQQP9yHgDGF/SI6WAy1SQmYp6YL77iT35Rj5yXBSrBEMVC9eo/UQhU4iC+qat9DOJcSjiSANQioZrUBOwr/4qGFY2c0L3ZC0gWESA6EinihcKqlwmrXiSsuzM1yA9eIyhjdnY2aFfrMHKZfKOV/C5QoDNiEHhExEF+J6j4gmHVSAKIi8Qdd9yBww8/PHLpAdhVkLywolEQkkQEQOS5lryfLhAFBYh+ukD12QLxxcTBtu4YJicnjccYBLwKYuDLQqDKF986Ln43RScObX5KgQA6r+0D7GcMeg0rGj2COJkKmIUESP+RJPHLaKoPJInPUsgCI0L+TkpeiMEvQv6Akvxtk6AOEP1SWzcfTRK/wGYvN3oHKxp9hDgvAuT7HKPqISrxqUwg+hU20+cXu/3Kmnz7tcAn9rlG8VONqud5AlEQvwWb9vOMdgTRX1jRKAlkQQH0ogJEP/osf/BZfLQ/QL+e2FR9IFp8ABCIfhDa9DFo+yHocsKKxhAhEBbxsgfoiAvQeaFQmvc+7NmzhzZs2JCLizi5mATxi/BA9KvwwWUEYAVhWGBFYxlA94Yp8W8vipAJ4tOduhdX2eBf2vj/AdH4FD9SXHAPAAAAAElFTkSuQmCC;" vertex="1" parent="1">
          <mxGeometry x="809.38" y="384" width="41.25" height="50" as="geometry" />
        </mxCell>
      </root>
    </mxGraphModel>
  </diagram>
  <diagram id="OIyaHBTS7aNv10zR7cLo" name="Page-2">
    <mxGraphModel dx="1426" dy="846" grid="1" gridSize="10" guides="1" tooltips="1" connect="1" arrows="1" fold="1" page="1" pageScale="1" pageWidth="984" pageHeight="787" math="0" shadow="0">
      <root>
        <mxCell id="0" />
        <mxCell id="1" parent="0" />
      </root>
    </mxGraphModel>
  </diagram>
</mxfile>
